<svg version="1.1" viewBox="0.0 0.0 1920.0 1066.0" fill="none" stroke="none" stroke-linecap="square" stroke-miterlimit="10" xmlns:xlink="http://www.w3.org/1999/xlink" xmlns="http://www.w3.org/2000/svg"><clipPath id="p.0"><path d="m0 0l1920.0 0l0 1066.0l-1920.0 0l0 -1066.0z" clip-rule="nonzero"/></clipPath><g clip-path="url(#p.0)"><path fill="#ffffff" d="m0 0l1920.0 0l0 1066.0l-1920.0 0z" fill-rule="evenodd"/><path fill="#000000" fill-opacity="0.0" d="m49.330322 234.56358l402.23624 0l0 147.27559l-402.23624 0z" fill-rule="evenodd"/><path fill="#000000" d="m204.99 326.58746l0 -40.171875l7.28125 0l9.890625 25.34375q0.34375 0.890625 0.78125 2.234375q0.453125 1.328125 0.953125 2.890625q0.5 1.5625 0.953125 3.109375q0.46875 1.546875 0.8125 2.875l-1.125 0q0.375 -1.25 0.828125 -2.765625q0.453125 -1.515625 0.953125 -3.09375q0.5 -1.578125 0.953125 -2.953125q0.46875 -1.375 0.8125 -2.296875l9.765625 -25.34375l7.3125 0l0 40.171875l-5.046875 0l0 -22.9375q0 -1.25 0.015625 -2.828125q0.015625 -1.59375 0.046875 -3.34375q0.046875 -1.765625 0.078125 -3.5625q0.046875 -1.8125 0.078125 -3.515625l0.421875 0q-0.5625 1.859375 -1.203125 3.796875q-0.625 1.921875 -1.234375 3.71875q-0.609375 1.796875 -1.15625 3.28125q-0.53125 1.46875 -0.90625 2.453125l-8.96875 22.9375l-4.453125 0l-9.109375 -22.9375q-0.375 -0.953125 -0.890625 -2.390625q-0.515625 -1.453125 -1.125 -3.21875q-0.609375 -1.765625 -1.265625 -3.71875q-0.640625 -1.953125 -1.3125 -3.921875l0.484375 0q0.0625 1.515625 0.09375 3.265625q0.046875 1.75 0.0625 3.546875q0.03125 1.796875 0.0625 3.453125q0.03125 1.65625 0.03125 2.984375l0 22.9375l-4.875 0zm57.723984 0.703125q-2.859375 0 -5.203125 -1.078125q-2.3281403 -1.078125 -3.7031403 -3.15625q-1.375 -2.078125 -1.375 -5.046875q0 -2.578125 1.015625 -4.1875q1.03125 -1.625 2.7500153 -2.5625q1.71875 -0.9375 3.78125 -1.390625q2.078125 -0.453125 4.1875 -0.71875q2.6875 -0.359375 4.390625 -0.546875q1.703125 -0.1875 2.515625 -0.640625q0.828125 -0.46875 0.828125 -1.5625l0 -0.171875q0 -1.890625 -0.703125 -3.1875q-0.703125 -1.3125 -2.109375 -2.015625q-1.390625 -0.703125 -3.5 -0.703125q-2.15625 0 -3.6875 0.6875q-1.53125 0.671875 -2.5 1.6875q-0.953125 1.0 -1.4375 2.046875l-4.6562653 -1.53125q1.15625 -2.75 3.1250153 -4.296875q1.96875 -1.5625 4.328125 -2.203125q2.375 -0.640625 4.703125 -0.640625q1.5 0 3.421875 0.359375q1.9375 0.359375 3.734375 1.4375q1.796875 1.078125 2.96875 3.203125q1.171875 2.109375 1.171875 5.640625l0 19.875l-4.78125 0l0 -4.09375l-0.3125 0q-0.515625 1.046875 -1.65625 2.171875q-1.125 1.109375 -2.9375 1.875q-1.796875 0.75 -4.359375 0.75zm0.828125 -4.296875q2.703125 0 4.5625 -1.046875q1.859375 -1.046875 2.828125 -2.734375q0.96875 -1.6875 0.96875 -3.515625l0 -4.1875q-0.296875 0.359375 -1.296875 0.640625q-0.984375 0.28125 -2.265625 0.5q-1.28125 0.21875 -2.484375 0.375q-1.203125 0.140625 -1.90625 0.21875q-1.75 0.21875 -3.28125 0.75q-1.515625 0.515625 -2.4375 1.53125q-0.90625 1.0 -0.90625 2.734375q0 1.5625 0.796875 2.609375q0.8125 1.046875 2.21875 1.59375q1.40625 0.53125 3.203125 0.53125zm31.975372 4.234375q-3.09375 0 -5.515625 -0.890625q-2.40625 -0.90625 -3.96875 -2.6875q-1.5625 -1.78125 -2.109375 -4.375l4.609375 -1.09375q0.65625 2.46875 2.4375 3.640625q1.796875 1.15625 4.5 1.15625q3.15625 0 5.03125 -1.34375q1.875 -1.359375 1.875 -3.21875q0 -1.5625 -1.09375 -2.59375q-1.09375 -1.046875 -3.328125 -1.5625l-5.015625 -1.1875q-4.109375 -0.96875 -6.109375 -3.0q-1.984375 -2.03125 -1.984375 -5.21875q0 -2.578125 1.453125 -4.5625q1.453125 -1.984375 3.96875 -3.09375q2.53125 -1.125 5.734375 -1.125q3.109375 0 5.28125 0.9375q2.171875 0.921875 3.53125 2.546875q1.3593445 1.625 2.0312195 3.765625l-4.3905945 1.125q-0.625 -1.609375 -2.0625 -2.921875q-1.4375 -1.328125 -4.359375 -1.328125q-2.6875 0 -4.484375 1.234375q-1.796875 1.234375 -1.796875 3.125q0 1.671875 1.203125 2.6875q1.21875 1.015625 3.875 1.625l4.546875 1.078125q4.09375 0.96875 6.0624695 3.015625q1.96875 2.03125 1.96875 5.125q0 2.65625 -1.5 4.71875q-1.4843445 2.0625 -4.1718445 3.25q-2.6875 1.171875 -6.21875 1.171875zm30.77121 -30.78125l0 4.15625l-15.578125 0l0 -4.15625l15.578125 0zm-11.0625 -7.171875l4.859375 0l0 29.5q0 2.015625 0.8125 2.953125q0.828125 0.921875 2.75 0.921875q0.453125 0 1.171875 -0.109375q0.71875 -0.109375 1.3125 -0.21875l0.984375 4.109375q-0.75 0.265625 -1.703125 0.390625q-0.953125 0.140625 -1.90625 0.140625q-3.90625 0 -6.09375 -2.0625q-2.1875 -2.0625 -2.1875 -5.75l0 -29.875zm29.40033 37.953125q-4.375 0 -7.546875 -1.9375q-3.15625 -1.9375 -4.875 -5.40625q-1.71875 -3.484375 -1.71875 -8.125q0 -4.640625 1.671875 -8.171875q1.671875 -3.53125 4.734375 -5.515625q3.0625 -2.0 7.15625 -2.0q2.40625 0 4.734375 0.796875q2.34375 0.78125 4.234375 2.546875q1.90625 1.765625 3.03125 4.65625q1.140625 2.890625 1.140625 7.0625l0 2.03125l-23.40625 0l0 -4.109375l20.78125 0l-2.265625 1.515625q0 -2.96875 -0.9375 -5.265625q-0.921875 -2.3125 -2.75 -3.609375q-1.828125 -1.3125 -4.5625 -1.3125q-2.71875 0 -4.65625 1.34375q-1.9375 1.328125 -2.96875 3.46875q-1.015625 2.140625 -1.015625 4.59375l0 2.71875q0 3.34375 1.15625 5.6875q1.15625 2.328125 3.234375 3.53125q2.09375 1.1875 4.84375 1.1875q1.78125 0 3.234375 -0.5q1.46875 -0.515625 2.515625 -1.546875q1.046875 -1.046875 1.609375 -2.578125l4.703125 1.28125q-0.703125 2.265625 -2.375 4.0q-1.671875 1.71875 -4.140625 2.6875q-2.46875 0.96875 -5.5625 0.96875zm19.521118 -0.640625l0 -30.140625l4.6875 0l0 4.640625l0.328125 0q0.828125 -2.296875 2.96875 -3.6875q2.140625 -1.390625 4.84375 -1.390625q0.546875 0 1.28125 0.03125q0.734375 0.03125 1.171875 0.046875l0 4.890625q-0.21875 -0.0625 -1.078125 -0.171875q-0.859375 -0.109375 -1.828125 -0.109375q-2.15625 0 -3.875 0.90625q-1.71875 0.90625 -2.6875 2.484375q-0.96875 1.578125 -0.96875 3.625l0 18.875l-4.84375 0zm21.166565 10.921875l1.234375 -4.203125l0.515625 0.125q1.484375 0.375 2.6875 0.203125q1.21875 -0.171875 2.1875 -1.203125q0.96875 -1.015625 1.703125 -3.171875l0.859375 -2.515625l-11.515625 -30.296875l5.3125 0l6.421875 17.875q1.015625 2.796875 1.71875 5.546875q0.703125 2.75 1.484375 5.34375l-1.78125 0q0.78125 -2.59375 1.5 -5.34375q0.71875 -2.765625 1.71875 -5.546875l6.46875 -17.875l5.28125 0l-13.234375 34.640625q-0.921875 2.40625 -2.203125 3.953125q-1.28125 1.546875 -2.984375 2.28125q-1.6875 0.75 -3.828125 0.75q-1.28125 0 -2.234375 -0.1875q-0.9375 -0.1875 -1.3125 -0.375z" fill-rule="nonzero"/><path fill="#000000" fill-opacity="0.0" d="m49.330322 382.02365l402.23624 0l0 147.2756l-402.23624 0z" fill-rule="evenodd"/><path fill="#000000" d="m172.50093 474.04755l0 -40.171875l13.75 0q4.6875 0 7.71875 1.71875q3.03125 1.703125 4.5 4.59375q1.46875 2.875 1.46875 6.46875q0 3.578125 -1.46875 6.5q-1.46875 2.90625 -4.484375 4.640625q-3.015625 1.71875 -7.71875 1.71875l-9.734375 0l0 -4.5l9.5 0q3.171875 0 5.109375 -1.09375q1.953125 -1.09375 2.828125 -2.984375q0.875 -1.90625 0.875 -4.28125q0 -2.375 -0.875 -4.25q-0.875 -1.875 -2.828125 -2.953125q-1.953125 -1.078125 -5.171875 -1.078125l-8.359375 0l0 35.671875l-5.109375 0zm34.672913 0l0 -30.140625l4.6875 0l0 4.640625l0.328125 0q0.828125 -2.296875 2.96875 -3.6875q2.140625 -1.390625 4.84375 -1.390625q0.546875 0 1.28125 0.03125q0.734375 0.03125 1.171875 0.046875l0 4.890625q-0.21875 -0.0625 -1.078125 -0.171875q-0.859375 -0.109375 -1.828125 -0.109375q-2.15625 0 -3.875 0.90625q-1.71875 0.90625 -2.6875 2.484375q-0.96875 1.578125 -0.96875 3.625l0 18.875l-4.84375 0zm32.13658 0.640625q-4.109375 0 -7.203125 -1.9375q-3.078125 -1.9375 -4.8125 -5.4375q-1.71875 -3.515625 -1.71875 -8.15625q0 -4.71875 1.71875 -8.234375q1.734375 -3.515625 4.8125 -5.453125q3.09375 -1.9375 7.203125 -1.9375q4.125 0 7.21875 1.9375q3.109375 1.9375 4.828125 5.453125q1.734375 3.515625 1.734375 8.234375q0 4.640625 -1.734375 8.15625q-1.71875 3.5 -4.828125 5.4375q-3.09375 1.9375 -7.21875 1.9375zm0 -4.328125q3.046875 0 5.015625 -1.5625q1.96875 -1.578125 2.90625 -4.125q0.953125 -2.546875 0.953125 -5.515625q0 -2.984375 -0.953125 -5.5625q-0.9375 -2.578125 -2.90625 -4.15625q-1.96875 -1.578125 -5.015625 -1.578125q-3.015625 0 -4.96875 1.578125q-1.9375 1.578125 -2.890625 4.140625q-0.9375 2.5625 -0.9375 5.578125q0 2.96875 0.9375 5.515625q0.953125 2.546875 2.890625 4.125q1.953125 1.5625 4.96875 1.5625zm29.820953 4.390625q-2.859375 0 -5.203125 -1.078125q-2.328125 -1.078125 -3.703125 -3.15625q-1.375 -2.078125 -1.375 -5.046875q0 -2.578125 1.015625 -4.1875q1.03125 -1.625 2.75 -2.5625q1.71875 -0.9375 3.78125 -1.390625q2.078125 -0.453125 4.1875 -0.71875q2.6875 -0.359375 4.390625 -0.546875q1.703125 -0.1875 2.515625 -0.640625q0.828125 -0.46875 0.828125 -1.5625l0 -0.171875q0 -1.890625 -0.703125 -3.1875q-0.703125 -1.3125 -2.109375 -2.015625q-1.390625 -0.703125 -3.5 -0.703125q-2.15625 0 -3.6875 0.6875q-1.53125 0.671875 -2.5 1.6875q-0.953125 1.0 -1.4375 2.046875l-4.65625 -1.53125q1.15625 -2.75 3.125 -4.296875q1.96875 -1.5625 4.328125 -2.203125q2.375 -0.640625 4.703125 -0.640625q1.5 0 3.421875 0.359375q1.9375 0.359375 3.734375 1.4375q1.796875 1.078125 2.96875 3.203125q1.171875 2.109375 1.171875 5.640625l0 19.875l-4.78125 0l0 -4.09375l-0.3125 0q-0.515625 1.046875 -1.65625 2.171875q-1.125 1.109375 -2.9375 1.875q-1.796875 0.75 -4.359375 0.75zm0.828125 -4.296875q2.703125 0 4.5625 -1.046875q1.859375 -1.046875 2.828125 -2.734375q0.96875 -1.6875 0.96875 -3.515625l0 -4.1875q-0.296875 0.359375 -1.296875 0.640625q-0.984375 0.28125 -2.265625 0.5q-1.28125 0.21875 -2.484375 0.375q-1.203125 0.140625 -1.90625 0.21875q-1.75 0.21875 -3.28125 0.75q-1.515625 0.515625 -2.4375 1.53125q-0.90625 1.0 -0.90625 2.734375q0 1.5625 0.796875 2.609375q0.8125 1.046875 2.21875 1.59375q1.40625 0.53125 3.203125 0.53125zm34.006622 4.234375q-4.109375 0 -7.203125 -1.9375q-3.078125 -1.9375 -4.8125 -5.4375q-1.71875 -3.515625 -1.71875 -8.15625q0 -4.71875 1.71875 -8.234375q1.734375 -3.515625 4.8125 -5.453125q3.09375 -1.9375 7.203125 -1.9375q2.1875 0 4.125 0.5625q1.9375 0.5625 3.53125 1.625q1.609375 1.0625 2.765625 2.625q1.171875 1.546875 1.78125 3.515625l-4.65625 1.3125q-0.328125 -1.15625 -1.0 -2.125q-0.671875 -0.96875 -1.640625 -1.6875q-0.953125 -0.71875 -2.1875 -1.109375q-1.234375 -0.390625 -2.71875 -0.390625q-3.015625 0 -4.96875 1.578125q-1.9375 1.578125 -2.890625 4.140625q-0.9375 2.5625 -0.9375 5.578125q0 2.96875 0.9375 5.515625q0.953125 2.546875 2.890625 4.125q1.953125 1.5625 4.96875 1.5625q1.5 0 2.765625 -0.40625q1.28125 -0.40625 2.265625 -1.140625q0.984375 -0.75 1.65625 -1.765625q0.671875 -1.03125 1.0 -2.25l4.625 1.328125q-0.59375 2.015625 -1.765625 3.59375q-1.171875 1.578125 -2.796875 2.703125q-1.609375 1.109375 -3.578125 1.6875q-1.96875 0.578125 -4.171875 0.578125zm31.139587 -30.78125l0 4.15625l-15.578125 0l0 -4.15625l15.578125 0zm-11.0625 -7.171875l4.859375 0l0 29.5q0 2.015625 0.8125 2.953125q0.828125 0.921875 2.75 0.921875q0.453125 0 1.171875 -0.109375q0.71875 -0.109375 1.3125 -0.21875l0.984375 4.109375q-0.75 0.265625 -1.703125 0.390625q-0.953125 0.140625 -1.90625 0.140625q-3.90625 0 -6.09375 -2.0625q-2.1875 -2.0625 -2.1875 -5.75l0 -29.875zm17.267883 37.3125l0 -30.140625l4.84375 0l0 30.140625l-4.84375 0zm2.4375 -35.078125q-1.375 0 -2.375 -0.9375q-0.984375 -0.953125 -0.984375 -2.265625q0 -1.359375 0.984375 -2.28125q1.0 -0.9375 2.375 -0.9375q1.40625 0 2.40625 0.9375q1.0 0.921875 1.0 2.28125q0 1.3125 -1.0 2.265625q-1.0 0.9375 -2.40625 0.9375zm19.638916 35.078125l-11.515625 -30.140625l5.3125 0l6.421875 17.875q1.015625 2.78125 1.734375 5.546875q0.71875 2.75 1.5 5.34375l-1.78125 0q0.78125 -2.59375 1.484375 -5.34375q0.71875 -2.765625 1.71875 -5.546875l6.421875 -17.875l5.3125 0l-11.515625 30.140625l-5.09375 0zm33.923553 0.640625q-4.375 0 -7.546875 -1.9375q-3.15625 -1.9375 -4.875 -5.40625q-1.71875 -3.484375 -1.71875 -8.125q0 -4.640625 1.671875 -8.171875q1.671875 -3.53125 4.734375 -5.515625q3.0625 -2.0 7.15625 -2.0q2.40625 0 4.734375 0.796875q2.34375 0.78125 4.234375 2.546875q1.90625 1.765625 3.03125 4.65625q1.140625 2.890625 1.140625 7.0625l0 2.03125l-23.40625 0l0 -4.109375l20.78125 0l-2.265625 1.515625q0 -2.96875 -0.9375 -5.265625q-0.921875 -2.3125 -2.75 -3.609375q-1.828125 -1.3125 -4.5625 -1.3125q-2.71875 0 -4.65625 1.34375q-1.9375 1.328125 -2.96875 3.46875q-1.015625 2.140625 -1.015625 4.59375l0 2.71875q0 3.34375 1.15625 5.6875q1.15625 2.328125 3.234375 3.53125q2.09375 1.1875 4.84375 1.1875q1.78125 0 3.234375 -0.5q1.46875 -0.515625 2.515625 -1.546875q1.046875 -1.046875 1.609375 -2.578125l4.703125 1.28125q-0.703125 2.265625 -2.375 4.0q-1.671875 1.71875 -4.140625 2.6875q-2.46875 0.96875 -5.5625 0.96875z" fill-rule="nonzero"/><path fill="#000000" fill-opacity="0.0" d="m49.330322 535.30597l402.23624 0l0 147.27557l-402.23624 0z" fill-rule="evenodd"/><path fill="#000000" d="m193.82806 627.32983l0 -40.171875l13.75 0q4.6875 0 7.71875 1.609375q3.03125 1.59375 4.5 4.40625q1.46875 2.796875 1.46875 6.390625q0 3.578125 -1.46875 6.328125q-1.46875 2.75 -4.484375 4.3125q-3.015625 1.546875 -7.71875 1.546875l-10.90625 0l0 -4.5625l10.671875 0q3.171875 0 5.09375 -0.921875q1.9375 -0.9375 2.828125 -2.640625q0.890625 -1.71875 0.890625 -4.0625q0 -2.40625 -0.890625 -4.171875q-0.890625 -1.765625 -2.828125 -2.75q-1.9375 -0.984375 -5.15625 -0.984375l-8.359375 0l0 35.671875l-5.109375 0zm23.078125 0l-9.71875 -18.09375l5.78125 0l9.859375 18.09375l-5.921875 0zm23.727203 0.640625q-4.375 0 -7.546875 -1.9375q-3.15625 -1.9375 -4.875 -5.40625q-1.71875 -3.484375 -1.71875 -8.125q0 -4.640625 1.671875 -8.171875q1.671875 -3.53125 4.734375 -5.515625q3.0625 -2.0 7.15625 -2.0q2.40625 0 4.734375 0.796875q2.34375 0.78125 4.234375 2.546875q1.90625 1.765625 3.03125 4.65625q1.140625 2.890625 1.140625 7.0625l0 2.03125l-23.40625 0l0 -4.109375l20.78125 0l-2.265625 1.515625q0 -2.96875 -0.9375 -5.265625q-0.921875 -2.3125 -2.75 -3.609375q-1.828125 -1.3125 -4.5625 -1.3125q-2.71875 0 -4.65625 1.34375q-1.9375 1.328125 -2.96875 3.46875q-1.015625 2.140625 -1.015625 4.59375l0 2.71875q0 3.34375 1.15625 5.6875q1.15625 2.328125 3.234375 3.53125q2.09375 1.1875 4.84375 1.1875q1.78125 0 3.234375 -0.5q1.46875 -0.515625 2.515625 -1.546875q1.046875 -1.046875 1.609375 -2.578125l4.703125 1.28125q-0.703125 2.265625 -2.375 4.0q-1.671875 1.71875 -4.140625 2.6875q-2.46875 0.96875 -5.5625 0.96875zm28.497986 0.0625q-2.859375 0 -5.203125 -1.078125q-2.328125 -1.078125 -3.703125 -3.15625q-1.375 -2.078125 -1.375 -5.046875q0 -2.578125 1.015625 -4.1875q1.03125 -1.625 2.75 -2.5625q1.71875 -0.9375 3.78125 -1.390625q2.078125 -0.453125 4.1875 -0.71875q2.6875 -0.359375 4.390625 -0.546875q1.703125 -0.1875 2.515625 -0.640625q0.828125 -0.46875 0.828125 -1.5625l0 -0.171875q0 -1.890625 -0.703125 -3.1875q-0.703125 -1.3125 -2.109375 -2.015625q-1.390625 -0.703125 -3.5 -0.703125q-2.15625 0 -3.6875 0.6875q-1.53125 0.671875 -2.5 1.6875q-0.953125 1.0 -1.4375 2.046875l-4.65625 -1.53125q1.15625 -2.75 3.125 -4.296875q1.96875 -1.5625 4.328125 -2.203125q2.375 -0.640625 4.703125 -0.640625q1.5 0 3.421875 0.359375q1.9375 0.359375 3.734375 1.4375q1.796875 1.078125 2.96875 3.203125q1.171875 2.109375 1.171875 5.640625l0 19.875l-4.78125 0l0 -4.09375l-0.3125 0q-0.515625 1.046875 -1.65625 2.171875q-1.125 1.109375 -2.9375 1.875q-1.796875 0.75 -4.359375 0.75zm0.828125 -4.296875q2.703125 0 4.5625 -1.046875q1.859375 -1.046875 2.828125 -2.734375q0.96875 -1.6875 0.96875 -3.515625l0 -4.1875q-0.296875 0.359375 -1.296875 0.640625q-0.984375 0.28125 -2.265625 0.5q-1.28125 0.21875 -2.484375 0.375q-1.203125 0.140625 -1.90625 0.21875q-1.75 0.21875 -3.28125 0.75q-1.515625 0.515625 -2.4375 1.53125q-0.90625 1.0 -0.90625 2.734375q0 1.5625 0.796875 2.609375q0.8125 1.046875 2.21875 1.59375q1.40625 0.53125 3.203125 0.53125zm34.006622 4.234375q-4.109375 0 -7.203125 -1.9375q-3.078125 -1.9375 -4.8125 -5.4375q-1.71875 -3.515625 -1.71875 -8.15625q0 -4.71875 1.71875 -8.234375q1.734375 -3.515625 4.8125 -5.453125q3.09375 -1.9375 7.203125 -1.9375q2.1875 0 4.125 0.5625q1.9375 0.5625 3.53125 1.625q1.609375 1.0625 2.765625 2.625q1.171875 1.546875 1.78125 3.515625l-4.65625 1.3125q-0.328125 -1.15625 -1.0 -2.125q-0.671875 -0.96875 -1.640625 -1.6875q-0.953125 -0.71875 -2.1875 -1.109375q-1.234375 -0.390625 -2.71875 -0.390625q-3.015625 0 -4.96875 1.578125q-1.9375 1.578125 -2.890625 4.140625q-0.9375 2.5625 -0.9375 5.578125q0 2.96875 0.9375 5.515625q0.953125 2.546875 2.890625 4.125q1.953125 1.5625 4.96875 1.5625q1.5 0 2.765625 -0.40625q1.28125 -0.40625 2.265625 -1.140625q0.984375 -0.75 1.65625 -1.765625q0.671875 -1.03125 1.0 -2.25l4.625 1.328125q-0.59375 2.015625 -1.765625 3.59375q-1.171875 1.578125 -2.796875 2.703125q-1.609375 1.109375 -3.578125 1.6875q-1.96875 0.578125 -4.171875 0.578125zm31.139587 -30.78125l0 4.15625l-15.578125 0l0 -4.15625l15.578125 0zm-11.0625 -7.171875l4.859375 0l0 29.5q0 2.015625 0.8125 2.953125q0.828125 0.921875 2.75 0.921875q0.453125 0 1.171875 -0.109375q0.71875 -0.109375 1.3125 -0.21875l0.984375 4.109375q-0.75 0.265625 -1.703125 0.390625q-0.953125 0.140625 -1.90625 0.140625q-3.90625 0 -6.09375 -2.0625q-2.1875 -2.0625 -2.1875 -5.75l0 -29.875zm17.267883 37.3125l0 -30.140625l4.84375 0l0 30.140625l-4.84375 0zm2.4375 -35.078125q-1.375 0 -2.375 -0.9375q-0.984375 -0.953125 -0.984375 -2.265625q0 -1.359375 0.984375 -2.28125q1.0 -0.9375 2.375 -0.9375q1.40625 0 2.40625 0.9375q1.0 0.921875 1.0 2.28125q0 1.3125 -1.0 2.265625q-1.0 0.9375 -2.40625 0.9375zm19.638916 35.078125l-11.515625 -30.140625l5.3125 0l6.421875 17.875q1.015625 2.78125 1.734375 5.546875q0.71875 2.75 1.5 5.34375l-1.78125 0q0.78125 -2.59375 1.484375 -5.34375q0.71875 -2.765625 1.71875 -5.546875l6.421875 -17.875l5.3125 0l-11.515625 30.140625l-5.09375 0zm33.923553 0.640625q-4.375 0 -7.546875 -1.9375q-3.15625 -1.9375 -4.875 -5.40625q-1.71875 -3.484375 -1.71875 -8.125q0 -4.640625 1.671875 -8.171875q1.671875 -3.53125 4.734375 -5.515625q3.0625 -2.0 7.15625 -2.0q2.40625 0 4.734375 0.796875q2.34375 0.78125 4.234375 2.546875q1.90625 1.765625 3.03125 4.65625q1.140625 2.890625 1.140625 7.0625l0 2.03125l-23.40625 0l0 -4.109375l20.78125 0l-2.265625 1.515625q0 -2.96875 -0.9375 -5.265625q-0.921875 -2.3125 -2.75 -3.609375q-1.828125 -1.3125 -4.5625 -1.3125q-2.71875 0 -4.65625 1.34375q-1.9375 1.328125 -2.96875 3.46875q-1.015625 2.140625 -1.015625 4.59375l0 2.71875q0 3.34375 1.15625 5.6875q1.15625 2.328125 3.234375 3.53125q2.09375 1.1875 4.84375 1.1875q1.78125 0 3.234375 -0.5q1.46875 -0.515625 2.515625 -1.546875q1.046875 -1.046875 1.609375 -2.578125l4.703125 1.28125q-0.703125 2.265625 -2.375 4.0q-1.671875 1.71875 -4.140625 2.6875q-2.46875 0.96875 -5.5625 0.96875z" fill-rule="nonzero"/><path fill="#000000" fill-opacity="0.0" d="m-60.00525 711.7945l511.59055 0l0 147.27557l-511.59055 0z" fill-rule="evenodd"/><path fill="#000000" d="m126.65704 803.81836l0 -40.171875l24.28125 0l0 4.53125l-19.171875 0l0 13.75l17.34375 0l0 4.53125l-17.34375 0l0 17.359375l-5.109375 0zm42.084763 0.640625q-4.109375 0 -7.203125 -1.9375q-3.078125 -1.9375 -4.8125 -5.4375q-1.71875 -3.515625 -1.71875 -8.15625q0 -4.71875 1.71875 -8.234375q1.734375 -3.515625 4.8125 -5.453125q3.09375 -1.9375 7.203125 -1.9375q4.125 0 7.21875 1.9375q3.109375 1.9375 4.828125 5.453125q1.734375 3.515625 1.734375 8.234375q0 4.640625 -1.734375 8.15625q-1.71875 3.5 -4.828125 5.4375q-3.09375 1.9375 -7.21875 1.9375zm0 -4.328125q3.046875 0 5.015625 -1.5625q1.96875 -1.578125 2.90625 -4.125q0.953125 -2.546875 0.953125 -5.515625q0 -2.984375 -0.953125 -5.5625q-0.9375 -2.578125 -2.90625 -4.15625q-1.96875 -1.578125 -5.015625 -1.578125q-3.015625 0 -4.96875 1.578125q-1.9375 1.578125 -2.890625 4.140625q-0.9375 2.5625 -0.9375 5.578125q0 2.96875 0.9375 5.515625q0.953125 2.546875 2.890625 4.125q1.953125 1.5625 4.96875 1.5625zm31.06282 4.0625q-3.046875 0 -5.3593903 -1.25q-2.296875 -1.25 -3.578125 -3.78125q-1.28125 -2.546875 -1.28125 -6.34375l0 -19.140625l4.84375 0l0 18.734375q0 3.484375 1.8281403 5.453125q1.84375 1.96875 5.0 1.96875q2.15625 0 3.859375 -0.9375q1.71875 -0.953125 2.71875 -2.765625q1.0 -1.828125 1.0 -4.390625l0 -18.0625l4.875 0l0 30.140625l-4.6875 0l0 -7.3125l0.640625 0q-1.40625 4.234375 -3.984375 5.96875q-2.5625 1.71875 -5.875 1.71875zm27.276306 -18.4375l0 18.0625l-4.84375 0l0 -30.140625l4.65625 0l0.03125 7.296875l-0.671875 0q1.375 -4.171875 3.921875 -5.921875q2.546875 -1.75 5.96875 -1.75q3.046875 0 5.328125 1.25q2.296875 1.25 3.578125 3.78125q1.28125 2.515625 1.28125 6.34375l0 19.140625l-4.84375 0l0 -18.734375q0 -3.484375 -1.828125 -5.453125q-1.8125 -1.96875 -4.96875 -1.96875q-2.15625 0 -3.890625 0.953125q-1.71875 0.9375 -2.71875 2.75q-1.0 1.796875 -1.0 4.390625zm39.077484 18.703125q-3.75 0 -6.640625 -1.90625q-2.875 -1.921875 -4.5 -5.421875q-1.625 -3.5 -1.625 -8.296875q0 -4.78125 1.625 -8.265625q1.640625 -3.5 4.53125 -5.375q2.890625 -1.890625 6.625 -1.890625q2.9375 0 4.65625 0.96875q1.734375 0.96875 2.65625 2.203125q0.9375 1.21875 1.421875 2.03125l0.390625 0l0 -14.859375l4.84375 0l0 40.171875l-4.6875 0l0 -4.671875l-0.546875 0q-0.484375 0.84375 -1.4375 2.09375q-0.953125 1.25 -2.703125 2.234375q-1.734375 0.984375 -4.609375 0.984375zm0.71875 -4.328125q2.75 0 4.640625 -1.4375q1.890625 -1.453125 2.859375 -4.015625q0.96875 -2.5625 0.96875 -5.90625q0 -3.34375 -0.953125 -5.828125q-0.953125 -2.5 -2.84375 -3.90625q-1.890625 -1.40625 -4.671875 -1.40625q-2.859375 0 -4.765625 1.484375q-1.890625 1.484375 -2.84375 4.015625q-0.9375 2.515625 -0.9375 5.640625q0 3.15625 0.953125 5.734375q0.96875 2.578125 2.875 4.109375q1.921875 1.515625 4.71875 1.515625zm30.232574 4.390625q-2.859375 0 -5.203125 -1.078125q-2.328125 -1.078125 -3.703125 -3.15625q-1.375 -2.078125 -1.375 -5.046875q0 -2.578125 1.015625 -4.1875q1.03125 -1.625 2.75 -2.5625q1.71875 -0.9375 3.78125 -1.390625q2.078125 -0.453125 4.1875 -0.71875q2.6875 -0.359375 4.390625 -0.546875q1.703125 -0.1875 2.515625 -0.640625q0.828125 -0.46875 0.828125 -1.5625l0 -0.171875q0 -1.890625 -0.703125 -3.1875q-0.703125 -1.3125 -2.109375 -2.015625q-1.390625 -0.703125 -3.5 -0.703125q-2.15625 0 -3.6875 0.6875q-1.53125 0.671875 -2.5 1.6875q-0.953125 1.0 -1.4375 2.046875l-4.65625 -1.53125q1.15625 -2.75 3.125 -4.296875q1.96875 -1.5625 4.328125 -2.203125q2.375 -0.640625 4.703125 -0.640625q1.5 0 3.421875 0.359375q1.9375 0.359375 3.734375 1.4375q1.796875 1.078125 2.96875 3.203125q1.171875 2.109375 1.171875 5.640625l0 19.875l-4.78125 0l0 -4.09375l-0.3125 0q-0.515625 1.046875 -1.65625 2.171875q-1.125 1.109375 -2.9375 1.875q-1.796875 0.75 -4.359375 0.75zm0.828125 -4.296875q2.703125 0 4.5625 -1.046875q1.859375 -1.046875 2.828125 -2.734375q0.96875 -1.6875 0.96875 -3.515625l0 -4.1875q-0.296875 0.359375 -1.296875 0.640625q-0.984375 0.28125 -2.265625 0.5q-1.28125 0.21875 -2.484375 0.375q-1.203125 0.140625 -1.90625 0.21875q-1.75 0.21875 -3.28125 0.75q-1.515625 0.515625 -2.4375 1.53125q-0.90625 1.0 -0.90625 2.734375q0 1.5625 0.796875 2.609375q0.8125 1.046875 2.21875 1.59375q1.40625 0.53125 3.203125 0.53125zm33.600372 -26.546875l0 4.15625l-15.578125 0l0 -4.15625l15.578125 0zm-11.0625 -7.171875l4.859375 0l0 29.5q0 2.015625 0.8125 2.953125q0.828125 0.921875 2.75 0.921875q0.453125 0 1.171875 -0.109375q0.71875 -0.109375 1.3125 -0.21875l0.984375 4.109375q-0.75 0.265625 -1.703125 0.390625q-0.953125 0.140625 -1.90625 0.140625q-3.90625 0 -6.09375 -2.0625q-2.1875 -2.0625 -2.1875 -5.75l0 -29.875zm17.267853 37.3125l0 -30.140625l4.84375 0l0 30.140625l-4.84375 0zm2.4375 -35.078125q-1.375 0 -2.375 -0.9375q-0.984375 -0.953125 -0.984375 -2.265625q0 -1.359375 0.984375 -2.28125q1.0 -0.9375 2.375 -0.9375q1.40625 0 2.40625 0.9375q1.0 0.921875 1.0 2.28125q0 1.3125 -1.0 2.265625q-1.0 0.9375 -2.40625 0.9375zm23.201416 35.71875q-4.109375 0 -7.203125 -1.9375q-3.078125 -1.9375 -4.8125 -5.4375q-1.71875 -3.515625 -1.71875 -8.15625q0 -4.71875 1.71875 -8.234375q1.734375 -3.515625 4.8125 -5.453125q3.09375 -1.9375 7.203125 -1.9375q4.125 0 7.21875 1.9375q3.109375 1.9375 4.828125 5.453125q1.734375 3.515625 1.734375 8.234375q0 4.640625 -1.734375 8.15625q-1.71875 3.5 -4.828125 5.4375q-3.09375 1.9375 -7.21875 1.9375zm0 -4.328125q3.046875 0 5.015625 -1.5625q1.96875 -1.578125 2.90625 -4.125q0.953125 -2.546875 0.953125 -5.515625q0 -2.984375 -0.953125 -5.5625q-0.9375 -2.578125 -2.90625 -4.15625q-1.96875 -1.578125 -5.015625 -1.578125q-3.015625 0 -4.96875 1.578125q-1.9375 1.578125 -2.890625 4.140625q-0.9375 2.5625 -0.9375 5.578125q0 2.96875 0.9375 5.515625q0.953125 2.546875 2.890625 4.125q1.953125 1.5625 4.96875 1.5625zm25.687805 -14.375l0 18.0625l-4.84375 0l0 -30.140625l4.65625 0l0.03125 7.296875l-0.671875 0q1.375 -4.171875 3.921875 -5.921875q2.546875 -1.75 5.96875 -1.75q3.046875 0 5.328125 1.25q2.296875 1.25 3.578125 3.78125q1.28125 2.515625 1.28125 6.34375l0 19.140625l-4.84375 0l0 -18.734375q0 -3.484375 -1.828125 -5.453125q-1.8125 -1.96875 -4.96875 -1.96875q-2.15625 0 -3.890625 0.953125q-1.71875 0.9375 -2.71875 2.75q-1.0 1.796875 -1.0 4.390625z" fill-rule="nonzero"/><path fill="#1dcad3" d="m434.10324 295.53644l0 0c0 -39.63115 32.12741 -71.758545 71.758545 -71.758545l287.03415 0l0 0c19.031494 0 37.28357 7.560257 50.740906 21.017593c13.457336 13.457321 21.017578 31.709396 21.017578 50.74095l0 326.18372c0 39.631165 -32.12738 71.758545 -71.758484 71.758545l-287.03415 0c-39.631134 0 -71.758545 -32.12738 -71.758545 -71.758545z" fill-rule="evenodd"/><path stroke="#eff0f0" stroke-width="4.141732283464567" stroke-linejoin="round" stroke-linecap="butt" d="m434.10324 295.53644l0 0c0 -39.63115 32.12741 -71.758545 71.758545 -71.758545l287.03415 0l0 0c19.031494 0 37.28357 7.560257 50.740906 21.017593c13.457336 13.457321 21.017578 31.709396 21.017578 50.74095l0 326.18372c0 39.631165 -32.12738 71.758545 -71.758484 71.758545l-287.03415 0c-39.631134 0 -71.758545 -32.12738 -71.758545 -71.758545z" fill-rule="evenodd"/><path fill="#ff40b4" d="m898.0618 295.53644l0 0c0 -39.63115 32.12738 -71.758545 71.758545 -71.758545l287.03412 0l0 0c19.031494 0 37.28357 7.560257 50.740967 21.017593c13.457275 13.457321 21.017578 31.709396 21.017578 50.74095l0 326.18372c0 39.631165 -32.12744 71.758545 -71.758545 71.758545l-287.03412 0c-39.631165 0 -71.758545 -32.12738 -71.758545 -71.758545z" fill-rule="evenodd"/><path stroke="#eff0f0" stroke-width="4.141732283464567" stroke-linejoin="round" stroke-linecap="butt" d="m898.0618 295.53644l0 0c0 -39.63115 32.12738 -71.758545 71.758545 -71.758545l287.03412 0l0 0c19.031494 0 37.28357 7.560257 50.740967 21.017593c13.457275 13.457321 21.017578 31.709396 21.017578 50.74095l0 326.18372c0 39.631165 -32.12744 71.758545 -71.758545 71.758545l-287.03412 0c-39.631165 0 -71.758545 -32.12738 -71.758545 -71.758545z" fill-rule="evenodd"/><path fill="#ff8300" d="m1362.0204 295.53644l0 0c0 -39.63115 32.12744 -71.758545 71.758545 -71.758545l287.03418 0l0 0c19.031494 0 37.28357 7.560257 50.740967 21.017593c13.457275 13.457321 21.017578 31.709396 21.017578 50.74095l0 326.18372c0 39.631165 -32.12744 71.758545 -71.758545 71.758545l-287.03418 0c-39.631104 0 -71.758545 -32.12738 -71.758545 -71.758545z" fill-rule="evenodd"/><path stroke="#eff0f0" stroke-width="4.141732283464567" stroke-linejoin="round" stroke-linecap="butt" d="m1362.0204 295.53644l0 0c0 -39.63115 32.12744 -71.758545 71.758545 -71.758545l287.03418 0l0 0c19.031494 0 37.28357 7.560257 50.740967 21.017593c13.457275 13.457321 21.017578 31.709396 21.017578 50.74095l0 326.18372c0 39.631165 -32.12744 71.758545 -71.758545 71.758545l-287.03418 0c-39.631104 0 -71.758545 -32.12738 -71.758545 -71.758545z" fill-rule="evenodd"/><path fill="#1ce783" d="m434.10324 737.037l0 0c0 -14.411621 11.682922 -26.094482 26.094513 -26.094482l1310.3307 0c6.9206543 0 13.557983 2.7492065 18.451538 7.6428833c4.8936768 4.8936768 7.6429443 11.530884 7.6429443 18.4516l0 104.37793c0 14.411621 -11.682861 26.094482 -26.094482 26.094482l-1310.3307 0c-14.411591 0 -26.094513 -11.682861 -26.094513 -26.094482z" fill-rule="evenodd"/><path stroke="#eff0f0" stroke-width="4.141732283464567" stroke-linejoin="round" stroke-linecap="butt" d="m434.10324 737.037l0 0c0 -14.411621 11.682922 -26.094482 26.094513 -26.094482l1310.3307 0c6.9206543 0 13.557983 2.7492065 18.451538 7.6428833c4.8936768 4.8936768 7.6429443 11.530884 7.6429443 18.4516l0 104.37793c0 14.411621 -11.682861 26.094482 -26.094482 26.094482l-1310.3307 0c-14.411591 0 -26.094513 -11.682861 -26.094513 -26.094482z" fill-rule="evenodd"/><path fill="#ff40b4" d="m923.4284 223.42998l378.36115 0c6.9207764 0 13.558228 2.7492828 18.451904 7.643051c4.893799 4.893753 7.6430664 11.531128 7.6430664 18.45195l0 130.47194c0 0.001953125 -0.0015869141 0.0035705566 -0.003540039 0.0035705566l-430.5476 -0.0035705566l0 0c-0.001953125 0 -0.0036010742 -0.0016174316 -0.0036010742 -0.0036010742l0.0036010742 -130.46834l0 0c0 -14.411865 11.683105 -26.095001 26.095032 -26.095001z" fill-rule="evenodd"/><path stroke="#eff0f0" stroke-width="4.141732283464567" stroke-linejoin="round" stroke-linecap="butt" d="m923.4284 223.42998l378.36115 0c6.9207764 0 13.558228 2.7492828 18.451904 7.643051c4.893799 4.893753 7.6430664 11.531128 7.6430664 18.45195l0 130.47194c0 0.001953125 -0.0015869141 0.0035705566 -0.003540039 0.0035705566l-430.5476 -0.0035705566l0 0c-0.001953125 0 -0.0036010742 -0.0016174316 -0.0036010742 -0.0036010742l0.0036010742 -130.46834l0 0c0 -14.411865 11.683105 -26.095001 26.095032 -26.095001z" fill-rule="evenodd"/><path fill="#1dcad3" d="m459.99167 223.42998l378.36118 0c6.9208374 0 13.5581665 2.7492828 18.451965 7.643051c4.893738 4.893753 7.6430664 11.531128 7.6430664 18.45195l0 130.47194c0 0.001953125 -0.0016479492 0.0035705566 -0.0036010742 0.0035705566l-430.5476 -0.0035705566l0 0c-0.0019836426 0 -0.0035705566 -0.0016174316 -0.0035705566 -0.0036010742l0.0035705566 -130.46834l0 0c0 -14.411865 11.683136 -26.095001 26.095001 -26.095001z" fill-rule="evenodd"/><path stroke="#eff0f0" stroke-width="4.141732283464567" stroke-linejoin="round" stroke-linecap="butt" d="m459.99167 223.42998l378.36118 0c6.9208374 0 13.5581665 2.7492828 18.451965 7.643051c4.893738 4.893753 7.6430664 11.531128 7.6430664 18.45195l0 130.47194c0 0.001953125 -0.0016479492 0.0035705566 -0.0036010742 0.0035705566l-430.5476 -0.0035705566l0 0c-0.0019836426 0 -0.0035705566 -0.0016174316 -0.0035705566 -0.0036010742l0.0035705566 -130.46834l0 0c0 -14.411865 11.683136 -26.095001 26.095001 -26.095001z" fill-rule="evenodd"/><path fill="#ff8300" d="m1387.8002 223.42998l378.36108 0c6.9208984 0 13.558228 2.7492828 18.452026 7.643051c4.8936768 4.893753 7.6430664 11.531128 7.6430664 18.45195l0 130.47194c0 0.001953125 -0.0015869141 0.0035705566 -0.0036621094 0.0035705566l-430.5476 -0.0035705566l0 0c-0.001953125 0 -0.003540039 -0.0016174316 -0.003540039 -0.0036010742l0.003540039 -130.46834l0 0c0 -14.411865 11.683228 -26.095001 26.095093 -26.095001z" fill-rule="evenodd"/><path stroke="#eff0f0" stroke-width="4.141732283464567" stroke-linejoin="round" stroke-linecap="butt" d="m1387.8002 223.42998l378.36108 0c6.9208984 0 13.558228 2.7492828 18.452026 7.643051c4.8936768 4.893753 7.6430664 11.531128 7.6430664 18.45195l0 130.47194c0 0.001953125 -0.0015869141 0.0035705566 -0.0036621094 0.0035705566l-430.5476 -0.0035705566l0 0c-0.001953125 0 -0.003540039 -0.0016174316 -0.003540039 -0.0036010742l0.003540039 -130.46834l0 0c0 -14.411865 11.683228 -26.095001 26.095093 -26.095001z" fill-rule="evenodd"/><path fill="#ff8300" d="m1766.4832 693.47705l-378.3612 0c-6.9207764 0 -13.558105 -2.7492676 -18.451904 -7.6430664c-4.893799 -4.893738 -7.6430664 -11.531128 -7.6430664 -18.451904l0 -130.47192c0 -0.0020141602 0.0015869141 -0.0036010742 0.0036621094 -0.0036010742l430.5475 0.0036010742l0 0c0.0020751953 0 0.0036621094 0.0015869141 0.0036621094 0.003540039l-0.0036621094 130.46838l0 0c0 14.411865 -11.683105 26.09497 -26.09497 26.09497z" fill-rule="evenodd"/><path stroke="#eff0f0" stroke-width="4.141732283464567" stroke-linejoin="round" stroke-linecap="butt" d="m1766.4832 693.47705l-378.3612 0c-6.9207764 0 -13.558105 -2.7492676 -18.451904 -7.6430664c-4.893799 -4.893738 -7.6430664 -11.531128 -7.6430664 -18.451904l0 -130.47192c0 -0.0020141602 0.0015869141 -0.0036010742 0.0036621094 -0.0036010742l430.5475 0.0036010742l0 0c0.0020751953 0 0.0036621094 0.0015869141 0.0036621094 0.003540039l-0.0036621094 130.46838l0 0c0 14.411865 -11.683105 26.09497 -26.09497 26.09497z" fill-rule="evenodd"/><path fill="#ff40b4" d="m1302.5245 693.47705l-378.36115 0c-6.9207764 0 -13.5581665 -2.7492676 -18.451904 -7.6430664c-4.893799 -4.893738 -7.6430664 -11.531128 -7.6430664 -18.451904l0 -130.47192c0 -0.0020141602 0.0015869141 -0.0036010742 0.0036010742 -0.0036010742l430.5476 0.0036010742l0 0c0.001953125 0 0.003540039 0.0015869141 0.003540039 0.003540039l-0.003540039 130.46838l0 0c0 14.411865 -11.683228 26.09497 -26.095093 26.09497z" fill-rule="evenodd"/><path stroke="#eff0f0" stroke-width="4.141732283464567" stroke-linejoin="round" stroke-linecap="butt" d="m1302.5245 693.47705l-378.36115 0c-6.9207764 0 -13.5581665 -2.7492676 -18.451904 -7.6430664c-4.893799 -4.893738 -7.6430664 -11.531128 -7.6430664 -18.451904l0 -130.47192c0 -0.0020141602 0.0015869141 -0.0036010742 0.0036010742 -0.0036010742l430.5476 0.0036010742l0 0c0.001953125 0 0.003540039 0.0015869141 0.003540039 0.003540039l-0.003540039 130.46838l0 0c0 14.411865 -11.683228 26.09497 -26.095093 26.09497z" fill-rule="evenodd"/><path fill="#1dcad3" d="m838.566 693.47705l-378.36115 0c-6.9208374 0 -13.558197 -2.7492676 -18.451965 -7.6430664c-4.8937683 -4.893738 -7.643036 -11.531128 -7.643036 -18.451904l0 -130.47192c0 -0.0020141602 0.0015869141 -0.0036010742 0.0035705566 -0.0036010742l430.5476 0.0036010742l0 0c0.001953125 0 0.0036010742 0.0015869141 0.0036010742 0.003540039l-0.0036010742 130.46838l0 0c0 14.411865 -11.6831665 26.09497 -26.095032 26.09497z" fill-rule="evenodd"/><path stroke="#eff0f0" stroke-width="4.141732283464567" stroke-linejoin="round" stroke-linecap="butt" d="m838.566 693.47705l-378.36115 0c-6.9208374 0 -13.558197 -2.7492676 -18.451965 -7.6430664c-4.8937683 -4.893738 -7.643036 -11.531128 -7.643036 -18.451904l0 -130.47192c0 -0.0020141602 0.0015869141 -0.0036010742 0.0035705566 -0.0036010742l430.5476 0.0036010742l0 0c0.001953125 0 0.0036010742 0.0015869141 0.0036010742 0.003540039l-0.0036010742 130.46838l0 0c0 14.411865 -11.6831665 26.09497 -26.095032 26.09497z" fill-rule="evenodd"/><path fill="#000000" fill-opacity="0.0" d="m437.09323 43.96589l430.55118 0l0 156.56693l-430.55118 0z" fill-rule="evenodd"/><path fill="#000000" d="m540.0232 135.98976l0 -40.171875l14.234375 0q4.203125 0 6.9375 1.453125q2.734375 1.4375 4.0625 3.84375q1.34375 2.40625 1.34375 5.34375q0 2.59375 -0.921875 4.28125q-0.90625 1.6875 -2.40625 2.6875q-1.5 1.0 -3.25 1.484375l0 0.375q1.890625 0.109375 3.765625 1.296875q1.875 1.1875 3.125 3.375q1.25 2.171875 1.25 5.328125q0 3.015625 -1.390625 5.453125q-1.390625 2.421875 -4.359375 3.84375q-2.953125 1.40625 -7.703125 1.40625l-14.6875 0zm5.109375 -4.53125l9.4375 0q4.703125 0 6.671875 -1.796875q1.984375 -1.8125 1.984375 -4.4375q0 -2.015625 -1.03125 -3.703125q-1.015625 -1.703125 -2.890625 -2.71875q-1.875 -1.03125 -4.453125 -1.03125l-9.71875 0l0 13.6875zm0 -18.015625l8.84375 0q2.171875 0 3.921875 -0.84375q1.75 -0.84375 2.765625 -2.390625q1.03125 -1.5625 1.03125 -3.640625q0 -2.609375 -1.828125 -4.40625q-1.8125 -1.8125 -5.71875 -1.8125l-9.015625 0l0 13.09375zm40.64508 22.921875q-3.046875 0 -5.359375 -1.25q-2.296875 -1.25 -3.578125 -3.78125q-1.28125 -2.546875 -1.28125 -6.34375l0 -19.140625l4.84375 0l0 18.734375q0 3.484375 1.828125 5.453125q1.84375 1.96875 5.0 1.96875q2.15625 0 3.859375 -0.9375q1.71875 -0.953125 2.71875 -2.765625q1.0 -1.828125 1.0 -4.390625l0 -18.0625l4.875 0l0 30.140625l-4.6875 0l0 -7.3125l0.640625 0q-1.40625 4.234375 -3.984375 5.96875q-2.5625 1.71875 -5.875 1.71875zm32.66693 0.265625q-3.09375 0 -5.515625 -0.890625q-2.40625 -0.90625 -3.96875 -2.6875q-1.5625 -1.78125 -2.109375 -4.375l4.609375 -1.09375q0.65625 2.46875 2.4375 3.640625q1.796875 1.15625 4.5 1.15625q3.15625 0 5.03125 -1.34375q1.875 -1.359375 1.875 -3.21875q0 -1.5625 -1.09375 -2.59375q-1.09375 -1.046875 -3.328125 -1.5625l-5.015625 -1.1875q-4.109375 -0.96875 -6.109375 -3.0q-1.984375 -2.03125 -1.984375 -5.21875q0 -2.578125 1.453125 -4.5625q1.453125 -1.984375 3.96875 -3.09375q2.53125 -1.125 5.734375 -1.125q3.109375 0 5.28125 0.9375q2.171875 0.921875 3.53125 2.546875q1.359375 1.625 2.03125 3.765625l-4.390625 1.125q-0.625 -1.609375 -2.0625 -2.921875q-1.4375 -1.328125 -4.359375 -1.328125q-2.6875 0 -4.484375 1.234375q-1.796875 1.234375 -1.796875 3.125q0 1.671875 1.203125 2.6875q1.21875 1.015625 3.875 1.625l4.546875 1.078125q4.09375 0.96875 6.0625 3.015625q1.96875 2.03125 1.96875 5.125q0 2.65625 -1.5 4.71875q-1.484375 2.0625 -4.171875 3.25q-2.6875 1.171875 -6.21875 1.171875zm18.911865 -0.640625l0 -30.140625l4.84375 0l0 30.140625l-4.84375 0zm2.4375 -35.078125q-1.375 0 -2.375 -0.9375q-0.984375 -0.953125 -0.984375 -2.265625q0 -1.359375 0.984375 -2.28125q1.0 -0.9375 2.375 -0.9375q1.40625 0 2.40625 0.9375q1.0 0.921875 1.0 2.28125q0 1.3125 -1.0 2.265625q-1.0 0.9375 -2.40625 0.9375zm15.779541 17.015625l0 18.0625l-4.84375 0l0 -30.140625l4.65625 0l0.03125 7.296875l-0.671875 0q1.375 -4.171875 3.921875 -5.921875q2.546875 -1.75 5.96875 -1.75q3.046875 0 5.328125 1.25q2.296875 1.25 3.578125 3.78125q1.28125 2.515625 1.28125 6.34375l0 19.140625l-4.84375 0l0 -18.734375q0 -3.484375 -1.828125 -5.453125q-1.8125 -1.96875 -4.96875 -1.96875q-2.15625 0 -3.890625 0.953125q-1.71875 0.9375 -2.71875 2.75q-1.0 1.796875 -1.0 4.390625zm40.452454 18.703125q-4.375 0 -7.546875 -1.9375q-3.15625 -1.9375 -4.875 -5.40625q-1.71875 -3.484375 -1.71875 -8.125q0 -4.640625 1.671875 -8.171875q1.671875 -3.53125 4.734375 -5.515625q3.0625 -2.0 7.15625 -2.0q2.40625 0 4.734375 0.796875q2.34375 0.78125 4.234375 2.546875q1.90625 1.765625 3.03125 4.65625q1.140625 2.890625 1.140625 7.0625l0 2.03125l-23.40625 0l0 -4.109375l20.78125 0l-2.265625 1.515625q0 -2.96875 -0.9375 -5.265625q-0.921875 -2.3125 -2.75 -3.609375q-1.828125 -1.3125 -4.5625 -1.3125q-2.71875 0 -4.65625 1.34375q-1.9375 1.328125 -2.96875 3.46875q-1.015625 2.140625 -1.015625 4.59375l0 2.71875q0 3.34375 1.15625 5.6875q1.15625 2.328125 3.234375 3.53125q2.09375 1.1875 4.84375 1.1875q1.78125 0 3.234375 -0.5q1.46875 -0.515625 2.515625 -1.546875q1.046875 -1.046875 1.609375 -2.578125l4.703125 1.28125q-0.703125 2.265625 -2.375 4.0q-1.671875 1.71875 -4.140625 2.6875q-2.46875 0.96875 -5.5625 0.96875zm29.755493 0q-3.09375 0 -5.515625 -0.890625q-2.40625 -0.90625 -3.96875 -2.6875q-1.5625 -1.78125 -2.109375 -4.375l4.609375 -1.09375q0.65625 2.46875 2.4375 3.640625q1.796875 1.15625 4.5 1.15625q3.15625 0 5.03125 -1.34375q1.875 -1.359375 1.875 -3.21875q0 -1.5625 -1.09375 -2.59375q-1.09375 -1.046875 -3.328125 -1.5625l-5.015625 -1.1875q-4.109375 -0.96875 -6.109375 -3.0q-1.984375 -2.03125 -1.984375 -5.21875q0 -2.578125 1.453125 -4.5625q1.453125 -1.984375 3.96875 -3.09375q2.53125 -1.125 5.734375 -1.125q3.109375 0 5.28125 0.9375q2.171875 0.921875 3.53125 2.546875q1.359375 1.625 2.03125 3.765625l-4.390625 1.125q-0.625 -1.609375 -2.0625 -2.921875q-1.4375 -1.328125 -4.359375 -1.328125q-2.6875 0 -4.484375 1.234375q-1.796875 1.234375 -1.796875 3.125q0 1.671875 1.203125 2.6875q1.21875 1.015625 3.875 1.625l4.546875 1.078125q4.09375 0.96875 6.0625 3.015625q1.96875 2.03125 1.96875 5.125q0 2.65625 -1.5 4.71875q-1.484375 2.0625 -4.171875 3.25q-2.6875 1.171875 -6.21875 1.171875zm29.14624 0q-3.09375 0 -5.515625 -0.890625q-2.40625 -0.90625 -3.96875 -2.6875q-1.5625 -1.78125 -2.109375 -4.375l4.609375 -1.09375q0.65625 2.46875 2.4375 3.640625q1.796875 1.15625 4.5 1.15625q3.15625 0 5.03125 -1.34375q1.875 -1.359375 1.875 -3.21875q0 -1.5625 -1.09375 -2.59375q-1.09375 -1.046875 -3.328125 -1.5625l-5.015625 -1.1875q-4.109375 -0.96875 -6.109375 -3.0q-1.984375 -2.03125 -1.984375 -5.21875q0 -2.578125 1.453125 -4.5625q1.453125 -1.984375 3.96875 -3.09375q2.53125 -1.125 5.734375 -1.125q3.109375 0 5.28125 0.9375q2.171875 0.921875 3.53125 2.546875q1.359375 1.625 2.03125 3.765625l-4.390625 1.125q-0.625 -1.609375 -2.0625 -2.921875q-1.4375 -1.328125 -4.359375 -1.328125q-2.6875 0 -4.484375 1.234375q-1.796875 1.234375 -1.796875 3.125q0 1.671875 1.203125 2.6875q1.21875 1.015625 3.875 1.625l4.546875 1.078125q4.09375 0.96875 6.0625 3.015625q1.96875 2.03125 1.96875 5.125q0 2.65625 -1.5 4.71875q-1.484375 2.0625 -4.171875 3.25q-2.6875 1.171875 -6.21875 1.171875z" fill-rule="nonzero"/><path fill="#000000" d="m579.49567 202.91022q-4.75 0 -8.296875 -1.859375q-3.546875 -1.859375 -5.484375 -5.09375q-1.9375 -3.234375 -1.9375 -7.359375l0 -26.5l5.109375 0l0 26.09375q0 2.890625 1.28125 5.140625q1.28125 2.25 3.65625 3.546875q2.375 1.296875 5.671875 1.296875q3.28125 0 5.640625 -1.296875q2.359375 -1.296875 3.625 -3.546875q1.265625 -2.25 1.265625 -5.140625l0 -26.09375l5.125 0l0 26.5q0 4.125 -1.9375 7.359375q-1.9375 3.234375 -5.46875 5.09375q-3.515625 1.859375 -8.25 1.859375zm24.778015 10.625l0 -41.40625l4.6875 0l0 4.828125l0.53125 0q0.515625 -0.8125 1.4375 -2.03125q0.921875 -1.234375 2.640625 -2.203125q1.71875 -0.96875 4.65625 -0.96875q3.78125 0 6.65625 1.890625q2.875 1.875 4.5 5.375q1.625 3.484375 1.625 8.265625q0 4.796875 -1.625 8.296875q-1.609375 3.5 -4.484375 5.421875q-2.859375 1.90625 -6.640625 1.90625q-2.859375 0 -4.609375 -0.984375q-1.75 -0.984375 -2.703125 -2.234375q-0.9375 -1.25 -1.453125 -2.09375l-0.375 0l0 15.9375l-4.84375 0zm13.265625 -14.953125q2.828125 0 4.71875 -1.515625q1.90625 -1.53125 2.859375 -4.109375q0.96875 -2.578125 0.96875 -5.734375q0 -3.125 -0.953125 -5.640625q-0.9375 -2.53125 -2.84375 -4.015625q-1.890625 -1.484375 -4.75 -1.484375q-2.78125 0 -4.671875 1.40625q-1.890625 1.40625 -2.84375 3.90625q-0.953125 2.484375 -0.953125 5.828125q0 3.34375 0.96875 5.90625q0.96875 2.5625 2.859375 4.015625q1.90625 1.4375 4.640625 1.4375zm32.40448 -26.453125l0 4.15625l-15.578125 0l0 -4.15625l15.578125 0zm-11.0625 -7.171875l4.859375 0l0 29.5q0 2.015625 0.8125 2.953125q0.828125 0.921875 2.75 0.921875q0.453125 0 1.171875 -0.109375q0.71875 -0.109375 1.3125 -0.21875l0.984375 4.109375q-0.75 0.265625 -1.703125 0.390625q-0.953125 0.140625 -1.90625 0.140625q-3.90625 0 -6.09375 -2.0625q-2.1875 -2.0625 -2.1875 -5.75l0 -29.875zm17.267822 37.3125l0 -30.140625l4.84375 0l0 30.140625l-4.84375 0zm2.4375 -35.078125q-1.375 0 -2.375 -0.9375q-0.984375 -0.953125 -0.984375 -2.265625q0 -1.359375 0.984375 -2.28125q1.0 -0.9375 2.375 -0.9375q1.40625 0 2.40625 0.9375q1.0 0.921875 1.0 2.28125q0 1.3125 -1.0 2.265625q-1.0 0.9375 -2.40625 0.9375zm10.935791 35.078125l0 -30.140625l4.71875 0l0.015625 6.734375l-0.375 0q0.625 -2.453125 1.953125 -4.046875q1.34375 -1.609375 3.125 -2.421875q1.796875 -0.8125 3.734375 -0.8125q3.296875 0 5.328125 2.03125q2.046875 2.015625 2.640625 5.3125l-0.65625 0q0.546875 -2.265625 1.96875 -3.90625q1.437561 -1.65625 3.468811 -2.546875q2.03125 -0.890625 4.4375 -0.890625q2.609375 0 4.765625 1.140625q2.15625 1.125 3.4375 3.421875q1.28125 2.296875 1.28125 5.796875l0 20.328125l-4.859375 0l0 -20.1875q0 -3.265625 -1.828125 -4.671875q-1.828125 -1.40625 -4.265625 -1.40625q-2.015625 0 -3.484375 0.859375q-1.46875 0.84375 -2.265686 2.328125q-0.796875 1.484375 -0.796875 3.390625l0 19.6875l-4.84375 0l0 -20.6875q0 -2.5 -1.671875 -4.03125q-1.671875 -1.546875 -4.234375 -1.546875q-1.765625 0 -3.3125 0.828125q-1.546875 0.828125 -2.5 2.453125q-0.9375 1.609375 -0.9375 4.0l0 18.984375l-4.84375 0zm61.042236 0.640625q-4.375 0 -7.546875 -1.9375q-3.15625 -1.9375 -4.875 -5.40625q-1.71875 -3.484375 -1.71875 -8.125q0 -4.640625 1.671875 -8.171875q1.671875 -3.53125 4.734375 -5.515625q3.0625 -2.0 7.15625 -2.0q2.40625 0 4.734375 0.796875q2.34375 0.78125 4.234375 2.546875q1.90625 1.765625 3.03125 4.65625q1.140625 2.890625 1.140625 7.0625l0 2.03125l-23.40625 0l0 -4.109375l20.78125 0l-2.265625 1.515625q0 -2.96875 -0.9375 -5.265625q-0.921875 -2.3125 -2.75 -3.609375q-1.828125 -1.3125 -4.5625 -1.3125q-2.71875 0 -4.65625 1.34375q-1.9375 1.328125 -2.96875 3.46875q-1.015625 2.140625 -1.015625 4.59375l0 2.71875q0 3.34375 1.15625 5.6875q1.15625 2.328125 3.234375 3.53125q2.09375 1.1875 4.84375 1.1875q1.78125 0 3.234375 -0.5q1.46875 -0.515625 2.515625 -1.546875q1.046875 -1.046875 1.609375 -2.578125l4.703125 1.28125q-0.703125 2.265625 -2.375 4.0q-1.671875 1.71875 -4.140625 2.6875q-2.46875 0.96875 -5.5625 0.96875z" fill-rule="nonzero"/><path fill="#000000" fill-opacity="0.0" d="m901.0518 43.96589l430.5512 0l0 156.56693l-430.5512 0z" fill-rule="evenodd"/><path fill="#000000" d="m965.5604 135.98976l0 -40.171875l24.46875 0l0 4.53125l-19.359375 0l0 13.09375l18.046875 0l0 4.53125l-18.046875 0l0 13.484375l19.609375 0l0 4.53125l-24.71875 0zm37.440613 -18.0625l0 18.0625l-4.84375 0l0 -30.140625l4.65625 0l0.03125 7.296875l-0.671875 0q1.375 -4.171875 3.921875 -5.921875q2.546875 -1.75 5.96875 -1.75q3.046875 0 5.328125 1.25q2.296875 1.25 3.578125 3.78125q1.28125 2.515625 1.28125 6.34375l0 19.140625l-4.84375 0l0 -18.734375q0 -3.484375 -1.828125 -5.453125q-1.8125 -1.96875 -4.96875 -1.96875q-2.15625 0 -3.890625 0.953125q-1.71875 0.9375 -2.71875 2.75q-1.0 1.796875 -1.0 4.390625zm39.983704 29.984375q-3.34375 0 -5.78125 -0.859375q-2.4375 -0.84375 -4.0625 -2.25q-1.609375 -1.390625 -2.546875 -3.046875l3.921875 -2.53125q0.65625 0.859375 1.609375 1.90625q0.953125 1.0625 2.578125 1.796875q1.640625 0.75 4.28125 0.75q3.625 0 5.953125 -1.734375q2.328125 -1.71875 2.328125 -5.4375l0 -6.046875l-0.453125 0q-0.515625 0.859375 -1.453125 2.046875q-0.921875 1.1875 -2.671875 2.09375q-1.734375 0.90625 -4.640625 0.90625q-3.609375 0 -6.5 -1.703125q-2.890625 -1.71875 -4.5625 -5.0q-1.671875 -3.296875 -1.671875 -8.015625q0 -4.671875 1.640625 -8.109375q1.65625 -3.4375 4.546875 -5.3125q2.90625 -1.890625 6.65625 -1.890625q2.90625 0 4.640625 0.953125q1.75 0.953125 2.6875 2.203125q0.953125 1.234375 1.453125 2.046875l0.46875 0l0 -4.828125l4.71875 0l0 30.921875q0 3.890625 -1.765625 6.34375q-1.75 2.46875 -4.734375 3.625q-2.96875 1.171875 -6.640625 1.171875zm-0.125 -16.71875q2.75 0 4.625 -1.25q1.890625 -1.265625 2.859375 -3.625q0.984375 -2.359375 0.984375 -5.640625q0 -3.203125 -0.96875 -5.640625q-0.953125 -2.453125 -2.84375 -3.84375q-1.890625 -1.390625 -4.65625 -1.390625q-2.859375 0 -4.78125 1.484375q-1.90625 1.46875 -2.875 3.921875q-0.953125 2.453125 -0.953125 5.46875q0 3.09375 0.96875 5.46875q0.96875 2.375 2.890625 3.71875q1.921875 1.328125 4.75 1.328125zm21.786499 4.796875l0 -30.140625l4.84375 0l0 30.140625l-4.84375 0zm2.4375 -35.078125q-1.375 0 -2.375 -0.9375q-0.984375 -0.953125 -0.984375 -2.265625q0 -1.359375 0.984375 -2.28125q1.0 -0.9375 2.375 -0.9375q1.40625 0 2.40625 0.9375q1.0 0.921875 1.0 2.28125q0 1.3125 -1.0 2.265625q-1.0 0.9375 -2.40625 0.9375zm15.779541 17.015625l0 18.0625l-4.84375 0l0 -30.140625l4.65625 0l0.03125 7.296875l-0.671875 0q1.375 -4.171875 3.921875 -5.921875q2.546875 -1.75 5.96875 -1.75q3.046875 0 5.328125 1.25q2.296875 1.25 3.578125 3.78125q1.28125 2.515625 1.28125 6.34375l0 19.140625l-4.84375 0l0 -18.734375q0 -3.484375 -1.828125 -5.453125q-1.8125 -1.96875 -4.96875 -1.96875q-2.15625 0 -3.890625 0.953125q-1.71875 0.9375 -2.71875 2.75q-1.0 1.796875 -1.0 4.390625zm40.452515 18.703125q-4.375 0 -7.546875 -1.9375q-3.15625 -1.9375 -4.875 -5.40625q-1.71875 -3.484375 -1.71875 -8.125q0 -4.640625 1.671875 -8.171875q1.671875 -3.53125 4.734375 -5.515625q3.0625 -2.0 7.15625 -2.0q2.40625 0 4.734375 0.796875q2.34375 0.78125 4.234375 2.546875q1.90625 1.765625 3.03125 4.65625q1.140625 2.890625 1.140625 7.0625l0 2.03125l-23.40625 0l0 -4.109375l20.78125 0l-2.265625 1.515625q0 -2.96875 -0.9375 -5.265625q-0.921875 -2.3125 -2.75 -3.609375q-1.828125 -1.3125 -4.5625 -1.3125q-2.71875 0 -4.65625 1.34375q-1.9375 1.328125 -2.96875 3.46875q-1.015625 2.140625 -1.015625 4.59375l0 2.71875q0 3.34375 1.15625 5.6875q1.15625 2.328125 3.234375 3.53125q2.09375 1.1875 4.84375 1.1875q1.78125 0 3.234375 -0.5q1.46875 -0.515625 2.515625 -1.546875q1.046875 -1.046875 1.609375 -2.578125l4.703125 1.28125q-0.703125 2.265625 -2.375 4.0q-1.671875 1.71875 -4.140625 2.6875q-2.46875 0.96875 -5.5625 0.96875zm32.192993 0q-4.375 0 -7.546875 -1.9375q-3.15625 -1.9375 -4.875 -5.40625q-1.71875 -3.484375 -1.71875 -8.125q0 -4.640625 1.671875 -8.171875q1.671875 -3.53125 4.734375 -5.515625q3.0625 -2.0 7.15625 -2.0q2.40625 0 4.734375 0.796875q2.34375 0.78125 4.234375 2.546875q1.90625 1.765625 3.03125 4.65625q1.140625 2.890625 1.140625 7.0625l0 2.03125l-23.40625 0l0 -4.109375l20.78125 0l-2.265625 1.515625q0 -2.96875 -0.9375 -5.265625q-0.921875 -2.3125 -2.75 -3.609375q-1.828125 -1.3125 -4.5625 -1.3125q-2.71875 0 -4.65625 1.34375q-1.9375 1.328125 -2.96875 3.46875q-1.015625 2.140625 -1.015625 4.59375l0 2.71875q0 3.34375 1.15625 5.6875q1.15625 2.328125 3.234375 3.53125q2.09375 1.1875 4.84375 1.1875q1.78125 0 3.234375 -0.5q1.46875 -0.515625 2.515625 -1.546875q1.046875 -1.046875 1.609375 -2.578125l4.703125 1.28125q-0.703125 2.265625 -2.375 4.0q-1.671875 1.71875 -4.140625 2.6875q-2.46875 0.96875 -5.5625 0.96875zm19.520996 -0.640625l0 -30.140625l4.6875 0l0 4.640625l0.328125 0q0.828125 -2.296875 2.96875 -3.6875q2.140625 -1.390625 4.84375 -1.390625q0.546875 0 1.28125 0.03125q0.734375 0.03125 1.171875 0.046875l0 4.890625q-0.21875 -0.0625 -1.078125 -0.171875q-0.859375 -0.109375 -1.828125 -0.109375q-2.15625 0 -3.875 0.90625q-1.71875 0.90625 -2.6875 2.484375q-0.96875 1.578125 -0.96875 3.625l0 18.875l-4.84375 0zm21.327393 0l0 -30.140625l4.84375 0l0 30.140625l-4.84375 0zm2.4375 -35.078125q-1.375 0 -2.375 -0.9375q-0.984375 -0.953125 -0.984375 -2.265625q0 -1.359375 0.984375 -2.28125q1.0 -0.9375 2.375 -0.9375q1.40625 0 2.40625 0.9375q1.0 0.921875 1.0 2.28125q0 1.3125 -1.0 2.265625q-1.0 0.9375 -2.40625 0.9375zm15.779541 17.015625l0 18.0625l-4.84375 0l0 -30.140625l4.65625 0l0.03125 7.296875l-0.671875 0q1.375 -4.171875 3.921875 -5.921875q2.546875 -1.75 5.96875 -1.75q3.046875 0 5.328125 1.25q2.296875 1.25 3.578125 3.78125q1.28125 2.515625 1.28125 6.34375l0 19.140625l-4.84375 0l0 -18.734375q0 -3.484375 -1.828125 -5.453125q-1.8125 -1.96875 -4.96875 -1.96875q-2.15625 0 -3.890625 0.953125q-1.71875 0.9375 -2.71875 2.75q-1.0 1.796875 -1.0 4.390625zm39.983643 29.984375q-3.34375 0 -5.78125 -0.859375q-2.4375 -0.84375 -4.0625 -2.25q-1.609375 -1.390625 -2.546875 -3.046875l3.921875 -2.53125q0.65625 0.859375 1.609375 1.90625q0.953125 1.0625 2.578125 1.796875q1.640625 0.75 4.28125 0.75q3.625 0 5.953125 -1.734375q2.328125 -1.71875 2.328125 -5.4375l0 -6.046875l-0.453125 0q-0.515625 0.859375 -1.453125 2.046875q-0.921875 1.1875 -2.671875 2.09375q-1.734375 0.90625 -4.640625 0.90625q-3.609375 0 -6.5 -1.703125q-2.890625 -1.71875 -4.5625 -5.0q-1.671875 -3.296875 -1.671875 -8.015625q0 -4.671875 1.640625 -8.109375q1.65625 -3.4375 4.546875 -5.3125q2.90625 -1.890625 6.65625 -1.890625q2.90625 0 4.640625 0.953125q1.75 0.953125 2.6875 2.203125q0.953125 1.234375 1.453125 2.046875l0.46875 0l0 -4.828125l4.71875 0l0 30.921875q0 3.890625 -1.765625 6.34375q-1.75 2.46875 -4.734375 3.625q-2.96875 1.171875 -6.640625 1.171875zm-0.125 -16.71875q2.75 0 4.625 -1.25q1.890625 -1.265625 2.859375 -3.625q0.984375 -2.359375 0.984375 -5.640625q0 -3.203125 -0.96875 -5.640625q-0.953125 -2.453125 -2.84375 -3.84375q-1.890625 -1.390625 -4.65625 -1.390625q-2.859375 0 -4.78125 1.484375q-1.90625 1.46875 -2.875 3.921875q-0.953125 2.453125 -0.953125 5.46875q0 3.09375 0.96875 5.46875q0.96875 2.375 2.890625 3.71875q1.921875 1.328125 4.75 1.328125z" fill-rule="nonzero"/><path fill="#000000" d="m992.9276 202.26959l0 -40.171875l24.46875 0l0 4.53125l-19.359375 0l0 13.09375l18.046875 0l0 4.53125l-18.046875 0l0 13.484375l19.609375 0l0 4.53125l-24.71875 0zm46.612427 -30.140625l0 4.15625l-17.734314 0l0 -4.15625l17.734314 0zm-11.8125 30.140625l0 -34.15625q0 -2.625 1.21875 -4.375q1.234375 -1.75 3.203125 -2.640625q1.96875 -0.890625 4.15625 -0.890625q1.71875 0 2.84375 0.28125q1.140625 0.28125 1.6875 0.53125l-1.359375 4.15625q-0.375 -0.140625 -0.984375 -0.296875q-0.59375 -0.171875 -1.625 -0.171875q-2.234375 0 -3.265625 1.15625q-1.015625 1.140625 -1.015625 3.328125l0 33.078125l-4.859375 0zm30.092407 -30.140625l0 4.15625l-17.734375 0l0 -4.15625l17.734375 0zm-11.8125 30.140625l0 -34.15625q0 -2.625 1.21875 -4.375q1.234375 -1.75 3.203125 -2.640625q1.96875 -0.890625 4.15625 -0.890625q1.71875 0 2.84375 0.28125q1.140625 0.28125 1.6875 0.53125l-1.359375 4.15625q-0.375 -0.140625 -0.984375 -0.296875q-0.59375 -0.171875 -1.625 -0.171875q-2.234375 0 -3.265625 1.15625q-1.015625 1.140625 -1.015625 3.328125l0 33.078125l-4.859375 0zm18.234253 0l0 -30.140625l4.84375 0l0 30.140625l-4.84375 0zm2.4375 -35.078125q-1.375 0 -2.375 -0.9375q-0.984375 -0.953125 -0.984375 -2.265625q0 -1.359375 0.984375 -2.28125q1.0 -0.9375 2.375 -0.9375q1.40625 0 2.40625 0.9375q1.0 0.921875 1.0 2.28125q0 1.3125 -1.0 2.265625q-1.0 0.9375 -2.40625 0.9375zm23.201416 35.71875q-4.109375 0 -7.203125 -1.9375q-3.078125 -1.9375 -4.8125 -5.4375q-1.71875 -3.515625 -1.71875 -8.15625q0 -4.71875 1.71875 -8.234375q1.734375 -3.515625 4.8125 -5.453125q3.09375 -1.9375 7.203125 -1.9375q2.1875 0 4.125 0.5625q1.9375 0.5625 3.53125 1.625q1.609375 1.0625 2.765625 2.625q1.171875 1.546875 1.78125 3.515625l-4.65625 1.3125q-0.328125 -1.15625 -1.0 -2.125q-0.671875 -0.96875 -1.640625 -1.6875q-0.953125 -0.71875 -2.1875 -1.109375q-1.234375 -0.390625 -2.71875 -0.390625q-3.015625 0 -4.96875 1.578125q-1.9375 1.578125 -2.890625 4.140625q-0.9375 2.5625 -0.9375 5.578125q0 2.96875 0.9375 5.515625q0.953125 2.546875 2.890625 4.125q1.953125 1.5625 4.96875 1.5625q1.5 0 2.765625 -0.40625q1.28125 -0.40625 2.265625 -1.140625q0.984375 -0.75 1.65625 -1.765625q0.671875 -1.03125 1.0 -2.25l4.625 1.328125q-0.59375 2.015625 -1.765625 3.59375q-1.171875 1.578125 -2.796875 2.703125q-1.609375 1.109375 -3.578125 1.6875q-1.96875 0.578125 -4.171875 0.578125zm19.280273 -0.640625l0 -30.140625l4.84375 0l0 30.140625l-4.84375 0zm2.4375 -35.078125q-1.375 0 -2.375 -0.9375q-0.984375 -0.953125 -0.984375 -2.265625q0 -1.359375 0.984375 -2.28125q1.0 -0.9375 2.375 -0.9375q1.40625 0 2.40625 0.9375q1.0 0.921875 1.0 2.28125q0 1.3125 -1.0 2.265625q-1.0 0.9375 -2.40625 0.9375zm23.607666 35.71875q-4.375 0 -7.546875 -1.9375q-3.15625 -1.9375 -4.875 -5.40625q-1.71875 -3.484375 -1.71875 -8.125q0 -4.640625 1.671875 -8.171875q1.671875 -3.53125 4.734375 -5.515625q3.0625 -2.0 7.15625 -2.0q2.40625 0 4.734375 0.796875q2.34375 0.78125 4.234375 2.546875q1.90625 1.765625 3.03125 4.65625q1.140625 2.890625 1.140625 7.0625l0 2.03125l-23.40625 0l0 -4.109375l20.78125 0l-2.265625 1.515625q0 -2.96875 -0.9375 -5.265625q-0.921875 -2.3125 -2.75 -3.609375q-1.828125 -1.3125 -4.5625 -1.3125q-2.71875 0 -4.65625 1.34375q-1.9375 1.328125 -2.96875 3.46875q-1.015625 2.140625 -1.015625 4.59375l0 2.71875q0 3.34375 1.15625 5.6875q1.15625 2.328125 3.234375 3.53125q2.09375 1.1875 4.84375 1.1875q1.78125 0 3.234375 -0.5q1.46875 -0.515625 2.515625 -1.546875q1.046875 -1.046875 1.609375 -2.578125l4.703125 1.28125q-0.703125 2.265625 -2.375 4.0q-1.671875 1.71875 -4.140625 2.6875q-2.46875 0.96875 -5.5625 0.96875zm24.364868 -18.703125l0 18.0625l-4.84375 0l0 -30.140625l4.65625 0l0.03125 7.296875l-0.671875 0q1.375 -4.171875 3.921875 -5.921875q2.546875 -1.75 5.96875 -1.75q3.046875 0 5.328125 1.25q2.296875 1.25 3.578125 3.78125q1.28125 2.515625 1.28125 6.34375l0 19.140625l-4.84375 0l0 -18.734375q0 -3.484375 -1.828125 -5.453125q-1.8125 -1.96875 -4.96875 -1.96875q-2.15625 0 -3.890625 0.953125q-1.71875 0.9375 -2.71875 2.75q-1.0 1.796875 -1.0 4.390625zm40.046265 18.703125q-4.109375 0 -7.203125 -1.9375q-3.078125 -1.9375 -4.8125 -5.4375q-1.71875 -3.515625 -1.71875 -8.15625q0 -4.71875 1.71875 -8.234375q1.734375 -3.515625 4.8125 -5.453125q3.09375 -1.9375 7.203125 -1.9375q2.1875 0 4.125 0.5625q1.9375 0.5625 3.53125 1.625q1.609375 1.0625 2.765625 2.625q1.171875 1.546875 1.78125 3.515625l-4.65625 1.3125q-0.328125 -1.15625 -1.0 -2.125q-0.671875 -0.96875 -1.640625 -1.6875q-0.953125 -0.71875 -2.1875 -1.109375q-1.234375 -0.390625 -2.71875 -0.390625q-3.015625 0 -4.96875 1.578125q-1.9375 1.578125 -2.890625 4.140625q-0.9375 2.5625 -0.9375 5.578125q0 2.96875 0.9375 5.515625q0.953125 2.546875 2.890625 4.125q1.953125 1.5625 4.96875 1.5625q1.5 0 2.765625 -0.40625q1.28125 -0.40625 2.265625 -1.140625q0.984375 -0.75 1.65625 -1.765625q0.671875 -1.03125 1.0 -2.25l4.625 1.328125q-0.59375 2.015625 -1.765625 3.59375q-1.171875 1.578125 -2.796875 2.703125q-1.609375 1.109375 -3.578125 1.6875q-1.96875 0.578125 -4.171875 0.578125zm17.717041 10.28125l1.234375 -4.203125l0.515625 0.125q1.484375 0.375 2.6875 0.203125q1.21875 -0.171875 2.1875 -1.203125q0.96875 -1.015625 1.703125 -3.171875l0.859375 -2.515625l-11.515625 -30.296875l5.3125 0l6.421875 17.875q1.015625 2.796875 1.71875 5.546875q0.703125 2.75 1.484375 5.34375l-1.78125 0q0.78125 -2.59375 1.5 -5.34375q0.71875 -2.765625 1.71875 -5.546875l6.46875 -17.875l5.28125 0l-13.234375 34.640625q-0.921875 2.40625 -2.203125 3.953125q-1.28125 1.546875 -2.984375 2.28125q-1.6875 0.75 -3.828125 0.75q-1.28125 0 -2.234375 -0.1875q-0.9375 -0.1875 -1.3125 -0.375z" fill-rule="nonzero"/><path fill="#000000" fill-opacity="0.0" d="m1365.0104 43.96589l430.55127 0l0 156.56693l-430.55127 0z" fill-rule="evenodd"/><path fill="#000000" d="m1516.0887 135.98976l-9.703125 0l0 -4.53125l9.375 0q4.90625 0 8.125 -1.875q3.234375 -1.875 4.8125 -5.375q1.59375 -3.5 1.59375 -8.390625q0 -4.828125 -1.578125 -8.28125q-1.578125 -3.46875 -4.6875 -5.328125q-3.109375 -1.859375 -7.78125 -1.859375l-10.078125 0l0 -4.53125l10.4375 0q5.875 0 10.03125 2.40625q4.171875 2.390625 6.390625 6.890625q2.234375 4.484375 2.234375 10.703125q0 6.28125 -2.25 10.796875q-2.234375 4.515625 -6.515625 6.953125q-4.28125 2.421875 -10.40625 2.421875zm-7.421875 -40.171875l0 40.171875l-5.109375 0l0 -40.171875l5.109375 0zm34.147095 40.171875l0 -30.140625l4.84375 0l0 30.140625l-4.84375 0zm2.4375 -35.078125q-1.375 0 -2.375 -0.9375q-0.984375 -0.953125 -0.984375 -2.265625q0 -1.359375 0.984375 -2.28125q1.0 -0.9375 2.375 -0.9375q1.40625 0 2.40625 0.9375q1.0 0.921875 1.0 2.28125q0 1.3125 -1.0 2.265625q-1.0 0.9375 -2.40625 0.9375zm23.138916 47.0q-3.34375 0 -5.78125 -0.859375q-2.4375 -0.84375 -4.0625 -2.25q-1.609375 -1.390625 -2.546875 -3.046875l3.921875 -2.53125q0.65625 0.859375 1.609375 1.90625q0.953125 1.0625 2.578125 1.796875q1.640625 0.75 4.28125 0.75q3.625 0 5.953125 -1.734375q2.328125 -1.71875 2.328125 -5.4375l0 -6.046875l-0.453125 0q-0.515625 0.859375 -1.453125 2.046875q-0.921875 1.1875 -2.671875 2.09375q-1.734375 0.90625 -4.640625 0.90625q-3.609375 0 -6.5 -1.703125q-2.890625 -1.71875 -4.5625 -5.0q-1.671875 -3.296875 -1.671875 -8.015625q0 -4.671875 1.640625 -8.109375q1.65625 -3.4375 4.546875 -5.3125q2.90625 -1.890625 6.65625 -1.890625q2.90625 0 4.640625 0.953125q1.75 0.953125 2.6875 2.203125q0.953125 1.234375 1.453125 2.046875l0.46875 0l0 -4.828125l4.71875 0l0 30.921875q0 3.890625 -1.765625 6.34375q-1.75 2.46875 -4.734375 3.625q-2.96875 1.171875 -6.640625 1.171875zm-0.125 -16.71875q2.75 0 4.625 -1.25q1.890625 -1.265625 2.859375 -3.625q0.984375 -2.359375 0.984375 -5.640625q0 -3.203125 -0.96875 -5.640625q-0.953125 -2.453125 -2.84375 -3.84375q-1.890625 -1.390625 -4.65625 -1.390625q-2.859375 0 -4.78125 1.484375q-1.90625 1.46875 -2.875 3.921875q-0.953125 2.453125 -0.953125 5.46875q0 3.09375 0.96875 5.46875q0.96875 2.375 2.890625 3.71875q1.921875 1.328125 4.75 1.328125zm21.786499 4.796875l0 -30.140625l4.84375 0l0 30.140625l-4.84375 0zm2.4375 -35.078125q-1.375 0 -2.375 -0.9375q-0.984375 -0.953125 -0.984375 -2.265625q0 -1.359375 0.984375 -2.28125q1.0 -0.9375 2.375 -0.9375q1.40625 0 2.40625 0.9375q1.0 0.921875 1.0 2.28125q0 1.3125 -1.0 2.265625q-1.0 0.9375 -2.40625 0.9375zm22.795166 4.9375l0 4.15625l-15.578125 0l0 -4.15625l15.578125 0zm-11.0625 -7.171875l4.859375 0l0 29.5q0 2.015625 0.8125 2.953125q0.828125 0.921875 2.75 0.921875q0.453125 0 1.171875 -0.109375q0.71875 -0.109375 1.3125 -0.21875l0.984375 4.109375q-0.75 0.265625 -1.703125 0.390625q-0.953125 0.140625 -1.90625 0.140625q-3.90625 0 -6.09375 -2.0625q-2.1875 -2.0625 -2.1875 -5.75l0 -29.875zm25.975098 38.015625q-2.859375 0 -5.203125 -1.078125q-2.328125 -1.078125 -3.703125 -3.15625q-1.375 -2.078125 -1.375 -5.046875q0 -2.578125 1.015625 -4.1875q1.03125 -1.625 2.75 -2.5625q1.71875 -0.9375 3.78125 -1.390625q2.078125 -0.453125 4.1875 -0.71875q2.6875 -0.359375 4.390625 -0.546875q1.703125 -0.1875 2.515625 -0.640625q0.828125 -0.46875 0.828125 -1.5625l0 -0.171875q0 -1.890625 -0.703125 -3.1875q-0.703125 -1.3125 -2.109375 -2.015625q-1.390625 -0.703125 -3.5 -0.703125q-2.15625 0 -3.6875 0.6875q-1.53125 0.671875 -2.5 1.6875q-0.953125 1.0 -1.4375 2.046875l-4.65625 -1.53125q1.15625 -2.75 3.125 -4.296875q1.96875 -1.5625 4.328125 -2.203125q2.375 -0.640625 4.703125 -0.640625q1.5 0 3.421875 0.359375q1.9375 0.359375 3.734375 1.4375q1.796875 1.078125 2.96875 3.203125q1.171875 2.109375 1.171875 5.640625l0 19.875l-4.78125 0l0 -4.09375l-0.3125 0q-0.515625 1.046875 -1.65625 2.171875q-1.125 1.109375 -2.9375 1.875q-1.796875 0.75 -4.359375 0.75zm0.828125 -4.296875q2.703125 0 4.5625 -1.046875q1.859375 -1.046875 2.828125 -2.734375q0.96875 -1.6875 0.96875 -3.515625l0 -4.1875q-0.296875 0.359375 -1.296875 0.640625q-0.984375 0.28125 -2.265625 0.5q-1.28125 0.21875 -2.484375 0.375q-1.203125 0.140625 -1.90625 0.21875q-1.75 0.21875 -3.28125 0.75q-1.515625 0.515625 -2.4375 1.53125q-0.90625 1.0 -0.90625 2.734375q0 1.5625 0.796875 2.609375q0.8125 1.046875 2.21875 1.59375q1.40625 0.53125 3.203125 0.53125zm26.584717 -36.578125l0 40.171875l-4.84375 0l0 -40.171875l4.84375 0z" fill-rule="nonzero"/><path fill="#000000" d="m1438.848 202.26959l0 -40.171875l24.46875 0l0 4.53125l-19.359375 0l0 13.09375l18.046875 0l0 4.53125l-18.046875 0l0 13.484375l19.609375 0l0 4.53125l-24.71875 0zm30.081177 0l11.890625 -17.34375l-0.03125 3.734375l-11.234375 -16.53125l5.65625 0l3.75 5.84375q1.453125 2.265625 2.515625 4.234375q1.078125 1.96875 2.203125 3.796875l-2.53125 0q1.15625 -1.828125 2.109375 -3.796875q0.96875 -1.96875 2.4375 -4.234375l3.84375 -5.84375l5.546875 0l-11.296875 16.734375l0 -3.578125l11.78125 16.984375l-5.640625 0l-4.421875 -6.765625q-1.421875 -2.21875 -2.46875 -4.109375q-1.03125 -1.90625 -2.140625 -3.65625l2.5625 0q-1.09375 1.75 -2.046875 3.65625q-0.9375 1.890625 -2.390625 4.109375l-4.484375 6.765625l-5.609375 0zm32.659424 11.265625l0 -41.40625l4.6875 0l0 4.828125l0.53125 0q0.515625 -0.8125 1.4375 -2.03125q0.921875 -1.234375 2.640625 -2.203125q1.71875 -0.96875 4.65625 -0.96875q3.78125 0 6.65625 1.890625q2.875 1.875 4.5 5.375q1.625 3.484375 1.625 8.265625q0 4.796875 -1.625 8.296875q-1.609375 3.5 -4.484375 5.421875q-2.859375 1.90625 -6.640625 1.90625q-2.859375 0 -4.609375 -0.984375q-1.75 -0.984375 -2.703125 -2.234375q-0.9375 -1.25 -1.453125 -2.09375l-0.375 0l0 15.9375l-4.84375 0zm13.265625 -14.953125q2.828125 0 4.71875 -1.515625q1.90625 -1.53125 2.859375 -4.109375q0.96875 -2.578125 0.96875 -5.734375q0 -3.125 -0.953125 -5.640625q-0.9375 -2.53125 -2.84375 -4.015625q-1.890625 -1.484375 -4.75 -1.484375q-2.78125 0 -4.671875 1.40625q-1.890625 1.40625 -2.84375 3.90625q-0.953125 2.484375 -0.953125 5.828125q0 3.34375 0.96875 5.90625q0.96875 2.5625 2.859375 4.015625q1.90625 1.4375 4.640625 1.4375zm33.21692 4.328125q-4.375 0 -7.546875 -1.9375q-3.15625 -1.9375 -4.875 -5.40625q-1.71875 -3.484375 -1.71875 -8.125q0 -4.640625 1.671875 -8.171875q1.671875 -3.53125 4.734375 -5.515625q3.0625 -2.0 7.15625 -2.0q2.40625 0 4.734375 0.796875q2.34375 0.78125 4.234375 2.546875q1.90625 1.765625 3.03125 4.65625q1.140625 2.890625 1.140625 7.0625l0 2.03125l-23.40625 0l0 -4.109375l20.78125 0l-2.265625 1.515625q0 -2.96875 -0.9375 -5.265625q-0.921875 -2.3125 -2.75 -3.609375q-1.828125 -1.3125 -4.5625 -1.3125q-2.71875 0 -4.65625 1.34375q-1.9375 1.328125 -2.96875 3.46875q-1.015625 2.140625 -1.015625 4.59375l0 2.71875q0 3.34375 1.15625 5.6875q1.15625 2.328125 3.234375 3.53125q2.09375 1.1875 4.84375 1.1875q1.78125 0 3.234375 -0.5q1.46875 -0.515625 2.515625 -1.546875q1.046875 -1.046875 1.609375 -2.578125l4.703125 1.28125q-0.703125 2.265625 -2.375 4.0q-1.671875 1.71875 -4.140625 2.6875q-2.46875 0.96875 -5.5625 0.96875zm19.521118 -0.640625l0 -30.140625l4.6875 0l0 4.640625l0.328125 0q0.828125 -2.296875 2.96875 -3.6875q2.140625 -1.390625 4.84375 -1.390625q0.546875 0 1.28125 0.03125q0.734375 0.03125 1.171875 0.046875l0 4.890625q-0.21875 -0.0625 -1.078125 -0.171875q-0.859375 -0.109375 -1.828125 -0.109375q-2.15625 0 -3.875 0.90625q-1.71875 0.90625 -2.6875 2.484375q-0.96875 1.578125 -0.96875 3.625l0 18.875l-4.84375 0zm21.32727 0l0 -30.140625l4.84375 0l0 30.140625l-4.84375 0zm2.4375 -35.078125q-1.375 0 -2.375 -0.9375q-0.984375 -0.953125 -0.984375 -2.265625q0 -1.359375 0.984375 -2.28125q1.0 -0.9375 2.375 -0.9375q1.40625 0 2.40625 0.9375q1.0 0.921875 1.0 2.28125q0 1.3125 -1.0 2.265625q-1.0 0.9375 -2.40625 0.9375zm23.607666 35.71875q-4.375 0 -7.546875 -1.9375q-3.15625 -1.9375 -4.875 -5.40625q-1.71875 -3.484375 -1.71875 -8.125q0 -4.640625 1.671875 -8.171875q1.671875 -3.53125 4.734375 -5.515625q3.0625 -2.0 7.15625 -2.0q2.40625 0 4.734375 0.796875q2.34375 0.78125 4.234375 2.546875q1.90625 1.765625 3.03125 4.65625q1.140625 2.890625 1.140625 7.0625l0 2.03125l-23.40625 0l0 -4.109375l20.78125 0l-2.265625 1.515625q0 -2.96875 -0.9375 -5.265625q-0.921875 -2.3125 -2.75 -3.609375q-1.828125 -1.3125 -4.5625 -1.3125q-2.71875 0 -4.65625 1.34375q-1.9375 1.328125 -2.96875 3.46875q-1.015625 2.140625 -1.015625 4.59375l0 2.71875q0 3.34375 1.15625 5.6875q1.15625 2.328125 3.234375 3.53125q2.09375 1.1875 4.84375 1.1875q1.78125 0 3.234375 -0.5q1.46875 -0.515625 2.515625 -1.546875q1.046875 -1.046875 1.609375 -2.578125l4.703125 1.28125q-0.703125 2.265625 -2.375 4.0q-1.671875 1.71875 -4.140625 2.6875q-2.46875 0.96875 -5.5625 0.96875zm24.364868 -18.703125l0 18.0625l-4.84375 0l0 -30.140625l4.65625 0l0.03125 7.296875l-0.671875 0q1.375 -4.171875 3.921875 -5.921875q2.546875 -1.75 5.96875 -1.75q3.046875 0 5.328125 1.25q2.296875 1.25 3.578125 3.78125q1.28125 2.515625 1.28125 6.34375l0 19.140625l-4.84375 0l0 -18.734375q0 -3.484375 -1.828125 -5.453125q-1.8125 -1.96875 -4.96875 -1.96875q-2.15625 0 -3.890625 0.953125q-1.71875 0.9375 -2.71875 2.75q-1.0 1.796875 -1.0 4.390625zm40.046265 18.703125q-4.109375 0 -7.203125 -1.9375q-3.078125 -1.9375 -4.8125 -5.4375q-1.71875 -3.515625 -1.71875 -8.15625q0 -4.71875 1.71875 -8.234375q1.734375 -3.515625 4.8125 -5.453125q3.09375 -1.9375 7.203125 -1.9375q2.1875 0 4.125 0.5625q1.9375 0.5625 3.53125 1.625q1.609375 1.0625 2.765625 2.625q1.171875 1.546875 1.78125 3.515625l-4.65625 1.3125q-0.328125 -1.15625 -1.0 -2.125q-0.671875 -0.96875 -1.640625 -1.6875q-0.953125 -0.71875 -2.1875 -1.109375q-1.234375 -0.390625 -2.71875 -0.390625q-3.015625 0 -4.96875 1.578125q-1.9375 1.578125 -2.890625 4.140625q-0.9375 2.5625 -0.9375 5.578125q0 2.96875 0.9375 5.515625q0.953125 2.546875 2.890625 4.125q1.953125 1.5625 4.96875 1.5625q1.5 0 2.765625 -0.40625q1.28125 -0.40625 2.265625 -1.140625q0.984375 -0.75 1.65625 -1.765625q0.671875 -1.03125 1.0 -2.25l4.625 1.328125q-0.59375 2.015625 -1.765625 3.59375q-1.171875 1.578125 -2.796875 2.703125q-1.609375 1.109375 -3.578125 1.6875q-1.96875 0.578125 -4.171875 0.578125zm31.952148 0q-4.375 0 -7.546875 -1.9375q-3.15625 -1.9375 -4.875 -5.40625q-1.71875 -3.484375 -1.71875 -8.125q0 -4.640625 1.671875 -8.171875q1.671875 -3.53125 4.734375 -5.515625q3.0625 -2.0 7.15625 -2.0q2.40625 0 4.734375 0.796875q2.34375 0.78125 4.234375 2.546875q1.90625 1.765625 3.03125 4.65625q1.140625 2.890625 1.140625 7.0625l0 2.03125l-23.40625 0l0 -4.109375l20.78125 0l-2.265625 1.515625q0 -2.96875 -0.9375 -5.265625q-0.921875 -2.3125 -2.75 -3.609375q-1.828125 -1.3125 -4.5625 -1.3125q-2.71875 0 -4.65625 1.34375q-1.9375 1.328125 -2.96875 3.46875q-1.015625 2.140625 -1.015625 4.59375l0 2.71875q0 3.34375 1.15625 5.6875q1.15625 2.328125 3.234375 3.53125q2.09375 1.1875 4.84375 1.1875q1.78125 0 3.234375 -0.5q1.46875 -0.515625 2.515625 -1.546875q1.046875 -1.046875 1.609375 -2.578125l4.703125 1.28125q-0.703125 2.265625 -2.375 4.0q-1.671875 1.71875 -4.140625 2.6875q-2.46875 0.96875 -5.5625 0.96875z" fill-rule="nonzero"/><path fill="#000000" fill-opacity="0.0" d="m433.0486 872.8825l1362.5197 0l0 156.56696l-1362.5197 0z" fill-rule="evenodd"/><path fill="#000000" d="m817.0419 924.7345l0 40.171875l-5.109375 0l0 -40.171875l5.109375 0zm13.969849 22.109375l0 18.0625l-4.84375 0l0 -30.140625l4.65625 0l0.03125 7.296875l-0.671875 0q1.375 -4.171875 3.921875 -5.921875q2.546875 -1.75 5.96875 -1.75q3.046875 0 5.328125 1.25q2.296875 1.25 3.578125 3.78125q1.28125 2.515625 1.28125 6.34375l0 19.140625l-4.84375 0l0 -18.734375q0 -3.484375 -1.828125 -5.453125q-1.8125 -1.96875 -4.96875 -1.96875q-2.15625 0 -3.890625 0.953125q-1.71875 0.9375 -2.71875 2.75q-1.0 1.796875 -1.0 4.390625zm39.640015 -12.078125l0 4.15625l-15.578125 0l0 -4.15625l15.578125 0zm-11.0625 -7.171875l4.859375 0l0 29.5q0 2.015625 0.8125 2.953125q0.828125 0.921875 2.75 0.921875q0.453125 0 1.171875 -0.109375q0.71875 -0.109375 1.3125 -0.21875l0.984375 4.109375q-0.75 0.265625 -1.703125 0.390625q-0.953125 0.140625 -1.90625 0.140625q-3.90625 0 -6.09375 -2.0625q-2.1875 -2.0625 -2.1875 -5.75l0 -29.875zm29.40033 37.953125q-4.375 0 -7.546875 -1.9375q-3.15625 -1.9375 -4.875 -5.40625q-1.71875 -3.484375 -1.71875 -8.125q0 -4.640625 1.671875 -8.171875q1.671875 -3.53125 4.734375 -5.515625q3.0625 -2.0 7.15625 -2.0q2.40625 0 4.734375 0.796875q2.34375 0.78125 4.234375 2.546875q1.90625 1.765625 3.03125 4.65625q1.140625 2.890625 1.140625 7.0625l0 2.03125l-23.40625 0l0 -4.109375l20.78125 0l-2.265625 1.515625q0 -2.96875 -0.9375 -5.265625q-0.921875 -2.3125 -2.75 -3.609375q-1.828125 -1.3125 -4.5625 -1.3125q-2.71875 0 -4.65625 1.34375q-1.9375 1.328125 -2.96875 3.46875q-1.015625 2.140625 -1.015625 4.59375l0 2.71875q0 3.34375 1.15625 5.6875q1.15625 2.328125 3.234375 3.53125q2.09375 1.1875 4.84375 1.1875q1.78125 0 3.234375 -0.5q1.46875 -0.515625 2.515625 -1.546875q1.046875 -1.046875 1.609375 -2.578125l4.703125 1.28125q-0.703125 2.265625 -2.375 4.0q-1.671875 1.71875 -4.140625 2.6875q-2.46875 0.96875 -5.5625 0.96875zm24.364807 -40.8125l0 40.171875l-4.84375 0l0 -40.171875l4.84375 0zm13.373291 0l0 40.171875l-4.84375 0l0 -40.171875l4.84375 0zm8.529541 40.171875l0 -30.140625l4.84375 0l0 30.140625l-4.84375 0zm2.4375 -35.078125q-1.375 0 -2.375 -0.9375q-0.984375 -0.953125 -0.984375 -2.265625q0 -1.359375 0.984375 -2.28125q1.0 -0.9375 2.375 -0.9375q1.40625 0 2.40625 0.9375q1.0 0.921875 1.0 2.28125q0 1.3125 -1.0 2.265625q-1.0 0.9375 -2.40625 0.9375zm23.138916 47.0q-3.34375 0 -5.78125 -0.859375q-2.4375 -0.84375 -4.0625 -2.25q-1.609375 -1.390625 -2.546875 -3.046875l3.921875 -2.53125q0.65625 0.859375 1.609375 1.90625q0.953125 1.0625 2.578125 1.796875q1.640625 0.75 4.28125 0.75q3.625 0 5.953125 -1.734375q2.328125 -1.71875 2.328125 -5.4375l0 -6.046875l-0.453125 0q-0.515625 0.859375 -1.453125 2.046875q-0.921875 1.1875 -2.671875 2.09375q-1.734375 0.90625 -4.640625 0.90625q-3.609375 0 -6.5 -1.703125q-2.890625 -1.71875 -4.5625 -5.0q-1.671875 -3.296875 -1.671875 -8.015625q0 -4.671875 1.640625 -8.109375q1.65625 -3.4375 4.546875 -5.3125q2.90625 -1.890625 6.65625 -1.890625q2.90625 0 4.640625 0.953125q1.75 0.953125 2.6875 2.203125q0.953125 1.234375 1.453125 2.046875l0.46875 0l0 -4.828125l4.71875 0l0 30.921875q0 3.890625 -1.765625 6.34375q-1.75 2.46875 -4.734375 3.625q-2.96875 1.171875 -6.640625 1.171875zm-0.125 -16.71875q2.75 0 4.625 -1.25q1.890625 -1.265625 2.859375 -3.625q0.984375 -2.359375 0.984375 -5.640625q0 -3.203125 -0.96875 -5.640625q-0.953125 -2.453125 -2.84375 -3.84375q-1.890625 -1.390625 -4.65625 -1.390625q-2.859375 0 -4.78125 1.484375q-1.90625 1.46875 -2.875 3.921875q-0.953125 2.453125 -0.953125 5.46875q0 3.09375 0.96875 5.46875q0.96875 2.375 2.890625 3.71875q1.921875 1.328125 4.75 1.328125zm34.458374 5.4375q-4.375 0 -7.546875 -1.9375q-3.15625 -1.9375 -4.875 -5.40625q-1.71875 -3.484375 -1.71875 -8.125q0 -4.640625 1.671875 -8.171875q1.671875 -3.53125 4.734375 -5.515625q3.0625 -2.0 7.15625 -2.0q2.40625 0 4.734375 0.796875q2.34375 0.78125 4.234375 2.546875q1.90625 1.765625 3.03125 4.65625q1.140625 2.890625 1.140625 7.0625l0 2.03125l-23.40625 0l0 -4.109375l20.78125 0l-2.265625 1.515625q0 -2.96875 -0.9375 -5.265625q-0.921875 -2.3125 -2.75 -3.609375q-1.828125 -1.3125 -4.5625 -1.3125q-2.71875 0 -4.65625 1.34375q-1.9375 1.328125 -2.96875 3.46875q-1.015625 2.140625 -1.015625 4.59375l0 2.71875q0 3.34375 1.15625 5.6875q1.15625 2.328125 3.234375 3.53125q2.09375 1.1875 4.84375 1.1875q1.78125 0 3.234375 -0.5q1.46875 -0.515625 2.515625 -1.546875q1.046875 -1.046875 1.609375 -2.578125l4.703125 1.28125q-0.703125 2.265625 -2.375 4.0q-1.671875 1.71875 -4.140625 2.6875q-2.46875 0.96875 -5.5625 0.96875zm24.364868 -18.703125l0 18.0625l-4.84375 0l0 -30.140625l4.65625 0l0.03125 7.296875l-0.671875 0q1.375 -4.171875 3.921875 -5.921875q2.546875 -1.75 5.96875 -1.75q3.046875 0 5.328125 1.25q2.296875 1.25 3.578125 3.78125q1.28125 2.515625 1.28125 6.34375l0 19.140625l-4.84375 0l0 -18.734375q0 -3.484375 -1.828125 -5.453125q-1.8125 -1.96875 -4.96875 -1.96875q-2.15625 0 -3.890625 0.953125q-1.71875 0.9375 -2.71875 2.75q-1.0 1.796875 -1.0 4.390625zm39.640015 -12.078125l0 4.15625l-15.578125 0l0 -4.15625l15.578125 0zm-11.0625 -7.171875l4.859375 0l0 29.5q0 2.015625 0.8125 2.953125q0.828125 0.921875 2.75 0.921875q0.453125 0 1.171875 -0.109375q0.71875 -0.109375 1.3125 -0.21875l0.984375 4.109375q-0.75 0.265625 -1.703125 0.390625q-0.953125 0.140625 -1.90625 0.140625q-3.90625 0 -6.09375 -2.0625q-2.1875 -2.0625 -2.1875 -5.75l0 -29.875zm49.673096 37.859375q-5.15625 0 -9.1875 -2.5q-4.03125 -2.5 -6.34375 -7.125q-2.3125 -4.625 -2.3125 -10.984375q0 -6.390625 2.3125 -11.015625q2.3125 -4.625 6.34375 -7.125q4.03125 -2.515625 9.1875 -2.515625q5.140625 0 9.15625 2.515625q4.03125 2.5 6.328125 7.125q2.3125 4.625 2.3125 11.015625q0 6.359375 -2.3125 10.984375q-2.296875 4.625 -6.328125 7.125q-4.015625 2.5 -9.15625 2.5zm0 -4.75q3.578125 0 6.46875 -1.8125q2.90625 -1.828125 4.625 -5.375q1.71875 -3.546875 1.71875 -8.671875q0 -5.171875 -1.71875 -8.71875q-1.71875 -3.546875 -4.625 -5.359375q-2.890625 -1.828125 -6.46875 -1.828125q-3.609375 0 -6.53125 1.84375q-2.90625 1.828125 -4.625 5.375q-1.703125 3.546875 -1.703125 8.6875q0 5.125 1.703125 8.65625q1.71875 3.53125 4.625 5.375q2.921875 1.828125 6.53125 1.828125zm39.332275 4.84375q-2.859375 0 -4.609375 -0.984375q-1.75 -0.984375 -2.703125 -2.234375q-0.9375 -1.25 -1.453125 -2.09375l-0.53125 0l0 4.671875l-4.6875 0l0 -40.171875l4.84375 0l0 14.859375l0.375 0q0.515625 -0.8125 1.4375 -2.03125q0.921875 -1.234375 2.640625 -2.203125q1.71875 -0.96875 4.65625 -0.96875q3.78125 0 6.65625 1.890625q2.875 1.875 4.5 5.375q1.625 3.484375 1.625 8.265625q0 4.796875 -1.625 8.296875q-1.609375 3.5 -4.484375 5.421875q-2.859375 1.90625 -6.640625 1.90625zm-0.71875 -4.328125q2.828125 0 4.71875 -1.515625q1.90625 -1.53125 2.859375 -4.109375q0.96875 -2.578125 0.96875 -5.734375q0 -3.125 -0.953125 -5.640625q-0.9375 -2.53125 -2.84375 -4.015625q-1.890625 -1.484375 -4.75 -1.484375q-2.78125 0 -4.671875 1.40625q-1.890625 1.40625 -2.84375 3.90625q-0.953125 2.484375 -0.953125 5.828125q0 3.34375 0.96875 5.90625q0.96875 2.5625 2.859375 4.015625q1.90625 1.4375 4.640625 1.4375zm30.779419 4.328125q-3.09375 0 -5.515625 -0.890625q-2.40625 -0.90625 -3.96875 -2.6875q-1.5625 -1.78125 -2.109375 -4.375l4.609375 -1.09375q0.65625 2.46875 2.4375 3.640625q1.796875 1.15625 4.5 1.15625q3.15625 0 5.03125 -1.34375q1.875 -1.359375 1.875 -3.21875q0 -1.5625 -1.09375 -2.59375q-1.09375 -1.046875 -3.328125 -1.5625l-5.015625 -1.1875q-4.109375 -0.96875 -6.109375 -3.0q-1.984375 -2.03125 -1.984375 -5.21875q0 -2.578125 1.453125 -4.5625q1.453125 -1.984375 3.96875 -3.09375q2.53125 -1.125 5.734375 -1.125q3.109375 0 5.28125 0.9375q2.171875 0.921875 3.53125 2.546875q1.359375 1.625 2.03125 3.765625l-4.390625 1.125q-0.625 -1.609375 -2.0625 -2.921875q-1.4375 -1.328125 -4.359375 -1.328125q-2.6875 0 -4.484375 1.234375q-1.796875 1.234375 -1.796875 3.125q0 1.671875 1.203125 2.6875q1.21875 1.015625 3.875 1.625l4.546875 1.078125q4.09375 0.96875 6.0625 3.015625q1.96875 2.03125 1.96875 5.125q0 2.65625 -1.5 4.71875q-1.484375 2.0625 -4.171875 3.25q-2.6875 1.171875 -6.21875 1.171875zm31.58374 0q-4.375 0 -7.546875 -1.9375q-3.15625 -1.9375 -4.875 -5.40625q-1.71875 -3.484375 -1.71875 -8.125q0 -4.640625 1.671875 -8.171875q1.671875 -3.53125 4.734375 -5.515625q3.0625 -2.0 7.15625 -2.0q2.40625 0 4.734375 0.796875q2.34375 0.78125 4.234375 2.546875q1.90625 1.765625 3.03125 4.65625q1.140625 2.890625 1.140625 7.0625l0 2.03125l-23.40625 0l0 -4.109375l20.78125 0l-2.265625 1.515625q0 -2.96875 -0.9375 -5.265625q-0.921875 -2.3125 -2.75 -3.609375q-1.828125 -1.3125 -4.5625 -1.3125q-2.71875 0 -4.65625 1.34375q-1.9375 1.328125 -2.96875 3.46875q-1.015625 2.140625 -1.015625 4.59375l0 2.71875q0 3.34375 1.15625 5.6875q1.15625 2.328125 3.234375 3.53125q2.09375 1.1875 4.84375 1.1875q1.78125 0 3.234375 -0.5q1.46875 -0.515625 2.515625 -1.546875q1.046875 -1.046875 1.609375 -2.578125l4.703125 1.28125q-0.703125 2.265625 -2.375 4.0q-1.671875 1.71875 -4.140625 2.6875q-2.46875 0.96875 -5.5625 0.96875zm19.521118 -0.640625l0 -30.140625l4.6875 0l0 4.640625l0.328125 0q0.828125 -2.296875 2.96875 -3.6875q2.140625 -1.390625 4.84375 -1.390625q0.546875 0 1.28125 0.03125q0.734375 0.03125 1.171875 0.046875l0 4.890625q-0.21875 -0.0625 -1.078125 -0.171875q-0.859375 -0.109375 -1.828125 -0.109375q-2.15625 0 -3.875 0.90625q-1.71875 0.90625 -2.6875 2.484375q-0.96875 1.578125 -0.96875 3.625l0 18.875l-4.84375 0zm30.354126 0l-11.515625 -30.140625l5.3125 0l6.421875 17.875q1.015625 2.78125 1.734375 5.546875q0.71875 2.75 1.5 5.34375l-1.78125 0q0.78125 -2.59375 1.484375 -5.34375q0.71875 -2.765625 1.71875 -5.546875l6.421875 -17.875l5.3125 0l-11.515625 30.140625l-5.09375 0zm30.498169 0.703125q-2.859375 0 -5.203125 -1.078125q-2.328125 -1.078125 -3.703125 -3.15625q-1.375 -2.078125 -1.375 -5.046875q0 -2.578125 1.015625 -4.1875q1.03125 -1.625 2.75 -2.5625q1.71875 -0.9375 3.78125 -1.390625q2.078125 -0.453125 4.1875 -0.71875q2.6875 -0.359375 4.390625 -0.546875q1.703125 -0.1875 2.515625 -0.640625q0.828125 -0.46875 0.828125 -1.5625l0 -0.171875q0 -1.890625 -0.703125 -3.1875q-0.703125 -1.3125 -2.109375 -2.015625q-1.390625 -0.703125 -3.5 -0.703125q-2.15625 0 -3.6875 0.6875q-1.53125 0.671875 -2.5 1.6875q-0.953125 1.0 -1.4375 2.046875l-4.65625 -1.53125q1.15625 -2.75 3.125 -4.296875q1.96875 -1.5625 4.328125 -2.203125q2.375 -0.640625 4.703125 -0.640625q1.5 0 3.421875 0.359375q1.9375 0.359375 3.734375 1.4375q1.796875 1.078125 2.96875 3.203125q1.171875 2.109375 1.171875 5.640625l0 19.875l-4.78125 0l0 -4.09375l-0.3125 0q-0.515625 1.046875 -1.65625 2.171875q-1.125 1.109375 -2.9375 1.875q-1.796875 0.75 -4.359375 0.75zm0.828125 -4.296875q2.703125 0 4.5625 -1.046875q1.859375 -1.046875 2.828125 -2.734375q0.96875 -1.6875 0.96875 -3.515625l0 -4.1875q-0.296875 0.359375 -1.296875 0.640625q-0.984375 0.28125 -2.265625 0.5q-1.28125 0.21875 -2.484375 0.375q-1.203125 0.140625 -1.90625 0.21875q-1.75 0.21875 -3.28125 0.75q-1.515625 0.515625 -2.4375 1.53125q-0.90625 1.0 -0.90625 2.734375q0 1.5625 0.796875 2.609375q0.8125 1.046875 2.21875 1.59375q1.40625 0.53125 3.203125 0.53125zm35.725464 4.234375q-2.859375 0 -4.609375 -0.984375q-1.75 -0.984375 -2.703125 -2.234375q-0.9375 -1.25 -1.453125 -2.09375l-0.53125 0l0 4.671875l-4.6875 0l0 -40.171875l4.84375 0l0 14.859375l0.375 0q0.515625 -0.8125 1.4375 -2.03125q0.921875 -1.234375 2.640625 -2.203125q1.71875 -0.96875 4.65625 -0.96875q3.78125 0 6.65625 1.890625q2.875 1.875 4.5 5.375q1.625 3.484375 1.625 8.265625q0 4.796875 -1.625 8.296875q-1.609375 3.5 -4.484375 5.421875q-2.859375 1.90625 -6.640625 1.90625zm-0.71875 -4.328125q2.828125 0 4.71875 -1.515625q1.90625 -1.53125 2.859375 -4.109375q0.96875 -2.578125 0.96875 -5.734375q0 -3.125 -0.953125 -5.640625q-0.9375 -2.53125 -2.84375 -4.015625q-1.890625 -1.484375 -4.75 -1.484375q-2.78125 0 -4.671875 1.40625q-1.890625 1.40625 -2.84375 3.90625q-0.953125 2.484375 -0.953125 5.828125q0 3.34375 0.96875 5.90625q0.96875 2.5625 2.859375 4.015625q1.90625 1.4375 4.640625 1.4375zm20.545044 3.6875l0 -30.140625l4.84375 0l0 30.140625l-4.84375 0zm2.4375 -35.078125q-1.375 0 -2.375 -0.9375q-0.984375 -0.953125 -0.984375 -2.265625q0 -1.359375 0.984375 -2.28125q1.0 -0.9375 2.375 -0.9375q1.40625 0 2.40625 0.9375q1.0 0.921875 1.0 2.28125q0 1.3125 -1.0 2.265625q-1.0 0.9375 -2.40625 0.9375zm15.779541 -5.09375l0 40.171875l-4.84375 0l0 -40.171875l4.84375 0zm8.529541 40.171875l0 -30.140625l4.84375 0l0 30.140625l-4.84375 0zm2.4375 -35.078125q-1.375 0 -2.375 -0.9375q-0.984375 -0.953125 -0.984375 -2.265625q0 -1.359375 0.984375 -2.28125q1.0 -0.9375 2.375 -0.9375q1.40625 0 2.40625 0.9375q1.0 0.921875 1.0 2.28125q0 1.3125 -1.0 2.265625q-1.0 0.9375 -2.40625 0.9375zm22.795166 4.9375l0 4.15625l-15.578125 0l0 -4.15625l15.578125 0zm-11.0625 -7.171875l4.859375 0l0 29.5q0 2.015625 0.8125 2.953125q0.828125 0.921875 2.75 0.921875q0.453125 0 1.171875 -0.109375q0.71875 -0.109375 1.3125 -0.21875l0.984375 4.109375q-0.75 0.265625 -1.703125 0.390625q-0.953125 0.140625 -1.90625 0.140625q-3.90625 0 -6.09375 -2.0625q-2.1875 -2.0625 -2.1875 -5.75l0 -29.875zm17.862183 48.234375l1.234375 -4.203125l0.515625 0.125q1.484375 0.375 2.6875 0.203125q1.21875 -0.171875 2.1875 -1.203125q0.96875 -1.015625 1.703125 -3.171875l0.859375 -2.515625l-11.515625 -30.296875l5.3125 0l6.421875 17.875q1.015625 2.796875 1.71875 5.546875q0.703125 2.75 1.484375 5.34375l-1.78125 0q0.78125 -2.59375 1.5 -5.34375q0.71875 -2.765625 1.71875 -5.546875l6.46875 -17.875l5.28125 0l-13.234375 34.640625q-0.921875 2.40625 -2.203125 3.953125q-1.28125 1.546875 -2.984375 2.28125q-1.6875 0.75 -3.828125 0.75q-1.28125 0 -2.234375 -0.1875q-0.9375 -0.1875 -1.3125 -0.375z" fill-rule="nonzero"/><path fill="#000000" fill-opacity="0.0" d="m437.09323 711.6888l1355.244 0l0 156.56696l-1355.244 0z" fill-rule="evenodd"/><path fill="#eff0f0" d="m1114.7196 804.2595q-4.484375 0 -7.640625 -2.421875q-3.15625 -2.4375 -4.828125 -7.03125q-1.65625 -4.609375 -1.65625 -11.15625q0 -6.515625 1.671875 -11.125q1.6875 -4.625 4.84375 -7.078125q3.15625 -2.453125 7.609375 -2.453125q4.4375 0 7.609375 2.453125q3.171875 2.453125 4.84375 7.078125q1.671875 4.609375 1.671875 11.125q0 6.53125 -1.65625 11.140625q-1.65625 4.609375 -4.8125 7.046875q-3.15625 2.421875 -7.65625 2.421875zm0 -4.484375q2.9375 0 4.984375 -1.90625q2.046875 -1.921875 3.125 -5.515625q1.078125 -3.609375 1.078125 -8.703125q0 -5.125 -1.078125 -8.75q-1.078125 -3.625 -3.125 -5.53125q-2.046875 -1.921875 -4.984375 -1.921875q-2.9375 0 -5.0 1.9375q-2.046875 1.921875 -3.125 5.53125q-1.078125 3.609375 -1.078125 8.734375q0 5.09375 1.078125 8.703125q1.078125 3.59375 3.125 5.515625q2.0625 1.90625 5.0 1.90625z" fill-rule="nonzero"/><path fill="#000000" fill-opacity="0.0" d="m544.4329 535.9215l187.1181 0l0 156.56696l-187.1181 0z" fill-rule="evenodd"/><path fill="#eff0f0" d="m644.3716 587.77356l0 40.171875l-5.046875 0l0 -35.421875l-0.265625 0l-9.703125 7.1875l0 -5.5l8.734375 -6.4375l6.28125 0z" fill-rule="nonzero"/><path fill="#000000" fill-opacity="0.0" d="m544.4329 377.77298l187.1181 0l0 156.56693l-187.1181 0z" fill-rule="evenodd"/><path fill="#eff0f0" d="m625.3103 469.79684l0 -3.6875l13.34375 -14.484375q2.234375 -2.421875 3.71875 -4.25q1.484375 -1.84375 2.234375 -3.5q0.765625 -1.65625 0.765625 -3.515625q0 -2.109375 -1.0 -3.640625q-1.0 -1.546875 -2.703125 -2.359375q-1.703125 -0.828125 -3.859375 -0.828125q-2.28125 0 -3.96875 0.9375q-1.6875 0.921875 -2.609375 2.609375q-0.90625 1.6875 -0.90625 3.953125l-4.90625 0q0 -3.5625 1.640625 -6.25q1.640625 -2.703125 4.46875 -4.203125q2.84375 -1.5 6.421875 -1.5q3.59375 0 6.34375 1.5q2.765625 1.5 4.34375 4.03125q1.578125 2.53125 1.578125 5.6875q0 2.1875 -0.78125 4.25q-0.78125 2.0625 -2.75 4.6875q-1.96875 2.609375 -5.53125 6.375l-8.78125 9.359375l0 0.328125l18.515625 0l0 4.5l-25.578125 0z" fill-rule="nonzero"/><path fill="#000000" fill-opacity="0.0" d="m544.4329 224.65831l187.1181 0l0 156.56694l-187.1181 0z" fill-rule="evenodd"/><path fill="#eff0f0" d="m638.06335 317.22906q-3.9375 0 -6.984375 -1.34375q-3.046875 -1.359375 -4.84375 -3.75q-1.796875 -2.40625 -1.921875 -5.59375l5.171875 0q0.15625 1.921875 1.296875 3.3125q1.15625 1.375 3.03125 2.125q1.875 0.734375 4.171875 0.734375q2.53125 0 4.484375 -0.875q1.953125 -0.875 3.078125 -2.453125q1.140625 -1.59375 1.140625 -3.671875q0 -2.1875 -1.09375 -3.84375q-1.09375 -1.65625 -3.171875 -2.59375q-2.078125 -0.953125 -5.0625 -0.953125l-3.265625 0l0 -4.453125l3.265625 0q2.34375 0 4.140625 -0.84375q1.796875 -0.859375 2.78125 -2.390625q1.0 -1.53125 1.0 -3.609375q0 -2.0 -0.875 -3.484375q-0.875 -1.484375 -2.5 -2.296875q-1.609375 -0.828125 -3.796875 -0.828125q-2.046875 0 -3.84375 0.75q-1.78125 0.734375 -2.9375 2.109375q-1.140625 1.375 -1.21875 3.34375l-4.9375 0q0.109375 -3.15625 1.890625 -5.546875q1.78125 -2.40625 4.703125 -3.75q2.921875 -1.359375 6.453125 -1.359375q3.75 0 6.453125 1.515625q2.71875 1.515625 4.171875 3.96875q1.453125 2.453125 1.453125 5.3125q0 3.390625 -1.796875 5.765625q-1.78125 2.375 -4.859375 3.28125l0 0.328125q2.5625 0.40625 4.375 1.734375q1.828125 1.3125 2.78125 3.34375q0.953125 2.015625 0.953125 4.546875q0 3.296875 -1.78125 5.890625q-1.765625 2.578125 -4.875 4.078125q-3.09375 1.5 -7.03125 1.5z" fill-rule="nonzero"/><path fill="#000000" fill-opacity="0.0" d="m1013.4254 224.65831l187.11816 0l0 156.56694l-187.11816 0z" fill-rule="evenodd"/><path fill="#eff0f0" d="m1107.0558 317.22906q-3.9375 0 -6.984375 -1.34375q-3.046875 -1.359375 -4.84375 -3.75q-1.796875 -2.40625 -1.921875 -5.59375l5.171875 0q0.15625 1.921875 1.296875 3.3125q1.15625 1.375 3.03125 2.125q1.875 0.734375 4.171875 0.734375q2.53125 0 4.484375 -0.875q1.953125 -0.875 3.078125 -2.453125q1.140625 -1.59375 1.140625 -3.671875q0 -2.1875 -1.09375 -3.84375q-1.09375 -1.65625 -3.171875 -2.59375q-2.078125 -0.953125 -5.0625 -0.953125l-3.265625 0l0 -4.453125l3.265625 0q2.34375 0 4.140625 -0.84375q1.796875 -0.859375 2.78125 -2.390625q1.0 -1.53125 1.0 -3.609375q0 -2.0 -0.875 -3.484375q-0.875 -1.484375 -2.5 -2.296875q-1.609375 -0.828125 -3.796875 -0.828125q-2.046875 0 -3.84375 0.75q-1.78125 0.734375 -2.9375 2.109375q-1.140625 1.375 -1.21875 3.34375l-4.9375 0q0.109375 -3.15625 1.890625 -5.546875q1.78125 -2.40625 4.703125 -3.75q2.921875 -1.359375 6.453125 -1.359375q3.75 0 6.453125 1.515625q2.71875 1.515625 4.171875 3.96875q1.453125 2.453125 1.453125 5.3125q0 3.390625 -1.796875 5.765625q-1.78125 2.375 -4.859375 3.28125l0 0.328125q2.5625 0.40625 4.375 1.734375q1.828125 1.3125 2.78125 3.34375q0.953125 2.015625 0.953125 4.546875q0 3.296875 -1.78125 5.890625q-1.765625 2.578125 -4.875 4.078125q-3.09375 1.5 -7.03125 1.5z" fill-rule="nonzero"/><path fill="#000000" fill-opacity="0.0" d="m1013.4254 377.77298l187.11816 0l0 156.56693l-187.11816 0z" fill-rule="evenodd"/><path fill="#eff0f0" d="m1094.3027 469.79684l0 -3.6875l13.34375 -14.484375q2.234375 -2.421875 3.71875 -4.25q1.484375 -1.84375 2.234375 -3.5q0.765625 -1.65625 0.765625 -3.515625q0 -2.109375 -1.0 -3.640625q-1.0 -1.546875 -2.703125 -2.359375q-1.703125 -0.828125 -3.859375 -0.828125q-2.28125 0 -3.96875 0.9375q-1.6875 0.921875 -2.609375 2.609375q-0.90625 1.6875 -0.90625 3.953125l-4.90625 0q0 -3.5625 1.640625 -6.25q1.640625 -2.703125 4.46875 -4.203125q2.84375 -1.5 6.421875 -1.5q3.59375 0 6.34375 1.5q2.765625 1.5 4.34375 4.03125q1.578125 2.53125 1.578125 5.6875q0 2.1875 -0.78125 4.25q-0.78125 2.0625 -2.75 4.6875q-1.96875 2.609375 -5.53125 6.375l-8.78125 9.359375l0 0.328125l18.515625 0l0 4.5l-25.578125 0z" fill-rule="nonzero"/><path fill="#000000" fill-opacity="0.0" d="m1013.4254 533.4046l187.11816 0l0 156.5669l-187.11816 0z" fill-rule="evenodd"/><path fill="#eff0f0" d="m1113.364 585.2566l0 40.171875l-5.046875 0l0 -35.421875l-0.265625 0l-9.703125 7.1875l0 -5.5l8.734375 -6.4375l6.28125 0z" fill-rule="nonzero"/><path fill="#000000" fill-opacity="0.0" d="m1489.9688 533.4046l187.11816 0l0 156.5669l-187.11816 0z" fill-rule="evenodd"/><path fill="#eff0f0" d="m1589.9075 585.2566l0 40.171875l-5.046875 0l0 -35.421875l-0.265625 0l-9.703125 7.1875l0 -5.5l8.734375 -6.4375l6.28125 0z" fill-rule="nonzero"/><path fill="#000000" fill-opacity="0.0" d="m1489.9688 377.77298l187.11816 0l0 156.56693l-187.11816 0z" fill-rule="evenodd"/><path fill="#eff0f0" d="m1570.8462 469.79684l0 -3.6875l13.34375 -14.484375q2.234375 -2.421875 3.71875 -4.25q1.484375 -1.84375 2.234375 -3.5q0.765625 -1.65625 0.765625 -3.515625q0 -2.109375 -1.0 -3.640625q-1.0 -1.546875 -2.703125 -2.359375q-1.703125 -0.828125 -3.859375 -0.828125q-2.28125 0 -3.96875 0.9375q-1.6875 0.921875 -2.609375 2.609375q-0.90625 1.6875 -0.90625 3.953125l-4.90625 0q0 -3.5625 1.640625 -6.25q1.640625 -2.703125 4.46875 -4.203125q2.84375 -1.5 6.421875 -1.5q3.59375 0 6.34375 1.5q2.765625 1.5 4.34375 4.03125q1.578125 2.53125 1.578125 5.6875q0 2.1875 -0.78125 4.25q-0.78125 2.0625 -2.75 4.6875q-1.96875 2.609375 -5.53125 6.375l-8.78125 9.359375l0 0.328125l18.515625 0l0 4.5l-25.578125 0z" fill-rule="nonzero"/><path fill="#000000" fill-opacity="0.0" d="m1489.9688 225.0778l187.11816 0l0 156.56691l-187.11816 0z" fill-rule="evenodd"/><path fill="#eff0f0" d="m1583.5992 317.64856q-3.9375 0 -6.984375 -1.34375q-3.046875 -1.359375 -4.84375 -3.75q-1.796875 -2.40625 -1.921875 -5.59375l5.171875 0q0.15625 1.921875 1.296875 3.3125q1.15625 1.375 3.03125 2.125q1.875 0.734375 4.171875 0.734375q2.53125 0 4.484375 -0.875q1.953125 -0.875 3.078125 -2.453125q1.140625 -1.59375 1.140625 -3.671875q0 -2.1875 -1.09375 -3.84375q-1.09375 -1.65625 -3.171875 -2.59375q-2.078125 -0.953125 -5.0625 -0.953125l-3.265625 0l0 -4.453125l3.265625 0q2.34375 0 4.140625 -0.84375q1.796875 -0.859375 2.78125 -2.390625q1.0 -1.53125 1.0 -3.609375q0 -2.0 -0.875 -3.484375q-0.875 -1.484375 -2.5 -2.296875q-1.609375 -0.828125 -3.796875 -0.828125q-2.046875 0 -3.84375 0.75q-1.78125 0.734375 -2.9375 2.109375q-1.140625 1.375 -1.21875 3.34375l-4.9375 0q0.109375 -3.15625 1.890625 -5.546875q1.78125 -2.40625 4.703125 -3.75q2.921875 -1.359375 6.453125 -1.359375q3.75 0 6.453125 1.515625q2.71875 1.515625 4.171875 3.96875q1.453125 2.453125 1.453125 5.3125q0 3.390625 -1.796875 5.765625q-1.78125 2.375 -4.859375 3.28125l0 0.328125q2.5625 0.40625 4.375 1.734375q1.828125 1.3125 2.78125 3.34375q0.953125 2.015625 0.953125 4.546875q0 3.296875 -1.78125 5.890625q-1.765625 2.578125 -4.875 4.078125q-3.09375 1.5 -7.03125 1.5z" fill-rule="nonzero"/></g></svg>