<svg width="37" height="37" viewBox="0 0 37 37" fill="none" xmlns="http://www.w3.org/2000/svg">
<path fill-rule="evenodd" clip-rule="evenodd" d="M18.5008 7.73063e-08C22.1073 0.000329566 25.6351 1.05471 28.6503 3.03345C31.6654 5.01219 34.0364 7.829 35.4717 11.1374C36.907 14.4459 37.344 18.1017 36.7289 21.6552C36.1138 25.2087 34.4735 28.5049 32.0097 31.1385C29.5458 33.7721 26.366 35.6282 22.8611 36.4785C19.3563 37.3287 15.6794 37.1361 12.2826 35.9243C8.88575 34.7125 5.9172 32.5344 3.74202 29.6578C1.56685 26.7812 0.279902 23.3316 0.0394685 19.7333H0V17.2667H0.0394685C0.352369 12.5838 2.43348 8.19491 5.86129 4.98893C9.28909 1.78296 13.8073 -0.000428718 18.5008 7.73063e-08V7.73063e-08ZM24.6481 19.7333H12.3536C12.6348 28.1496 15.7405 34.5333 18.5008 34.5333C21.2612 34.5333 24.3668 28.1496 24.6481 19.7333ZM9.88685 19.7333H2.51365C2.76 22.9152 3.94963 25.9513 5.93048 28.4537C7.91133 30.956 10.5934 32.8108 13.6339 33.781C11.5075 30.6681 10.0645 25.5719 9.88438 19.7358L9.88685 19.7333ZM34.488 19.7333H27.1148C26.9372 25.5719 25.4942 30.6681 23.3678 33.7835C26.4085 32.8128 29.0906 30.9575 31.0715 28.4548C33.0523 25.9521 34.2418 22.9155 34.488 19.7333ZM13.6339 3.21653L13.5352 3.2486C10.5176 4.23368 7.86001 6.09158 5.89858 8.58728C3.93714 11.083 2.76002 14.1043 2.51611 17.2691H9.88932C10.0669 11.4305 11.51 6.33193 13.6364 3.21653H13.6339ZM18.5008 2.46667C15.7405 2.46667 12.6348 8.8504 12.3536 17.2667H24.6481C24.3767 9.08227 21.4289 2.8194 18.7278 2.48147L18.5008 2.46667ZM23.3678 3.219L23.4517 3.34233C25.5312 6.4676 26.9397 11.507 27.1148 17.2667H34.4905C34.2438 14.0842 33.0534 11.0476 31.0716 8.54524C29.0899 6.04286 26.4067 4.1884 23.3653 3.219H23.3678Z" fill="#6E7575"/>
</svg>
