<svg xmlns="http://www.w3.org/2000/svg" xmlns:xlink="http://www.w3.org/1999/xlink" xmlns:lucid="lucid" width="660" height="380"><g transform="translate(-320 -50)" lucid:page-tab-id="0_0"><path d="M340 86a6 6 0 0 1 6-6h288a6 6 0 0 1 6 6v68a6 6 0 0 1-6 6H346a6 6 0 0 1-6-6z" stroke="#4a5c5c" stroke-width="3" fill="#1ce783"/><use xlink:href="#a" transform="matrix(1,0,0,1,345,85) translate(83.05555555555557 44.986111111111114)"/><use xlink:href="#b" transform="matrix(1,0,0,1,345,85) translate(183.92222222222222 44.986111111111114)"/><path d="M340 206a6 6 0 0 1 6-6h288a6 6 0 0 1 6 6v68a6 6 0 0 1-6 6H346a6 6 0 0 1-6-6z" stroke="#4a5c5c" stroke-width="3" fill="#1ce783"/><use xlink:href="#a" transform="matrix(1,0,0,1,345,205) translate(81.02222222222224 44.986111111111114)"/><use xlink:href="#c" transform="matrix(1,0,0,1,345,205) translate(181.88888888888889 44.986111111111114)"/><path d="M340 326a6 6 0 0 1 6-6h288a6 6 0 0 1 6 6v68a6 6 0 0 1-6 6H346a6 6 0 0 1-6-6z" stroke="#4a5c5c" stroke-width="3" fill="#1ce783"/><use xlink:href="#a" transform="matrix(1,0,0,1,345,325) translate(81.02222222222224 44.986111111111114)"/><use xlink:href="#c" transform="matrix(1,0,0,1,345,325) translate(181.88888888888889 44.986111111111114)"/><path d="M960 120c0 27.6-22.4 50-50 50s-50-22.4-50-50 22.4-50 50-50 50 22.4 50 50z" stroke="#4a5c5c" stroke-width="3" fill="#1dcad3"/><use xlink:href="#d" transform="matrix(1,0,0,1,865,75) translate(16 48.15)"/><use xlink:href="#e" transform="matrix(1,0,0,1,865,75) translate(64 48.15)"/><path d="M960 240c0 27.6-22.4 50-50 50s-50-22.4-50-50 22.4-50 50-50 50 22.4 50 50z" stroke="#4a5c5c" stroke-width="3" fill="#1dcad3"/><use xlink:href="#d" transform="matrix(1,0,0,1,865,195) translate(16 48.15)"/><use xlink:href="#f" transform="matrix(1,0,0,1,865,195) translate(64 48.15)"/><path d="M960 360c0 27.6-22.4 50-50 50s-50-22.4-50-50 22.4-50 50-50 50 22.4 50 50z" stroke="#4a5c5c" stroke-width="3" fill="#1dcad3"/><use xlink:href="#d" transform="matrix(1,0,0,1,865,315) translate(16 48.15)"/><use xlink:href="#g" transform="matrix(1,0,0,1,865,315) translate(64 48.15)"/><path d="M710.58 121.5h-67.6v-3h67.6zm127.3 0h-48.5v-3h48.5z" stroke="#969a9d" stroke-width=".05" fill="#969a9d"/><path d="M643 121.5h-1.53v-3H643z" fill="#969a9d"/><path d="M643.03 121.53h-1.6v-3.06h1.6zm-1.54-3v2.94h1.48v-2.94z" stroke="#969a9d" stroke-width=".05" fill="#969a9d"/><path d="M853.64 120l-14.26 4.64v-9.28z" fill="#969a9d"/><path d="M858.5 120l-20.62 6.7v-13.4zm-17.62 2.57l7.9-2.57-7.9-2.57z" stroke="#969a9d" stroke-width=".05" fill="#969a9d"/><use xlink:href="#h" transform="matrix(1,0,0,1,710.5829233688161,109.2) translate(0 14.4)"/><path d="M642.97 240h194.9" stroke="#969a9d" stroke-width="3" stroke-linejoin="round" fill="none"/><path d="M643 241.5h-1.53v-3H643z" stroke="#969a9d" stroke-width=".05" fill="#969a9d"/><path d="M853.64 240l-14.26 4.64v-9.28z" stroke="#969a9d" stroke-width="3" fill="#969a9d"/><path d="M642.97 360h194.9" stroke="#969a9d" stroke-width="3" stroke-linejoin="round" fill="none"/><path d="M643 361.5h-1.53v-3H643z" stroke="#969a9d" stroke-width=".05" fill="#969a9d"/><path d="M853.64 360l-14.26 4.64v-9.28z" stroke="#969a9d" stroke-width="3" fill="#969a9d"/><defs><path fill="#29384d" d="M133-359c0 170 94 285 227 285 93 0 160-54 186-145l91 30C595-65 497 11 360 11 174 11 37-140 37-359s137-370 323-370c137 0 235 76 277 200l-91 30c-26-91-93-145-186-145-133 0-227 115-227 285" id="i"/><path fill="#29384d" d="M525-261C525-99 425 11 282 11S39-99 39-261s100-272 243-272 243 110 243 272zm-395 0c0 119 60 195 152 195s152-76 152-195c0-120-60-196-152-196s-152 76-152 196" id="j"/><path fill="#29384d" d="M75 0v-523h90v71c30-43 82-81 156-81 111 0 174 77 174 188V0h-90v-321c0-73-31-128-109-128-65 0-131 50-131 137V0H75" id="k"/><path fill="#29384d" d="M267 11C122 11 39-113 39-261c0-149 83-272 228-272 73 0 131 35 162 86v-271h90V0h-90v-76c-31 52-89 87-162 87zm164-253c0-137-63-212-148-212-98 0-153 80-153 193 0 112 55 193 153 193 74 0 148-54 148-174" id="l"/><path fill="#29384d" d="M71-614v-104h98v104H71zm94 91V0H75v-523h90" id="m"/><path fill="#29384d" d="M89-125v-321H8v-77h81v-153h89v153h119v77H178v307c-5 78 70 68 130 59v77C198 17 89 8 89-125" id="n"/><g id="a"><use transform="matrix(0.022222222222222223,0,0,0.022222222222222223,0,0)" xlink:href="#i"/><use transform="matrix(0.022222222222222223,0,0,0.022222222222222223,14.644444444444446,0)" xlink:href="#j"/><use transform="matrix(0.022222222222222223,0,0,0.022222222222222223,27.177777777777777,0)" xlink:href="#k"/><use transform="matrix(0.022222222222222223,0,0,0.022222222222222223,39.71111111111111,0)" xlink:href="#l"/><use transform="matrix(0.022222222222222223,0,0,0.022222222222222223,52.88888888888888,0)" xlink:href="#m"/><use transform="matrix(0.022222222222222223,0,0,0.022222222222222223,58.22222222222222,0)" xlink:href="#n"/><use transform="matrix(0.022222222222222223,0,0,0.022222222222222223,65.77777777777777,0)" xlink:href="#m"/><use transform="matrix(0.022222222222222223,0,0,0.022222222222222223,71.1111111111111,0)" xlink:href="#j"/><use transform="matrix(0.022222222222222223,0,0,0.022222222222222223,83.64444444444443,0)" xlink:href="#k"/></g><path fill="#29384d" d="M82 0l49-207H35v-73h113l38-158H71v-73h132l49-207h83l-50 207h162l50-207h81l-49 207h97v73H512l-38 158h116v73H457L408 0h-83l50-207H213L163 0H82zm148-280h162l38-158H268" id="o"/><path fill="#29384d" d="M220-722h72V0h-96v-528H23v-71l77-5c85-6 113-35 120-118" id="p"/><g id="b"><use transform="matrix(0.022222222222222223,0,0,0.022222222222222223,0,0)" xlink:href="#o"/><use transform="matrix(0.022222222222222223,0,0,0.022222222222222223,14.666666666666668,0)" xlink:href="#p"/></g><path fill="#29384d" d="M34-79l212-176c98-81 174-150 174-244 0-88-57-148-145-148-115-2-176 119-129 226H56c-61-162 61-309 221-308 145 0 237 92 237 224 0 122-84 206-187 289L165-84h363V0H34v-79" id="q"/><g id="c"><use transform="matrix(0.022222222222222223,0,0,0.022222222222222223,0,0)" xlink:href="#o"/><use transform="matrix(0.022222222222222223,0,0,0.022222222222222223,14.666666666666668,0)" xlink:href="#q"/></g><path fill="#29384d" d="M33 0v-248h34V0H33" id="r"/><path fill="#29384d" d="M135-143c-3-34-86-38-87 0 15 53 115 12 119 90S17 21 10-45l28-5c4 36 97 45 98 0-10-56-113-15-118-90-4-57 82-63 122-42 12 7 21 19 24 35" id="s"/><path fill="#29384d" d="M84 4C-5 8 30-112 23-190h32v120c0 31 7 50 39 49 72-2 45-101 50-169h31l1 190h-30c-1-10 1-25-2-33-11 22-28 36-60 37" id="t"/><path fill="#29384d" d="M100-194c63 0 86 42 84 106H49c0 40 14 67 53 68 26 1 43-12 49-29l28 8c-11 28-37 45-77 45C44 4 14-33 15-96c1-61 26-98 85-98zm52 81c6-60-76-77-97-28-3 7-6 17-6 28h103" id="u"/><g id="d"><use transform="matrix(0.05,0,0,0.05,0,0)" xlink:href="#r"/><use transform="matrix(0.05,0,0,0.05,5,0)" xlink:href="#s"/><use transform="matrix(0.05,0,0,0.05,14,0)" xlink:href="#s"/><use transform="matrix(0.05,0,0,0.05,23,0)" xlink:href="#t"/><use transform="matrix(0.05,0,0,0.05,33,0)" xlink:href="#u"/></g><path fill="#29384d" d="M27 0v-27h64v-190l-56 39v-29l58-41h29v221h61V0H27" id="v"/><use transform="matrix(0.05,0,0,0.05,0,0)" xlink:href="#v" id="e"/><path fill="#29384d" d="M101-251c82-7 93 87 43 132L82-64C71-53 59-42 53-27h129V0H18c2-99 128-94 128-182 0-28-16-43-45-43s-46 15-49 41l-32-3c6-41 34-60 81-64" id="w"/><use transform="matrix(0.05,0,0,0.05,0,0)" xlink:href="#w" id="f"/><path fill="#29384d" d="M126-127c33 6 58 20 58 59 0 88-139 92-164 29-3-8-5-16-6-25l32-3c6 27 21 44 54 44 32 0 52-15 52-46 0-38-36-46-79-43v-28c39 1 72-4 72-42 0-27-17-43-46-43-28 0-47 15-49 41l-32-3c6-42 35-63 81-64 48-1 79 21 79 65 0 36-21 52-52 59" id="x"/><use transform="matrix(0.05,0,0,0.05,0,0)" xlink:href="#x" id="g"/><path fill="#29384d" d="M24 0v-248h52V0H24" id="y"/><path fill="#29384d" d="M135-194c87-1 58 113 63 194h-50c-7-57 23-157-34-157-59 0-34 97-39 157H25l-1-190h47c2 12-1 28 3 38 12-26 28-41 61-42" id="z"/><path fill="#29384d" d="M190-63c-7 42-38 67-86 67-59 0-84-38-90-98-12-110 154-137 174-36l-49 2c-2-19-15-32-35-32-30 0-35 28-38 64-6 74 65 87 74 30" id="A"/><path fill="#29384d" d="M25-224v-37h50v37H25zM25 0v-190h50V0H25" id="B"/><path fill="#29384d" d="M88-194c31-1 46 15 58 34l-1-101h50l1 261h-48c-2-10 0-23-3-31C134-8 116 4 84 4 32 4 16-41 15-95c0-56 19-97 73-99zm17 164c33 0 40-30 41-66 1-37-9-64-41-64s-38 30-39 65c0 43 13 65 39 65" id="C"/><path fill="#29384d" d="M185-48c-13 30-37 53-82 52C43 2 14-33 14-96s30-98 90-98c62 0 83 45 84 108H66c0 31 8 55 39 56 18 0 30-7 34-22zm-45-69c5-46-57-63-70-21-2 6-4 13-4 21h74" id="D"/><path fill="#29384d" d="M115-3C79 11 28 4 28-45v-112H4v-33h27l15-45h31v45h36v33H77v99c-1 23 16 31 38 25v30" id="E"/><path fill="#29384d" d="M137-138c1-29-70-34-71-4 15 46 118 7 119 86 1 83-164 76-172 9l43-7c4 19 20 25 44 25 33 8 57-30 24-41C81-84 22-81 20-136c-2-80 154-74 161-7" id="F"/><g id="h"><use transform="matrix(0.05,0,0,0.05,0,0)" xlink:href="#y"/><use transform="matrix(0.05,0,0,0.05,5,0)" xlink:href="#z"/><use transform="matrix(0.05,0,0,0.05,15.950000000000001,0)" xlink:href="#A"/><use transform="matrix(0.05,0,0,0.05,25.950000000000003,0)" xlink:href="#B"/><use transform="matrix(0.05,0,0,0.05,30.950000000000003,0)" xlink:href="#C"/><use transform="matrix(0.05,0,0,0.05,41.900000000000006,0)" xlink:href="#D"/><use transform="matrix(0.05,0,0,0.05,51.900000000000006,0)" xlink:href="#z"/><use transform="matrix(0.05,0,0,0.05,62.85,0)" xlink:href="#E"/><use transform="matrix(0.05,0,0,0.05,68.80000000000001,0)" xlink:href="#F"/></g></defs></g></svg>