<svg xmlns="http://www.w3.org/2000/svg" xmlns:xlink="http://www.w3.org/1999/xlink" xmlns:lucid="lucid" width="780" height="360"><g transform="translate(-320 -60)" lucid:page-tab-id="0_0"><path d="M1080 250c0 60.75-49.25 110-110 110s-110-49.25-110-110 49.25-110 110-110 110 49.25 110 110z" stroke="#4a5c5c" stroke-width="3" fill="#1dcad3"/><use xlink:href="#a" transform="matrix(1,0,0,1,865,145) translate(73.71111111111111 114.98611111111111)"/><path d="M340 86a6 6 0 0 1 6-6h288a6 6 0 0 1 6 6v68a6 6 0 0 1-6 6H346a6 6 0 0 1-6-6z" stroke="#4a5c5c" stroke-width="3" fill="#1ce783"/><use xlink:href="#b" transform="matrix(1,0,0,1,345,85) translate(83.05555555555557 44.986111111111114)"/><use xlink:href="#c" transform="matrix(1,0,0,1,345,85) translate(183.92222222222222 44.986111111111114)"/><path d="M340 206a6 6 0 0 1 6-6h288a6 6 0 0 1 6 6v68a6 6 0 0 1-6 6H346a6 6 0 0 1-6-6z" stroke="#4a5c5c" stroke-width="3" fill="#1ce783"/><use xlink:href="#b" transform="matrix(1,0,0,1,345,205) translate(81.02222222222224 44.986111111111114)"/><use xlink:href="#d" transform="matrix(1,0,0,1,345,205) translate(181.88888888888889 44.986111111111114)"/><path d="M340 326a6 6 0 0 1 6-6h288a6 6 0 0 1 6 6v68a6 6 0 0 1-6 6H346a6 6 0 0 1-6-6z" stroke="#4a5c5c" stroke-width="3" fill="#1ce783"/><use xlink:href="#b" transform="matrix(1,0,0,1,345,325) translate(81.02222222222224 44.986111111111114)"/><use xlink:href="#d" transform="matrix(1,0,0,1,345,325) translate(181.88888888888889 44.986111111111114)"/><path d="M794.73 156.3l59 30.96-1.4 2.66L793.38 159l-9.9-4.68h7zm-136.7-37.46l14.66.92 13.32 1.4 12.4 1.82 11.83 2.26 11.54 2.7 11.58 3.24.63.2h-11v.02l-1.95-.55-11.42-2.68-11.7-2.23-12.28-1.8-13.2-1.4-14.55-.9-14.96-.3.06-3z" stroke="#969a9d" stroke-width=".05" fill="#969a9d"/><path d="M643.04 118.53l-.07 3-1.5-.03v-3z" fill="#969a9d"/><path d="M643.06 118.5l-.06 3.06-1.56-.04v-3.05zm-1.57 2.98l1.45.03.06-2.94-1.5-.03z" stroke="#969a9d" stroke-width=".05" fill="#969a9d"/><path d="M866.98 195.92l-14.78-2.53 4.3-8.22z" fill="#969a9d"/><path d="M871.28 198.17l-21.37-3.65 6.23-11.86zm-16.8-5.9l8.2 1.4-5.8-5.96z" stroke="#969a9d" stroke-width=".05" fill="#969a9d"/><use xlink:href="#e" transform="matrix(1,0,0,1,723.0086608649609,131.38510326798388) translate(0 18.72)"/><path d="M643 260.16l174.26 2.7 21.15-1.33" stroke="#969a9d" stroke-width="3" stroke-linejoin="round" fill="none"/><path d="M643.05 258.66l-.05 3-1.5-.03-.02-3z" stroke="#969a9d" stroke-width=".05" fill="#969a9d"/><path d="M854.14 260.43l-13.9 5.62-.66-9.25z" stroke="#969a9d" stroke-width="3" fill="#969a9d"/><path d="M642.97 360l91.2-.13 17.87-1.1 13.83-1.45 11.8-1.73 10.62-2.03 9.87-2.32 9.45-2.64 9.23-3 9.18-3.4 9.27-3.9 9.52-4.48 9.93-5.2 6.45-3.72" stroke="#969a9d" stroke-width="3" stroke-linejoin="round" fill="none"/><path d="M643 361.5h-1.53v-3H643z" stroke="#969a9d" stroke-width=".05" fill="#969a9d"/><path d="M874.56 316.54l-9.64 11.5-4.9-7.86z" stroke="#969a9d" stroke-width="3" fill="#969a9d"/><defs><path fill="#29384d" d="M175-718V0H79v-718h96" id="f"/><path fill="#29384d" d="M17-111l70-51c28 61 92 98 160 98 61 0 115-26 115-83s-50-65-136-83c-86-19-176-38-176-145 0-93 81-158 192-158 94 0 171 46 202 108l-64 51c-27-52-76-85-142-85-60 0-100 30-100 77 0 49 46 58 119 74 90 21 193 39 193 153 0 100-91 166-203 166-95 0-190-41-230-122" id="g"/><path fill="#29384d" d="M490-523V0h-90v-72c-30 44-81 83-155 83C133 11 70-66 70-177v-346h90v327c0 74 32 124 109 124 65 0 131-49 131-136v-315h90" id="h"/><path fill="#29384d" d="M284 11C139 11 39-100 39-261c0-156 99-272 241-272 156 2 231 122 223 286H125c5 110 68 180 159 180 70 0 120-38 136-100l79 28C467-46 388 11 284 11zm-5-467c-76 0-133 51-149 140h282c-2-74-42-140-133-140" id="i"/><g id="a"><use transform="matrix(0.022222222222222223,0,0,0.022222222222222223,0,0)" xlink:href="#f"/><use transform="matrix(0.022222222222222223,0,0,0.022222222222222223,5.644444444444445,0)" xlink:href="#g"/><use transform="matrix(0.022222222222222223,0,0,0.022222222222222223,16.444444444444446,0)" xlink:href="#g"/><use transform="matrix(0.022222222222222223,0,0,0.022222222222222223,27.244444444444447,0)" xlink:href="#h"/><use transform="matrix(0.022222222222222223,0,0,0.022222222222222223,39.77777777777778,0)" xlink:href="#i"/><use transform="matrix(0.022222222222222223,0,0,0.022222222222222223,51.77777777777778,0)" xlink:href="#g"/></g><path fill="#29384d" d="M133-359c0 170 94 285 227 285 93 0 160-54 186-145l91 30C595-65 497 11 360 11 174 11 37-140 37-359s137-370 323-370c137 0 235 76 277 200l-91 30c-26-91-93-145-186-145-133 0-227 115-227 285" id="j"/><path fill="#29384d" d="M525-261C525-99 425 11 282 11S39-99 39-261s100-272 243-272 243 110 243 272zm-395 0c0 119 60 195 152 195s152-76 152-195c0-120-60-196-152-196s-152 76-152 196" id="k"/><path fill="#29384d" d="M75 0v-523h90v71c30-43 82-81 156-81 111 0 174 77 174 188V0h-90v-321c0-73-31-128-109-128-65 0-131 50-131 137V0H75" id="l"/><path fill="#29384d" d="M267 11C122 11 39-113 39-261c0-149 83-272 228-272 73 0 131 35 162 86v-271h90V0h-90v-76c-31 52-89 87-162 87zm164-253c0-137-63-212-148-212-98 0-153 80-153 193 0 112 55 193 153 193 74 0 148-54 148-174" id="m"/><path fill="#29384d" d="M71-614v-104h98v104H71zm94 91V0H75v-523h90" id="n"/><path fill="#29384d" d="M89-125v-321H8v-77h81v-153h89v153h119v77H178v307c-5 78 70 68 130 59v77C198 17 89 8 89-125" id="o"/><g id="b"><use transform="matrix(0.022222222222222223,0,0,0.022222222222222223,0,0)" xlink:href="#j"/><use transform="matrix(0.022222222222222223,0,0,0.022222222222222223,14.644444444444446,0)" xlink:href="#k"/><use transform="matrix(0.022222222222222223,0,0,0.022222222222222223,27.177777777777777,0)" xlink:href="#l"/><use transform="matrix(0.022222222222222223,0,0,0.022222222222222223,39.71111111111111,0)" xlink:href="#m"/><use transform="matrix(0.022222222222222223,0,0,0.022222222222222223,52.88888888888888,0)" xlink:href="#n"/><use transform="matrix(0.022222222222222223,0,0,0.022222222222222223,58.22222222222222,0)" xlink:href="#o"/><use transform="matrix(0.022222222222222223,0,0,0.022222222222222223,65.77777777777777,0)" xlink:href="#n"/><use transform="matrix(0.022222222222222223,0,0,0.022222222222222223,71.1111111111111,0)" xlink:href="#k"/><use transform="matrix(0.022222222222222223,0,0,0.022222222222222223,83.64444444444443,0)" xlink:href="#l"/></g><path fill="#29384d" d="M82 0l49-207H35v-73h113l38-158H71v-73h132l49-207h83l-50 207h162l50-207h81l-49 207h97v73H512l-38 158h116v73H457L408 0h-83l50-207H213L163 0H82zm148-280h162l38-158H268" id="p"/><path fill="#29384d" d="M220-722h72V0h-96v-528H23v-71l77-5c85-6 113-35 120-118" id="q"/><g id="c"><use transform="matrix(0.022222222222222223,0,0,0.022222222222222223,0,0)" xlink:href="#p"/><use transform="matrix(0.022222222222222223,0,0,0.022222222222222223,14.666666666666668,0)" xlink:href="#q"/></g><path fill="#29384d" d="M34-79l212-176c98-81 174-150 174-244 0-88-57-148-145-148-115-2-176 119-129 226H56c-61-162 61-309 221-308 145 0 237 92 237 224 0 122-84 206-187 289L165-84h363V0H34v-79" id="r"/><g id="d"><use transform="matrix(0.022222222222222223,0,0,0.022222222222222223,0,0)" xlink:href="#p"/><use transform="matrix(0.022222222222222223,0,0,0.022222222222222223,14.666666666666668,0)" xlink:href="#r"/></g><path fill="#29384d" d="M224-718V0H57v-718h167" id="s"/><path fill="#29384d" d="M52 0v-527h160v53c29-34 78-64 145-64 108 0 176 75 176 190V0H373v-302c0-53-22-92-74-92-44 0-87 31-87 93V0H52" id="t"/><path fill="#29384d" d="M181-263c0 89 42 142 109 142 52 0 83-37 94-87l139 54C501-66 418 11 289 11 133 11 23-101 23-263c0-163 110-275 266-275 128 0 210 76 233 163l-138 56c-11-49-42-87-94-87-67 0-109 53-109 143" id="u"/><path fill="#29384d" d="M51-581v-137h163v137H51zm161 54V0H52v-527h160" id="v"/><path fill="#29384d" d="M251 11C106 11 24-113 24-263c0-151 82-275 227-275 63 0 113 26 143 64v-244h160V0H394v-52c-30 37-80 63-143 63zm144-260c0-93-34-154-103-152-70 0-107 57-107 138s37 138 107 138c60 0 103-45 103-124" id="w"/><path fill="#29384d" d="M290 11C131 11 23-100 23-264c0-156 112-274 264-274 174 3 259 132 247 309H177c11 72 54 113 115 113 50 0 89-24 104-70l134 43C491-42 395 11 290 11zm-5-425c-49 0-87 29-103 87h194c-1-47-32-87-91-87" id="x"/><path fill="#29384d" d="M70-141v-254H3v-132h67v-146h158v146h103v132H228v213c-5 62 59 53 109 49V-2c-28 4-58 7-96 7C127 5 70-33 70-141" id="y"/><path fill="#29384d" d="M4-77l83-108c43 47 111 75 168 75 42 0 77-14 77-42 0-35-35-39-119-54-87-17-180-40-180-154 0-107 95-178 225-178 95 0 179 36 223 84l-80 103c-40-42-92-65-144-65-39 0-64 15-64 39 0 29 31 33 95 45 95 19 201 42 201 161C489 45 114 56 4-77" id="z"/><g id="e"><use transform="matrix(0.018,0,0,0.018,0,0)" xlink:href="#s"/><use transform="matrix(0.018,0,0,0.018,5.058,0)" xlink:href="#t"/><use transform="matrix(0.018,0,0,0.018,15.552,0)" xlink:href="#u"/><use transform="matrix(0.018,0,0,0.018,25.11,0)" xlink:href="#v"/><use transform="matrix(0.018,0,0,0.018,29.88,0)" xlink:href="#w"/><use transform="matrix(0.018,0,0,0.018,40.788,0)" xlink:href="#x"/><use transform="matrix(0.018,0,0,0.018,50.777999999999984,0)" xlink:href="#t"/><use transform="matrix(0.018,0,0,0.018,61.272,0)" xlink:href="#y"/><use transform="matrix(0.018,0,0,0.018,67.77,0)" xlink:href="#z"/></g></defs></g></svg>