<svg xmlns="http://www.w3.org/2000/svg" xmlns:xlink="http://www.w3.org/1999/xlink" xmlns:lucid="lucid" width="780" height="940"><g transform="translate(-320 0)" lucid:page-tab-id="0_0"><path d="M340 106a6 6 0 0 1 6-6h288a6 6 0 0 1 6 6v68a6 6 0 0 1-6 6H346a6 6 0 0 1-6-6z" stroke="#4a5c5c" stroke-width="3" fill="#1ce783"/><use xlink:href="#a" transform="matrix(1,0,0,1,345,105) translate(83.05555555555557 44.986111111111114)"/><use xlink:href="#b" transform="matrix(1,0,0,1,345,105) translate(183.92222222222222 44.986111111111114)"/><path d="M960 70c0 27.6-22.4 50-50 50s-50-22.4-50-50 22.4-50 50-50 50 22.4 50 50z" stroke="#4a5c5c" stroke-width="3" fill="#1dcad3"/><use xlink:href="#c" transform="matrix(1,0,0,1,865,25) translate(16 48.15)"/><use xlink:href="#d" transform="matrix(1,0,0,1,865,25) translate(64 48.15)"/><path d="M1080 90c0 27.6-22.4 50-50 50s-50-22.4-50-50 22.4-50 50-50 50 22.4 50 50z" stroke="#4a5c5c" stroke-width="3" fill="#1dcad3"/><use xlink:href="#c" transform="matrix(1,0,0,1,985,45) translate(16 48.15)"/><use xlink:href="#e" transform="matrix(1,0,0,1,985,45) translate(64 48.15)"/><path d="M1000 190c0 27.6-22.4 50-50 50s-50-22.4-50-50 22.4-50 50-50 50 22.4 50 50z" stroke="#4a5c5c" stroke-width="3" fill="#1dcad3"/><use xlink:href="#c" transform="matrix(1,0,0,1,905,145) translate(16 48.15)"/><use xlink:href="#f" transform="matrix(1,0,0,1,905,145) translate(64 48.15)"/><path d="M340 406a6 6 0 0 1 6-6h288a6 6 0 0 1 6 6v68a6 6 0 0 1-6 6H346a6 6 0 0 1-6-6z" stroke="#4a5c5c" stroke-width="3" fill="#1ce783"/><use xlink:href="#g" transform="matrix(1,0,0,1,345,405) translate(83.05555555555557 44.986111111111114)"/><use xlink:href="#h" transform="matrix(1,0,0,1,345,405) translate(183.92222222222222 44.986111111111114)"/><path d="M960 370c0 27.6-22.4 50-50 50s-50-22.4-50-50 22.4-50 50-50 50 22.4 50 50z" stroke="#4a5c5c" stroke-width="3" fill="#1dcad3"/><use xlink:href="#i" transform="matrix(1,0,0,1,865,325) translate(16 48.15)"/><use xlink:href="#j" transform="matrix(1,0,0,1,865,325) translate(64 48.15)"/><path d="M1080 390c0 27.6-22.4 50-50 50s-50-22.4-50-50 22.4-50 50-50 50 22.4 50 50z" stroke="#4a5c5c" stroke-width="3" fill="#1dcad3"/><use xlink:href="#i" transform="matrix(1,0,0,1,985,345) translate(16 48.15)"/><use xlink:href="#k" transform="matrix(1,0,0,1,985,345) translate(64 48.15)"/><path d="M1000 490c0 27.6-22.4 50-50 50s-50-22.4-50-50 22.4-50 50-50 50 22.4 50 50z" stroke="#4a5c5c" stroke-width="3" fill="#1dcad3"/><use xlink:href="#i" transform="matrix(1,0,0,1,905,445) translate(16 48.15)"/><use xlink:href="#l" transform="matrix(1,0,0,1,905,445) translate(64 48.15)"/><path d="M340 766a6 6 0 0 1 6-6h288a6 6 0 0 1 6 6v68a6 6 0 0 1-6 6H346a6 6 0 0 1-6-6z" stroke="#4a5c5c" stroke-width="3" fill="#1ce783"/><use xlink:href="#g" transform="matrix(1,0,0,1,345,765) translate(83.05555555555557 44.986111111111114)"/><use xlink:href="#h" transform="matrix(1,0,0,1,345,765) translate(183.92222222222222 44.986111111111114)"/><path d="M940 730c0 27.6-22.4 50-50 50s-50-22.4-50-50 22.4-50 50-50 50 22.4 50 50z" stroke="#4a5c5c" stroke-width="3" fill="#1dcad3"/><use xlink:href="#i" transform="matrix(1,0,0,1,845,685) translate(16 48.15)"/><use xlink:href="#m" transform="matrix(1,0,0,1,845,685) translate(64 48.15)"/><path d="M1060 750c0 27.6-22.4 50-50 50s-50-22.4-50-50 22.4-50 50-50 50 22.4 50 50z" stroke="#4a5c5c" stroke-width="3" fill="#1dcad3"/><use xlink:href="#i" transform="matrix(1,0,0,1,965,705) translate(16 48.15)"/><use xlink:href="#n" transform="matrix(1,0,0,1,965,705) translate(64 48.15)"/><path d="M980 870c0 27.6-22.4 50-50 50s-50-22.4-50-50 22.4-50 50-50 50 22.4 50 50z" stroke="#4a5c5c" stroke-width="3" fill="#1dcad3"/><use xlink:href="#i" transform="matrix(1,0,0,1,885,825) translate(16 48.15)"/><use xlink:href="#o" transform="matrix(1,0,0,1,885,825) translate(64 48.15)"/><path d="M642.97 800.03l18.56.4 22.84 1.45 29.94 3.2 101.26 13.6 15.75 1 12.73.28 11-.23 9.86-.62 9.1-.94 8.55-1.26 8.16-1.56 7.9-1.85 7.7-2.16 7.6-2.47 7.58-2.82 7.6-3.2 7.7-3.6 7.84-4.1 6.44-3.73" stroke="#969a9d" stroke-width="3" stroke-linejoin="round" fill="none"/><path d="M643.04 798.53l-.07 3-1.5-.03v-3z" stroke="#969a9d" stroke-width=".05" fill="#969a9d"/><path d="M964.25 782.8l-9.4 11.68-5.08-7.76z" stroke="#969a9d" stroke-width="3" fill="#969a9d"/><path d="M642.97 799.97l6.73-.14 7.42-.46 6.76-.7 6.25-.93 5.82-1.1 5.5-1.3 5.28-1.47 5.1-1.66 5.02-1.86 5.02-2.1 5.15-2.44 5.45-2.85 6.1-3.52 7.73-4.92 35.1-23.93 6.1-3.52 5.44-2.85 5.15-2.43 5-2.1 5.03-1.88 5.1-1.67 5.27-1.47 5.5-1.3 5.84-1.1 6.24-.92 1.84-.2" stroke="#969a9d" stroke-width="3" stroke-linejoin="round" fill="none"/><path d="M643.04 801.47l-1.57.03v-3l1.5-.03z" stroke="#969a9d" stroke-width=".05" fill="#969a9d"/><path d="M833.65 730.27l-13.98 5.42-.52-9.26z" stroke="#969a9d" stroke-width="3" fill="#969a9d"/><path d="M643 820.03l14.58.3 13.6.85L683 822.4l10.58 1.57 9.74 1.86 9.27 2.17 9.2 2.58 9.83 3.2 12.35 4.6 44.38 17.85 9.82 3.2 9.2 2.57 9.28 2.17 9.74 1.86 10.58 1.56 11.83 1.22 9.1.57" stroke="#969a9d" stroke-width="3" stroke-linejoin="round" fill="none"/><path d="M643.06 818.53l-.06 3-1.5-.03-.02-3z" stroke="#969a9d" stroke-width=".05" fill="#969a9d"/><path d="M873.65 869.86l-14.4 4.2.27-9.26z" stroke="#969a9d" stroke-width="3" fill="#969a9d"/><path d="M642.95 419.97l12.1-.25 11.62-.72 10.2-1.07 9.18-1.35 8.43-1.6 7.98-1.88 7.8-2.18 7.96-2.6 8.8-3.27 12.25-5.18 33.65-14.92 8.8-3.28 7.97-2.6 7.78-2.17 7.98-1.87 8.44-1.6 9.16-1.36 10.2-1.07 4.64-.3" stroke="#969a9d" stroke-width="3" stroke-linejoin="round" fill="none"/><path d="M643 421.47l-1.56.03v-3l1.5-.03z" stroke="#969a9d" stroke-width=".05" fill="#969a9d"/><path d="M853.65 370.17l-14.1 5.13-.32-9.27z" stroke="#969a9d" stroke-width="3" fill="#969a9d"/><path d="M642.97 440.03l51.8 1.17 116.72 4.95 22.87-.46 18.65-1.17 16.6-1.74 15.54-2.3 15.05-2.87 14.96-3.5 15.2-4.25 15.73-5.12 16.63-6.2.93-.38" stroke="#969a9d" stroke-width="3" stroke-linejoin="round" fill="none"/><path d="M643.04 438.54l-.07 3-1.5-.04v-3z" stroke="#969a9d" stroke-width=".05" fill="#969a9d"/><path d="M978.17 412.03l-11.33 9.83-3.6-8.54z" stroke="#969a9d" stroke-width="3" fill="#969a9d"/><path d="M643 460.03l7.08.15 8.56.54 8.6.9 8.8 1.3 9.1 1.74 9.66 2.27 10.6 2.96 12.3 4 16.6 6.2 60.77 24.58 10.38 3.4 8.6 2.4 7.58 1.78 6.95 1.32 6.52.97 6.23.65 6.05.38 5.93.13 5.9-.1 5.87-.38 5.94-.63 6.05-.9 4.64-.9" stroke="#969a9d" stroke-width="3" stroke-linejoin="round" fill="none"/><path d="M643.06 458.53l-.07 3-1.5-.03-.02-3z" stroke="#969a9d" stroke-width=".05" fill="#969a9d"/><path d="M896.9 508.73l-12.58 8.17-2.4-8.95z" stroke="#969a9d" stroke-width="3" fill="#969a9d"/><path d="M727.58 106.45l-8.87 3.3-8 2.6-7.86 2.2-8.04 1.9-8.5 1.6-9.24 1.37-10.26 1.07-11.7.72-12.12.25-.07-3 12.08-.25 11.57-.72 10.14-1.06 9.1-1.34 8.37-1.6 7.92-1.85 7.72-2.16 7.9-2.58 2.72-1h8.42zm110.4-34.24l-4.6.3-10.13 1.06-9.1 1.34-8.38 1.6-7.92 1.85-7.73 2.16-7.9 2.58-3.28 1.23h-8.27l1.68-.74 8.88-3.3 8.02-2.62 7.86-2.2 8.04-1.88 8.5-1.62 9.24-1.36 10.26-1.07 4.66-.28z" stroke="#969a9d" stroke-width=".05" fill="#969a9d"/><path d="M643 121.47l-1.56.03v-3l1.5-.03z" fill="#969a9d"/><path d="M643.04 121.5l-1.62.03v-3.05l1.56-.04zm-1.57-2.98v2.95l1.52-.03-.07-2.95z" stroke="#969a9d" stroke-width=".05" fill="#969a9d"/><path d="M853.65 70.17l-14.1 5.13-.32-9.27z" fill="#969a9d"/><path d="M858.5 70l-20.38 7.4-.46-13.38zm-17.52 3.18l7.82-2.84-8-2.3z" stroke="#969a9d" stroke-width=".05" fill="#969a9d"/><g><use xlink:href="#p" transform="matrix(1,0,0,1,710.6182791954486,84.30604741401409) translate(0 14.4)"/></g><path d="M964.38 119.88l-.86.36-16.62 6.2-15.74 5.1-15.2 4.25-14.95 3.5-15.03 2.87-15.54 2.3-16.58 1.73-18.58 1.16-22.73.45-118.86-5.13-50.75-1.14.07-3 50.78 1.14 118.8 5.14 22.56-.44 18.46-1.15 16.46-1.72 15.4-2.27 14.93-2.84 14.82-3.48 15.07-4.2 15.6-5.1 16.52-6.13.8-.34z" stroke="#969a9d" stroke-width=".05" fill="#969a9d"/><path d="M643.04 138.53l-.07 3-1.5-.03v-3z" fill="#969a9d"/><path d="M643.06 138.5l-.06 3.06-1.56-.04v-3.05zm-1.57 2.98l1.45.03.06-2.94-1.5-.03z" stroke="#969a9d" stroke-width=".05" fill="#969a9d"/><path d="M967 122.18l-3.63-8.54 14.95-1.3z" fill="#969a9d"/><path d="M966.4 124.67l-5.2-12.34 21.6-1.88zm-.84-9.7l2 4.72 6.3-5.46z" stroke="#969a9d" stroke-width=".05" fill="#969a9d"/><path d="M643 160.03l5.9.13 7.44.46 7.5.8 7.67 1.12 7.9 1.5 8.3 1.96 8.86 2.48 9.76 3.17 11.32 4.22 14.73 6.22 65.25 30.12 9.28 3.46 7.7 2.5 6.73 1.9 6.1 1.42 5.68 1.1 5.36.78 5.12.54 4.94.3 4.83.1 4.75-.1 4.72-.3 4.7-.48 4.75-.7 4.8-.92 4.9-1.15 2.56-.7" stroke="#969a9d" stroke-width="3" stroke-linejoin="round" fill="none"/><path d="M643.06 158.53l-.07 3-1.5-.03-.02-3z" stroke="#969a9d" stroke-width=".05" fill="#969a9d"/><path d="M899.32 214.57l-11.8 9.24-3.2-8.7z" stroke="#969a9d" stroke-width="3" fill="#969a9d"/><defs><path fill="#29384d" d="M133-359c0 170 94 285 227 285 93 0 160-54 186-145l91 30C595-65 497 11 360 11 174 11 37-140 37-359s137-370 323-370c137 0 235 76 277 200l-91 30c-26-91-93-145-186-145-133 0-227 115-227 285" id="q"/><path fill="#29384d" d="M525-261C525-99 425 11 282 11S39-99 39-261s100-272 243-272 243 110 243 272zm-395 0c0 119 60 195 152 195s152-76 152-195c0-120-60-196-152-196s-152 76-152 196" id="r"/><path fill="#29384d" d="M75 0v-523h90v71c30-43 82-81 156-81 111 0 174 77 174 188V0h-90v-321c0-73-31-128-109-128-65 0-131 50-131 137V0H75" id="s"/><path fill="#29384d" d="M267 11C122 11 39-113 39-261c0-149 83-272 228-272 73 0 131 35 162 86v-271h90V0h-90v-76c-31 52-89 87-162 87zm164-253c0-137-63-212-148-212-98 0-153 80-153 193 0 112 55 193 153 193 74 0 148-54 148-174" id="t"/><path fill="#29384d" d="M71-614v-104h98v104H71zm94 91V0H75v-523h90" id="u"/><path fill="#29384d" d="M89-125v-321H8v-77h81v-153h89v153h119v77H178v307c-5 78 70 68 130 59v77C198 17 89 8 89-125" id="v"/><g id="a"><use transform="matrix(0.022222222222222223,0,0,0.022222222222222223,0,0)" xlink:href="#q"/><use transform="matrix(0.022222222222222223,0,0,0.022222222222222223,14.644444444444446,0)" xlink:href="#r"/><use transform="matrix(0.022222222222222223,0,0,0.022222222222222223,27.177777777777777,0)" xlink:href="#s"/><use transform="matrix(0.022222222222222223,0,0,0.022222222222222223,39.71111111111111,0)" xlink:href="#t"/><use transform="matrix(0.022222222222222223,0,0,0.022222222222222223,52.88888888888888,0)" xlink:href="#u"/><use transform="matrix(0.022222222222222223,0,0,0.022222222222222223,58.22222222222222,0)" xlink:href="#v"/><use transform="matrix(0.022222222222222223,0,0,0.022222222222222223,65.77777777777777,0)" xlink:href="#u"/><use transform="matrix(0.022222222222222223,0,0,0.022222222222222223,71.1111111111111,0)" xlink:href="#r"/><use transform="matrix(0.022222222222222223,0,0,0.022222222222222223,83.64444444444443,0)" xlink:href="#s"/></g><path fill="#29384d" d="M82 0l49-207H35v-73h113l38-158H71v-73h132l49-207h83l-50 207h162l50-207h81l-49 207h97v73H512l-38 158h116v73H457L408 0h-83l50-207H213L163 0H82zm148-280h162l38-158H268" id="w"/><path fill="#29384d" d="M220-722h72V0h-96v-528H23v-71l77-5c85-6 113-35 120-118" id="x"/><g id="b"><use transform="matrix(0.022222222222222223,0,0,0.022222222222222223,0,0)" xlink:href="#w"/><use transform="matrix(0.022222222222222223,0,0,0.022222222222222223,14.666666666666668,0)" xlink:href="#x"/></g><path fill="#29384d" d="M33 0v-248h34V0H33" id="y"/><path fill="#29384d" d="M135-143c-3-34-86-38-87 0 15 53 115 12 119 90S17 21 10-45l28-5c4 36 97 45 98 0-10-56-113-15-118-90-4-57 82-63 122-42 12 7 21 19 24 35" id="z"/><path fill="#29384d" d="M84 4C-5 8 30-112 23-190h32v120c0 31 7 50 39 49 72-2 45-101 50-169h31l1 190h-30c-1-10 1-25-2-33-11 22-28 36-60 37" id="A"/><path fill="#29384d" d="M100-194c63 0 86 42 84 106H49c0 40 14 67 53 68 26 1 43-12 49-29l28 8c-11 28-37 45-77 45C44 4 14-33 15-96c1-61 26-98 85-98zm52 81c6-60-76-77-97-28-3 7-6 17-6 28h103" id="B"/><g id="c"><use transform="matrix(0.05,0,0,0.05,0,0)" xlink:href="#y"/><use transform="matrix(0.05,0,0,0.05,5,0)" xlink:href="#z"/><use transform="matrix(0.05,0,0,0.05,14,0)" xlink:href="#z"/><use transform="matrix(0.05,0,0,0.05,23,0)" xlink:href="#A"/><use transform="matrix(0.05,0,0,0.05,33,0)" xlink:href="#B"/></g><path fill="#29384d" d="M27 0v-27h64v-190l-56 39v-29l58-41h29v221h61V0H27" id="C"/><use transform="matrix(0.05,0,0,0.05,0,0)" xlink:href="#C" id="d"/><path fill="#29384d" d="M101-251c82-7 93 87 43 132L82-64C71-53 59-42 53-27h129V0H18c2-99 128-94 128-182 0-28-16-43-45-43s-46 15-49 41l-32-3c6-41 34-60 81-64" id="D"/><use transform="matrix(0.05,0,0,0.05,0,0)" xlink:href="#D" id="e"/><path fill="#29384d" d="M126-127c33 6 58 20 58 59 0 88-139 92-164 29-3-8-5-16-6-25l32-3c6 27 21 44 54 44 32 0 52-15 52-46 0-38-36-46-79-43v-28c39 1 72-4 72-42 0-27-17-43-46-43-28 0-47 15-49 41l-32-3c6-42 35-63 81-64 48-1 79 21 79 65 0 36-21 52-52 59" id="E"/><use transform="matrix(0.05,0,0,0.05,0,0)" xlink:href="#E" id="f"/><g id="g"><use transform="matrix(0.022222222222222223,0,0,0.022222222222222223,0,0)" xlink:href="#q"/><use transform="matrix(0.022222222222222223,0,0,0.022222222222222223,14.644444444444446,0)" xlink:href="#r"/><use transform="matrix(0.022222222222222223,0,0,0.022222222222222223,27.177777777777777,0)" xlink:href="#s"/><use transform="matrix(0.022222222222222223,0,0,0.022222222222222223,39.71111111111111,0)" xlink:href="#t"/><use transform="matrix(0.022222222222222223,0,0,0.022222222222222223,52.88888888888888,0)" xlink:href="#u"/><use transform="matrix(0.022222222222222223,0,0,0.022222222222222223,58.22222222222222,0)" xlink:href="#v"/><use transform="matrix(0.022222222222222223,0,0,0.022222222222222223,65.77777777777777,0)" xlink:href="#u"/><use transform="matrix(0.022222222222222223,0,0,0.022222222222222223,71.1111111111111,0)" xlink:href="#r"/><use transform="matrix(0.022222222222222223,0,0,0.022222222222222223,83.64444444444443,0)" xlink:href="#s"/></g><g id="h"><use transform="matrix(0.022222222222222223,0,0,0.022222222222222223,0,0)" xlink:href="#w"/><use transform="matrix(0.022222222222222223,0,0,0.022222222222222223,14.666666666666668,0)" xlink:href="#x"/></g><g id="i"><use transform="matrix(0.05,0,0,0.05,0,0)" xlink:href="#y"/><use transform="matrix(0.05,0,0,0.05,5,0)" xlink:href="#z"/><use transform="matrix(0.05,0,0,0.05,14,0)" xlink:href="#z"/><use transform="matrix(0.05,0,0,0.05,23,0)" xlink:href="#A"/><use transform="matrix(0.05,0,0,0.05,33,0)" xlink:href="#B"/></g><path fill="#29384d" d="M155-56V0h-30v-56H8v-25l114-167h33v167h35v25h-35zm-30-156c-27 46-58 90-88 131h88v-131" id="F"/><use transform="matrix(0.05,0,0,0.05,0,0)" xlink:href="#F" id="j"/><path fill="#29384d" d="M54-142c48-35 137-8 131 61C196 18 31 33 14-55l32-4c7 23 22 37 52 37 35-1 51-22 54-58 4-55-73-65-99-34H22l8-134h141v27H59" id="G"/><use transform="matrix(0.05,0,0,0.05,0,0)" xlink:href="#G" id="k"/><path fill="#29384d" d="M110-160c48 1 74 30 74 79 0 53-28 85-80 85-65 0-83-55-86-122-5-90 50-162 133-122 14 7 22 21 27 39l-31 6c-5-40-67-38-82-6-9 19-15 44-15 74 11-20 30-34 60-33zm-7 138c34 0 49-23 49-58s-16-56-50-56c-29 0-50 16-49 49 1 36 15 65 50 65" id="H"/><use transform="matrix(0.05,0,0,0.05,0,0)" xlink:href="#H" id="l"/><path fill="#29384d" d="M64 0c3-98 48-159 88-221H18v-27h164v26C143-157 98-101 97 0H64" id="I"/><use transform="matrix(0.05,0,0,0.05,0,0)" xlink:href="#I" id="m"/><path fill="#29384d" d="M134-131c28 9 52 24 51 62-1 50-34 73-85 73S17-19 16-69c0-36 21-54 49-61-75-25-45-126 34-121 46 3 78 18 79 63 0 33-17 51-44 57zm-34-11c31 1 46-15 46-44 0-28-17-43-47-42-29 0-46 13-45 42 1 28 16 44 46 44zm1 122c35 0 51-18 51-52 0-30-18-46-53-46-33 0-51 17-51 47 0 34 19 51 53 51" id="J"/><use transform="matrix(0.05,0,0,0.05,0,0)" xlink:href="#J" id="n"/><path fill="#29384d" d="M99-251c64 0 84 50 84 122C183-37 130 33 47-8c-14-7-20-23-25-40l30-5c6 39 69 39 84 7 9-19 16-44 16-74-10 22-31 35-62 35-49 0-73-33-73-83 0-54 28-83 82-83zm-1 141c31-1 51-18 51-49 0-36-14-67-51-67-34 0-49 23-49 58 0 34 15 58 49 58" id="K"/><use transform="matrix(0.05,0,0,0.05,0,0)" xlink:href="#K" id="o"/><path fill="#29384d" d="M24 0v-248h52V0H24" id="L"/><path fill="#29384d" d="M135-194c87-1 58 113 63 194h-50c-7-57 23-157-34-157-59 0-34 97-39 157H25l-1-190h47c2 12-1 28 3 38 12-26 28-41 61-42" id="M"/><path fill="#29384d" d="M190-63c-7 42-38 67-86 67-59 0-84-38-90-98-12-110 154-137 174-36l-49 2c-2-19-15-32-35-32-30 0-35 28-38 64-6 74 65 87 74 30" id="N"/><path fill="#29384d" d="M25-224v-37h50v37H25zM25 0v-190h50V0H25" id="O"/><path fill="#29384d" d="M88-194c31-1 46 15 58 34l-1-101h50l1 261h-48c-2-10 0-23-3-31C134-8 116 4 84 4 32 4 16-41 15-95c0-56 19-97 73-99zm17 164c33 0 40-30 41-66 1-37-9-64-41-64s-38 30-39 65c0 43 13 65 39 65" id="P"/><path fill="#29384d" d="M185-48c-13 30-37 53-82 52C43 2 14-33 14-96s30-98 90-98c62 0 83 45 84 108H66c0 31 8 55 39 56 18 0 30-7 34-22zm-45-69c5-46-57-63-70-21-2 6-4 13-4 21h74" id="Q"/><path fill="#29384d" d="M115-3C79 11 28 4 28-45v-112H4v-33h27l15-45h31v45h36v33H77v99c-1 23 16 31 38 25v30" id="R"/><path fill="#29384d" d="M137-138c1-29-70-34-71-4 15 46 118 7 119 86 1 83-164 76-172 9l43-7c4 19 20 25 44 25 33 8 57-30 24-41C81-84 22-81 20-136c-2-80 154-74 161-7" id="S"/><g id="p"><use transform="matrix(0.05,0,0,0.05,0,0)" xlink:href="#L"/><use transform="matrix(0.05,0,0,0.05,5,0)" xlink:href="#M"/><use transform="matrix(0.05,0,0,0.05,15.950000000000001,0)" xlink:href="#N"/><use transform="matrix(0.05,0,0,0.05,25.950000000000003,0)" xlink:href="#O"/><use transform="matrix(0.05,0,0,0.05,30.950000000000003,0)" xlink:href="#P"/><use transform="matrix(0.05,0,0,0.05,41.900000000000006,0)" xlink:href="#Q"/><use transform="matrix(0.05,0,0,0.05,51.900000000000006,0)" xlink:href="#M"/><use transform="matrix(0.05,0,0,0.05,62.85,0)" xlink:href="#R"/><use transform="matrix(0.05,0,0,0.05,68.80000000000001,0)" xlink:href="#S"/></g></defs></g></svg>