<?xml version="1.0" encoding="UTF-8"?>
<svg viewBox="0 0 1091 383" version="1.1" xmlns="http://www.w3.org/2000/svg" xmlns:xlink="http://www.w3.org/1999/xlink">
    <title>Untitled 4</title>
    <g id="Page-1" stroke="none" stroke-width="1" fill="none" fill-rule="evenodd">
        <g id="banner-foreground--LG" fill-rule="nonzero">
            <polygon id="Path" fill="#006C75" points="495 0 535 0 535 40 495 40"></polygon>
            <path d="M0,383 L0,0 L496,0 L496,40 L575,40 L575,117 L615,117 L615,153 L655,153 L655,224 L695,224 L695,383 L0,383 Z M1051,303 L1051,383 L971,383 L971,343 L1011,343 L1011,303 L1051,303 Z" id="Combined-Shape" fill="#00484E"></path>
            <polygon id="Path" fill="#006C75" points="615 120 655 120 655 160 615 160"></polygon>
            <polygon id="Path" fill="#006C75" points="1051 343 1091 343 1091 383 1051 383"></polygon>
            <polygon id="Path" fill="#006C75" points="655 200 695 200 695 240 655 240"></polygon>
            <polygon id="Path" fill="#006C75" points="575 80 615 80 615 120 575 120"></polygon>
            <polygon id="Path" fill="#008C99" points="535 0 575 0 575 40 535 40"></polygon>
            <polygon id="Path" fill="#008C99" points="1051 303 1091 303 1091 343 1051 343"></polygon>
        </g>
    </g>
</svg>