<svg width="37" height="39" viewBox="0 0 37 39" fill="none" xmlns="http://www.w3.org/2000/svg">
<path fill-rule="evenodd" clip-rule="evenodd" d="M18.5 0L37 9.75V29.25L18.5 39L0 29.25V9.75L18.5 0ZM18.5 2.68125L2.46667 11.2125V27.7875L18.5 36.3187L34.5333 27.7875V11.2125L18.5 2.68125ZM18.5 9.75C21.1168 9.75 23.6264 10.7772 25.4768 12.6057C27.3271 14.4342 28.3667 16.9141 28.3667 19.5C28.3667 22.0859 27.3271 24.5658 25.4768 26.3943C23.6264 28.2228 21.1168 29.25 18.5 29.25C15.8832 29.25 13.3736 28.2228 11.5232 26.3943C9.67285 24.5658 8.63333 22.0859 8.63333 19.5C8.63333 16.9141 9.67285 14.4342 11.5232 12.6057C13.3736 10.7772 15.8832 9.75 18.5 9.75V9.75ZM18.5 12.1875C16.5374 12.1875 14.6552 12.9579 13.2674 14.3293C11.8796 15.7006 11.1 17.5606 11.1 19.5C11.1 21.4394 11.8796 23.2994 13.2674 24.6707C14.6552 26.0421 16.5374 26.8125 18.5 26.8125C20.4626 26.8125 22.3448 26.0421 23.7326 24.6707C25.1204 23.2994 25.9 21.4394 25.9 19.5C25.9 17.5606 25.1204 15.7006 23.7326 14.3293C22.3448 12.9579 20.4626 12.1875 18.5 12.1875ZM19.8665 18.2812V20.8504H17.2667V18.2812H19.8665Z" fill="#6E7575"/>
</svg>
