<svg width="28" height="40" viewBox="0 0 28 40" fill="none" xmlns="http://www.w3.org/2000/svg">
<path d="M22.2449 29.6041H5.01632C2.30897 29.6041 0.0938721 31.8192 0.0938721 34.5265V39.449H2.5551V34.5265C2.5551 33.0498 3.78571 32.0653 5.01632 32.0653H22.2449C23.7216 32.0653 24.7061 33.0498 24.7061 34.5265V39.449H27.1673V34.5265C27.1673 31.8192 24.9522 29.6041 22.2449 29.6041ZM5.01632 23.451C5.01632 25.42 6.73918 27.1429 8.70816 27.1429H18.5531C20.522 27.1429 22.2449 25.42 22.2449 23.451V19.7592H24.7061V17.298H22.2449V13.6061C22.2449 11.6371 20.522 9.91428 18.5531 9.91428H14.8612V7.20693C16.338 6.71469 17.3224 5.23795 17.3224 3.76122C17.3224 1.79224 15.5996 0.0693817 13.6306 0.0693817C11.6616 0.0693817 9.93877 1.79224 9.93877 3.76122C9.93877 5.48408 10.9233 6.71469 12.4 7.20693V9.91428H8.70816C6.73918 9.91428 5.01632 11.6371 5.01632 13.6061V17.298H2.5551V19.7592H5.01632V23.451ZM13.6306 2.53061C14.369 2.53061 14.8612 3.02285 14.8612 3.76122C14.8612 4.49959 14.369 4.99183 13.6306 4.99183C12.8922 4.99183 12.4 4.49959 12.4 3.76122C12.4 3.02285 12.8922 2.53061 13.6306 2.53061ZM7.47755 13.6061C7.47755 12.8677 7.96979 12.3755 8.70816 12.3755H18.5531C19.2914 12.3755 19.7837 12.8677 19.7837 13.6061V23.451C19.7837 24.1894 19.2914 24.6816 18.5531 24.6816H8.70816C7.96979 24.6816 7.47755 24.1894 7.47755 23.451V13.6061Z" fill="#6E7575"/>
<path d="M9.93872 19.7592H17.3224V22.2204H9.93872V19.7592ZM14.8612 14.8367H17.3224V17.298H14.8612V14.8367ZM9.93872 14.8367H12.3999V17.298H9.93872V14.8367Z" fill="#6E7575"/>
</svg>
