<svg width="38" height="36" viewBox="0 0 38 36" fill="none" xmlns="http://www.w3.org/2000/svg">
<path d="M32.0898 0.951019H5.01632C2.30897 0.951019 0.0938721 3.16612 0.0938721 5.87347V30.4857C0.0938721 33.1931 2.30897 35.4082 5.01632 35.4082H32.0898C34.7971 35.4082 37.0122 33.1931 37.0122 30.4857V5.87347C37.0122 3.16612 34.7971 0.951019 32.0898 0.951019ZM5.01632 3.41224H32.0898C33.5665 3.41224 34.551 4.39673 34.551 5.87347V10.7959H2.5551V5.87347C2.5551 4.39673 3.53959 3.41224 5.01632 3.41224ZM32.0898 32.9469H5.01632C3.53959 32.9469 2.5551 31.9625 2.5551 30.4857V13.2571H34.551V30.4857C34.551 31.9625 33.5665 32.9469 32.0898 32.9469Z" fill="#6E7575"/>
<path d="M5.01636 5.87347H7.47758V8.3347H5.01636V5.87347ZM9.93881 5.87347H12.4V8.3347H9.93881V5.87347ZM14.8613 5.87347H17.3225V8.3347H14.8613V5.87347ZM29.6286 5.87347H32.0898V8.3347H29.6286V5.87347Z" fill="#6E7575"/>
</svg>
