<svg width="27" height="39" viewBox="0 0 27 39" fill="none" xmlns="http://www.w3.org/2000/svg">
<path d="M22.0909 0H4.90909C2.20909 0 0 2.19375 0 4.875V34.125C0 36.8063 2.20909 39 4.90909 39H22.0909C24.7909 39 27 36.8063 27 34.125V4.875C27 2.19375 24.7909 0 22.0909 0ZM24.5455 26.8125H2.45455V9.75H24.5455V26.8125ZM4.90909 2.4375H22.0909C23.5636 2.4375 24.5455 3.4125 24.5455 4.875V7.3125H2.45455V4.875C2.45455 3.4125 3.43636 2.4375 4.90909 2.4375ZM22.0909 36.5625H4.90909C3.43636 36.5625 2.45455 35.5875 2.45455 34.125V29.25H24.5455V34.125C24.5455 35.5875 23.5636 36.5625 22.0909 36.5625Z" fill="#6E7575"/>
</svg>
