<svg version="1.2" xmlns="http://www.w3.org/2000/svg" viewBox="0 0 100 123" width="50" height="62"><style>.a{fill:#1a1918}.b{fill:#fff}</style><path class="a" d="m26.4 122.6c-0.2 0-0.5-0.1-0.6-0.3l-6.8-8.9v9.1h-1.6v-11.2c0-0.5 0.4-0.8 0.8-0.8 0.3 0 0.5 0 0.6 0.2l6.8 8.9v-9h1.6v11.2c0 0.4-0.4 0.8-0.8 0.8z"/><path class="a" d="m39.2 122.7c-1.6 0-3.2-0.4-4.7-0.9l0.4-1.3c1.4 0.4 2.9 0.8 4.3 0.8 1.9 0 3-0.7 3-1.7 0-0.9-0.8-1.4-3.6-2.6-2.7-1.3-3.8-2.2-3.8-3.8 0-2 1.6-2.8 4.5-2.8 1.2 0 3.1 0.2 4.2 0.6l-0.3 1.3c-1.2-0.3-2.6-0.5-3.9-0.5-2 0-2.9 0.4-2.9 1.4 0 0.9 0.7 1.4 3.5 2.7 3.1 1.4 3.9 2.1 3.9 3.6 0 2.1-2 3.2-4.6 3.2z"/><path class="a" d="m51.1 110.6h1.6v11.9h-1.6z"/><path fill-rule="evenodd" class="a" d="m66.3 122.5h-4.8c-0.4 0-0.8-0.4-0.8-0.8v-10.3c0-0.4 0.4-0.8 0.8-0.8h4c2.4 0 3.9 1.2 3.9 3 0 1.1-0.6 2-1.5 2.6 1.3 0.4 2.2 1.5 2.2 2.9 0 1.8-1.5 3.4-3.8 3.4zm-0.8-10.6h-3.2v3.8h3.2c1.3 0 2.3-0.8 2.3-1.9 0-1.2-0.9-1.9-2.3-1.9zm0.8 5.2h-4v4h4c1.4 0 2.2-0.8 2.2-2 0-1.2-0.9-2-2.2-2z"/><path class="a" d="m77.8 122.5c-0.4 0-0.8-0.4-0.8-0.8v-11.1h1.6v10.4h6.4v1.5c0 0-7.2 0-7.2 0z"/><path class="a" d="m95.9 122.7c-3.3 0-5.2-1.3-5.2-3.7 0-1.2 0.6-2.3 1.9-2.8-1-0.6-1.6-1.5-1.6-2.5 0-2.2 1.7-3.3 4.9-3.3 1.1 0 2.6 0.1 3.9 0.4l-0.2 1.3q-2-0.3-3.8-0.3c-2.1 0-3.2 0.6-3.2 1.9 0 1.1 1.1 2 2.4 2h2.8c0.3 0 0.6 0.3 0.6 0.7 0 0.4-0.3 0.7-0.6 0.7h-3c-1.5 0-2.5 0.7-2.5 1.9 0 1.7 1.6 2.3 3.6 2.3 1.1 0 2.5-0.2 3.7-0.5l0.3 1.3c-1.2 0.3-2.7 0.6-4 0.6z"/><path fill-rule="evenodd" class="a" d="m10.6 121.8c0 0.4-0.4 0.8-0.8 0.8-0.2 0-0.4-0.1-0.6-0.3l-5.6-4.6-1.9 4.8h-1.6l4.7-11.6c0.2-0.3 0.4-0.5 0.7-0.5 0.3 0 0.6 0.2 0.7 0.5l4.3 10.5q0.1 0.2 0.1 0.4zm-6.5-5.4l4.2 3.4-2.8-7c0 0-1.4 3.6-1.4 3.6z"/><path class="a" d="m50.1 99.7c-27.5 0-49.8-22.2-49.8-49.8 0-27.5 22.3-49.8 49.8-49.8 27.6 0 49.9 22.3 49.9 49.8 0 27.6-22.3 49.8-49.9 49.8z"/><path fill-rule="evenodd" class="b" d="m74.2 71.2c0 2.1-1.7 3.5-3.6 3.5-1 0-1.7-0.4-2.8-1.2l-25.7-20.8-8.6 21.6h-7.5l21.8-52.3c0.6-1.4 1.8-2.1 3.2-2.1 1.3 0 2.5 0.7 3 2.1l19.9 47.7c0.2 0.6 0.3 1.1 0.3 1.5zm-29.8-24.2l19.5 15.4-12.9-31.9c0 0-6.6 16.5-6.6 16.5z"/></svg>