<?xml version="1.0" encoding="UTF-8" standalone="no"?>
<!-- Created with Sodipodi ("http://www.sodipodi.com/") -->

<svg
   id="svg548"
   height="33.420776pt"
   width="39.411987pt"
   version="1.1"
   xmlns:xlink="http://www.w3.org/1999/xlink"
   xmlns="http://www.w3.org/2000/svg"
   xmlns:svg="http://www.w3.org/2000/svg"
   xmlns:rdf="http://www.w3.org/1999/02/22-rdf-syntax-ns#"
   xmlns:cc="http://creativecommons.org/ns#"
   xmlns:dc="http://purl.org/dc/elements/1.1/">
  <defs
     id="defs550">
    <linearGradient
       id="linearGradient2083">
      <stop
         id="stop2085"
         style="stop-color:#cccccc"
         offset="0" />
      <stop
         id="stop2087"
         style="stop-color:#ffffff"
         offset="1" />
    </linearGradient>
    <linearGradient
       id="linearGradient650">
      <stop
         id="stop651"
         style="stop-color:#8a8a85"
         offset="0" />
      <stop
         id="stop652"
         style="stop-color:#fff"
         offset="1" />
    </linearGradient>
    <linearGradient
       id="linearGradient4395"
       y2="951.34003"
       xlink:href="#linearGradient650"
       gradientUnits="userSpaceOnUse"
       x2="186.28"
       y1="951.34003"
       x1="-60.918999" />
    <linearGradient
       id="linearGradient4397"
       y2="814.22998"
       xlink:href="#linearGradient2083"
       gradientUnits="userSpaceOnUse"
       x2="349.06"
       y1="865.10999"
       x1="150.62" />
    <linearGradient
       id="linearGradient4399"
       y2="890.64001"
       xlink:href="#linearGradient650"
       gradientUnits="userSpaceOnUse"
       x2="73.602997"
       y1="890.64001"
       x1="13.183" />
    <linearGradient
       xlink:href="#linearGradient650"
       id="linearGradient358"
       gradientUnits="userSpaceOnUse"
       x1="-60.918999"
       y1="951.34003"
       x2="186.28"
       y2="951.34003" />
    <linearGradient
       xlink:href="#linearGradient2083"
       id="linearGradient360"
       gradientUnits="userSpaceOnUse"
       x1="150.62"
       y1="865.10999"
       x2="349.06"
       y2="814.22998" />
    <linearGradient
       xlink:href="#linearGradient650"
       id="linearGradient362"
       gradientUnits="userSpaceOnUse"
       x1="13.183"
       y1="890.64001"
       x2="73.602997"
       y2="890.64001" />
    <linearGradient
       xlink:href="#linearGradient650"
       id="linearGradient364"
       gradientUnits="userSpaceOnUse"
       x1="-60.918999"
       y1="951.34003"
       x2="186.28"
       y2="951.34003" />
    <linearGradient
       xlink:href="#linearGradient2083"
       id="linearGradient366"
       gradientUnits="userSpaceOnUse"
       x1="150.62"
       y1="865.10999"
       x2="349.06"
       y2="814.22998" />
    <linearGradient
       xlink:href="#linearGradient650"
       id="linearGradient368"
       gradientUnits="userSpaceOnUse"
       x1="13.183"
       y1="890.64001"
       x2="73.602997"
       y2="890.64001" />
  </defs>
  <g
     id="g4366"
     transform="matrix(0.12731619,0,0,0.12731619,-2.8010925,-72.697371)">
    <g
       id="g4294"
       transform="translate(24.817,-74.115)">
      <path
         id="path4296"
         style="fill:#cccccc;fill-rule:evenodd;stroke:#000000;stroke-width:3.7581;stroke-linejoin:bevel"
         d="m 38.452,923.74 357.05,-17.53 c 0,0 1.34,23.48 1.34,38.51 0,17.4 -2.52,28.87 -3.32,29.66 l -359.54,18.86 c -1.233,-15.87 2.766,-37.03 4.472,-69.5 z" />
      <path
         id="path4298"
         d="m 368.13,952.51 14.25,-0.79 v 11.86 l -14.25,0.8 z"
         style="fill:#b3b3b3;fill-rule:evenodd;stroke:#000000;stroke-width:1pt" />
      <path
         id="path4300"
         style="fill:url(#linearGradient358);fill-rule:evenodd;stroke:#feffff;stroke-width:2.5"
         d="m 61.949,943.99 122.58,-5.53 -1.74,24.61 -123.54,6.66 2.699,-25.74 z" />
      <path
         id="path4302"
         d="m 3.3504,790.54 c 0,0 254.48,-4.82 254.85,-3.59 1.51,1.22 139.88,118.97 139.88,120.2 l -358.63,17.33 c 0.003,0 -36.1,-135.55 -36.1,-133.94 z"
         style="fill:url(#linearGradient360);fill-rule:evenodd;stroke:#000000;stroke-width:3.7008;stroke-linejoin:bevel" />
      <path
         id="path4304"
         d="m 34.742,993.15 -35.711,-141.91 2.8179,-60.1 36.662,133.23 c 1.077,3.37 -1.654,3.83 -3.769,68.78 z"
         style="fill:url(#linearGradient362);fill-rule:evenodd;stroke:#000000;stroke-width:3.6978;stroke-linejoin:bevel" />
      <path
         id="path4306"
         style="fill:#e77f36;fill-opacity:0.88235;fill-rule:evenodd"
         d="m -84.182821,1040.2923 a 10.5,6.5 0 0 1 -8.191424,7.5731 10.5,6.5 0 0 1 -12.370745,-4.9416 10.5,6.5 0 0 1 7.771314,-7.7408 10.5,6.5 0 0 1 12.634658,4.6786"
         transform="matrix(1,0,0,1.3074,438,-404.2)" />
      <path
         id="path4308"
         style="fill:#e77f36;fill-opacity:0.88235;fill-rule:evenodd"
         d="m -84.182821,1040.2923 a 10.5,6.5 0 0 1 -8.191424,7.5731 10.5,6.5 0 0 1 -12.370745,-4.9416 10.5,6.5 0 0 1 7.771314,-7.7408 10.5,6.5 0 0 1 12.634658,4.6786"
         transform="matrix(1,0,0,1.3074,404.5,-402.7)" />
      <path
         id="path4310"
         style="fill:#e77f36;fill-opacity:0.88235;fill-rule:evenodd"
         d="m -84.182821,1040.2923 a 10.5,6.5 0 0 1 -8.191424,7.5731 10.5,6.5 0 0 1 -12.370745,-4.9416 10.5,6.5 0 0 1 7.771314,-7.7408 10.5,6.5 0 0 1 12.634658,4.6786"
         transform="matrix(1,0,0,1.3074,370.5,-400.7)" />
    </g>
    <g
       id="g4318"
       transform="translate(29.817,-144.11)">
      <path
         id="path4320"
         style="fill:#cccccc;fill-rule:evenodd;stroke:#000000;stroke-width:3.7581;stroke-linejoin:bevel"
         d="m 38.452,923.74 357.05,-17.53 c 0,0 1.34,23.48 1.34,38.51 0,17.4 -2.52,28.87 -3.32,29.66 l -359.54,18.86 c -1.233,-15.87 2.766,-37.03 4.472,-69.5 z" />
      <path
         id="path4322"
         d="m 368.13,952.51 14.25,-0.79 v 11.86 l -14.25,0.8 z"
         style="fill:#b3b3b3;fill-rule:evenodd;stroke:#000000;stroke-width:1pt" />
      <path
         id="path4324"
         style="fill:url(#linearGradient364);fill-rule:evenodd;stroke:#feffff;stroke-width:2.5"
         d="m 61.949,943.99 122.58,-5.53 -1.74,24.61 -123.54,6.66 2.699,-25.74 z" />
      <path
         id="path4326"
         d="m 3.3504,790.54 c 0,0 254.48,-4.82 254.85,-3.59 1.51,1.22 139.88,118.97 139.88,120.2 l -358.63,17.33 c 0.003,0 -36.1,-135.55 -36.1,-133.94 z"
         style="fill:url(#linearGradient366);fill-rule:evenodd;stroke:#000000;stroke-width:3.7008;stroke-linejoin:bevel" />
      <path
         id="path4328"
         d="m 34.742,993.15 -35.711,-141.91 2.8179,-60.1 36.662,133.23 c 1.077,3.37 -1.654,3.83 -3.769,68.78 z"
         style="fill:url(#linearGradient368);fill-rule:evenodd;stroke:#000000;stroke-width:3.6978;stroke-linejoin:bevel" />
      <path
         id="path4330"
         style="fill:#e77f36;fill-opacity:0.88235;fill-rule:evenodd"
         d="m -84.182821,1040.2923 a 10.5,6.5 0 0 1 -8.191424,7.5731 10.5,6.5 0 0 1 -12.370745,-4.9416 10.5,6.5 0 0 1 7.771314,-7.7408 10.5,6.5 0 0 1 12.634658,4.6786"
         transform="matrix(1,0,0,1.3074,438,-404.2)" />
      <path
         id="path4332"
         style="fill:#e77f36;fill-opacity:0.88235;fill-rule:evenodd"
         d="m -84.182821,1040.2923 a 10.5,6.5 0 0 1 -8.191424,7.5731 10.5,6.5 0 0 1 -12.370745,-4.9416 10.5,6.5 0 0 1 7.771314,-7.7408 10.5,6.5 0 0 1 12.634658,4.6786"
         transform="matrix(1,0,0,1.3074,404.5,-402.7)" />
      <path
         id="path4334"
         style="fill:#e77f36;fill-opacity:0.88235;fill-rule:evenodd"
         d="m -84.182821,1040.2923 a 10.5,6.5 0 0 1 -8.191424,7.5731 10.5,6.5 0 0 1 -12.370745,-4.9416 10.5,6.5 0 0 1 7.771314,-7.7408 10.5,6.5 0 0 1 12.634658,4.6786"
         transform="matrix(1,0,0,1.3074,370.5,-400.7)" />
    </g>
    <g
       id="g4342"
       transform="translate(34.817,-213.9)">
      <path
         id="path4344"
         style="fill:#cccccc;fill-rule:evenodd;stroke:#000000;stroke-width:3.7581;stroke-linejoin:bevel"
         d="m 38.452,923.74 357.05,-17.53 c 0,0 1.34,23.48 1.34,38.51 0,17.4 -2.52,28.87 -3.32,29.66 l -359.54,18.86 c -1.233,-15.87 2.766,-37.03 4.472,-69.5 z" />
      <path
         id="path4346"
         d="m 368.13,952.51 14.25,-0.79 v 11.86 l -14.25,0.8 z"
         style="fill:#b3b3b3;fill-rule:evenodd;stroke:#000000;stroke-width:1pt" />
      <path
         id="path4348"
         style="fill:url(#linearGradient4395);fill-rule:evenodd;stroke:#feffff;stroke-width:2.5"
         d="m 61.949,943.99 122.58,-5.53 -1.74,24.61 -123.54,6.66 2.699,-25.74 z" />
      <path
         id="path4350"
         d="m 3.3504,790.54 c 0,0 254.48,-4.82 254.85,-3.59 1.51,1.22 139.88,118.97 139.88,120.2 l -358.63,17.33 c 0.003,0 -36.1,-135.55 -36.1,-133.94 z"
         style="fill:url(#linearGradient4397);fill-rule:evenodd;stroke:#000000;stroke-width:3.7008;stroke-linejoin:bevel" />
      <path
         id="path4352"
         d="m 34.742,993.15 -35.711,-141.91 2.8179,-60.1 36.662,133.23 c 1.077,3.37 -1.654,3.83 -3.769,68.78 z"
         style="fill:url(#linearGradient4399);fill-rule:evenodd;stroke:#000000;stroke-width:3.6978;stroke-linejoin:bevel" />
      <path
         id="path4354"
         style="fill:#e77f36;fill-opacity:0.88235;fill-rule:evenodd"
         d="m -84.182821,1040.2923 a 10.5,6.5 0 0 1 -8.191424,7.5731 10.5,6.5 0 0 1 -12.370745,-4.9416 10.5,6.5 0 0 1 7.771314,-7.7408 10.5,6.5 0 0 1 12.634658,4.6786"
         transform="matrix(1,0,0,1.3074,438,-404.2)" />
      <path
         id="path4356"
         style="fill:#e77f36;fill-opacity:0.88235;fill-rule:evenodd"
         d="m -84.182821,1040.2923 a 10.5,6.5 0 0 1 -8.191424,7.5731 10.5,6.5 0 0 1 -12.370745,-4.9416 10.5,6.5 0 0 1 7.771314,-7.7408 10.5,6.5 0 0 1 12.634658,4.6786"
         transform="matrix(1,0,0,1.3074,404.5,-402.7)" />
      <path
         id="path4358"
         style="fill:#e77f36;fill-opacity:0.88235;fill-rule:evenodd"
         d="m -84.182821,1040.2923 a 10.5,6.5 0 0 1 -8.191424,7.5731 10.5,6.5 0 0 1 -12.370745,-4.9416 10.5,6.5 0 0 1 7.771314,-7.7408 10.5,6.5 0 0 1 12.634658,4.6786"
         transform="matrix(1,0,0,1.3074,370.5,-400.7)" />
    </g>
  </g>
  <metadata
     id="metadata115">
    <rdf:RDF>
      <cc:Work>
        <dc:format>image/svg+xml</dc:format>
        <dc:type
           rdf:resource="http://purl.org/dc/dcmitype/StillImage" />
        <cc:license
           rdf:resource="http://creativecommons.org/licenses/publicdomain/" />
        <dc:publisher>
          <cc:Agent
             rdf:about="http://openclipart.org/">
            <dc:title>Openclipart</dc:title>
          </cc:Agent>
        </dc:publisher>
        <dc:date>2006-12-02T17:09:37</dc:date>
        <dc:description>Stack of computer servers</dc:description>
        <dc:source>https://openclipart.org/detail/1723/stacked_servers-by-ajith</dc:source>
        <dc:creator>
          <cc:Agent>
            <dc:title>ajith</dc:title>
          </cc:Agent>
        </dc:creator>
        <dc:subject>
          <rdf:Bag>
            <rdf:li>computer</rdf:li>
            <rdf:li>diagram</rdf:li>
            <rdf:li>hardware</rdf:li>
            <rdf:li>how i did it</rdf:li>
            <rdf:li>network</rdf:li>
            <rdf:li>server</rdf:li>
            <rdf:li>stack</rdf:li>
            <rdf:li>stacked</rdf:li>
          </rdf:Bag>
        </dc:subject>
      </cc:Work>
      <cc:License
         rdf:about="http://creativecommons.org/licenses/publicdomain/">
        <cc:permits
           rdf:resource="http://creativecommons.org/ns#Reproduction" />
        <cc:permits
           rdf:resource="http://creativecommons.org/ns#Distribution" />
        <cc:permits
           rdf:resource="http://creativecommons.org/ns#DerivativeWorks" />
      </cc:License>
    </rdf:RDF>
  </metadata>
</svg>
