<svg width="91" height="21" viewBox="0 0 91 21" fill="none" xmlns="http://www.w3.org/2000/svg">
<path fill-rule="evenodd" clip-rule="evenodd" d="M29.6018 2.64612L29.0458 5.05189H27.0207L26.5203 7.22457H28.5454L27.3479 12.4061C27.0384 13.7466 27.2834 16.1184 30.083 16.1184H36.8427L37.3901 13.7469C32.698 13.7469 32.6974 13.7465 33.0405 12.2607L34.2038 7.22457H38.4764H38.8956H40.5016L39.304 12.4061C38.9945 13.7466 39.2396 16.1184 42.0391 16.1184H48.7988L49.3462 13.7469C44.6541 13.7469 44.6536 13.7465 44.9966 12.2607L46.1599 7.22457H50.8517L51.3543 5.05189H46.6603L47.2163 2.64612H41.558L41.002 5.05189H39.3981H38.9768H34.7042L35.2602 2.64612H29.6018ZM4.81254 5.05112L2.04132 17.0546C1.87664 17.5377 1.62578 17.5119 1.06587 17.5339L1 20.2675L5.61103 20.2511C6.50579 20.2017 7.06343 19.6944 7.43121 18.4429L10.5229 5.05112H4.81254ZM5.74782 1L5.04066 4.06305H10.7511L11.4582 1H5.74782ZM13.9119 5.05189C12.9238 5.05189 11.7888 5.89353 11.5404 7.22457L10.4455 11.7046C9.80463 14.4804 10.1425 16.1184 12.214 16.1184H23.905L24.4524 13.7469H15.6911L16.1616 11.7046H24.9229C25.0634 11.0959 25.6484 10.2114 25.9579 7.22457C26.0455 6.84511 25.4404 5.05189 23.165 5.05189H13.9119ZM18.6123 7.22457C19.8283 7.22457 20.1816 7.60489 19.7905 9.29888H16.7176C17.0949 7.66431 17.6182 7.22457 18.6123 7.22457ZM52.2276 5.05112L50.2202 13.7462C50.2202 13.7462 49.6727 16.1176 53.0068 16.1176H58.6693C58.3867 17.3418 58.2511 17.9291 54.96 17.9291H49.2545L48.745 20.1358H57.7416C61.8905 20.1358 63.3814 20.1358 63.8909 17.9291L66.864 5.05112H61.2242L59.2168 13.7462H55.9257L57.9331 5.05112H52.2276ZM69.0785 5.05112L68.0976 9.29986H73.8284L74.8093 5.05112H69.0785ZM67.5045 11.8689L66.5236 16.1176H72.2544L73.2353 11.8689H67.5045ZM80.854 1L72.9598 17.9291H75.8457L83.7398 1H80.854ZM87.2436 1L79.3494 17.9291H82.2353L90.1294 1H87.2436Z" fill="#FC390E" stroke="black" stroke-linejoin="round"/>
<path fill-rule="evenodd" clip-rule="evenodd" d="M29.6018 2.64612L29.0458 5.05189H27.0207L26.5203 7.22457H28.5454L27.3479 12.4061C27.0384 13.7466 27.2834 16.1184 30.083 16.1184H36.8427L37.3901 13.7469C32.698 13.7469 32.6974 13.7465 33.0405 12.2607L34.2038 7.22457H38.4764H38.8956H40.5016L39.304 12.4061C38.9945 13.7466 39.2396 16.1184 42.0391 16.1184H48.7988L49.3462 13.7469C44.6541 13.7469 44.6536 13.7465 44.9966 12.2607L46.1599 7.22457H50.8517L51.3543 5.05189H46.6603L47.2163 2.64612H41.558L41.002 5.05189H39.3981H38.9768H34.7042L35.2602 2.64612H29.6018ZM4.81254 5.05112L2.04132 17.0546C1.87664 17.5377 1.62578 17.5119 1.06587 17.5339L1 20.2675L5.61103 20.2511C6.50579 20.2017 7.06343 19.6944 7.43121 18.4429L10.5229 5.05112H4.81254ZM5.74782 1L5.04066 4.06305H10.7511L11.4582 1H5.74782ZM13.9119 5.05189C12.9238 5.05189 11.7888 5.89353 11.5404 7.22457L10.4455 11.7046C9.80463 14.4804 10.1425 16.1184 12.214 16.1184H23.905L24.4524 13.7469H15.6911L16.1616 11.7046H24.9229C25.0634 11.0959 25.6484 10.2114 25.9579 7.22457C26.0455 6.84511 25.4404 5.05189 23.165 5.05189H13.9119ZM18.6123 7.22457C19.8283 7.22457 20.1816 7.60489 19.7905 9.29888H16.7176C17.0949 7.66431 17.6182 7.22457 18.6123 7.22457ZM52.2276 5.05112L50.2202 13.7462C50.2202 13.7462 49.6727 16.1176 53.0068 16.1176H58.6693C58.3867 17.3418 58.2511 17.9291 54.96 17.9291H49.2545L48.745 20.1358H57.7416C61.8905 20.1358 63.3814 20.1358 63.8909 17.9291L66.864 5.05112H61.2242L59.2168 13.7462H55.9257L57.9331 5.05112H52.2276ZM69.0785 5.05112L68.0976 9.29986H73.8284L74.8093 5.05112H69.0785ZM67.5045 11.8689L66.5236 16.1176H72.2544L73.2353 11.8689H67.5045ZM80.854 1L72.9598 17.9291H75.8457L83.7398 1H80.854ZM87.2436 1L79.3494 17.9291H82.2353L90.1294 1H87.2436Z" fill="#FC390E"/>
</svg>
