<svg width="55" height="29" viewBox="0 0 55 29" fill="none" xmlns="http://www.w3.org/2000/svg">
<path d="M0.788586 1.51165L1.51625 0.783983C2.63122 -0.319252 4.45039 -0.248833 5.47147 0.936558L15.5414 12.6731C16.4217 13.6942 16.4099 15.2082 15.5179 16.2175L5.4832 27.5902C4.45039 28.7522 2.6547 28.8108 1.55146 27.7076L0.823795 26.9799C-0.162074 25.9941 -0.232494 24.4214 0.659484 23.3416L6.66859 16.1354C7.49015 15.1495 7.50189 13.7294 6.7038 12.72L0.600801 5.09129C-0.267703 4.03501 -0.185547 2.48578 0.788586 1.51165Z" fill="#92D13D"/>
<path d="M6.65636 16.1589L0.647247 23.3651C-0.24473 24.4332 -0.174311 26.0176 0.811558 27.0035L1.53922 27.7311C2.64246 28.8344 4.43815 28.7757 5.47097 27.6138L7.64223 25.1491C8.46378 23.5294 8.92151 21.6985 8.92151 19.762C8.92151 17.3678 8.21732 15.1496 7.02019 13.2834C7.46618 14.1989 7.34881 15.3373 6.65636 16.1589Z" fill="#49691F"/>
<path d="M20.7057 23.0011H18.3701V9.42195H20.7057V10.8421C21.0343 9.89142 22.2197 9.2107 23.8393 9.2107C25.2243 9.2107 26.3862 9.70363 27.3251 10.6895C28.2758 11.6636 28.7452 12.8725 28.7452 14.3278C28.7452 15.7832 28.2758 16.992 27.3251 17.9896C26.3862 18.9638 25.2243 19.445 23.8393 19.445C22.2197 19.445 21.0343 18.7642 20.7057 17.8136V23.0011ZM21.3864 12.1918C20.8231 12.7551 20.5296 13.4828 20.5296 14.3396C20.5296 15.1963 20.8231 15.9123 21.3864 16.4874C21.9732 17.0507 22.6892 17.3441 23.5342 17.3441C24.3792 17.3441 25.0482 17.0507 25.5998 16.4874C26.1632 15.924 26.4331 15.1963 26.4331 14.3396C26.4331 13.4828 26.1632 12.7669 25.5998 12.1918C25.0599 11.6284 24.3675 11.335 23.5342 11.335C22.7009 11.335 21.9732 11.6284 21.3864 12.1918ZM29.555 5.66626H31.8906V16.0296C31.8906 16.9803 32.2075 17.3911 33.0643 17.3911C33.3342 17.3911 33.5689 17.3676 33.7685 17.3089V19.398C33.4985 19.4802 33.123 19.5154 32.6535 19.5154C30.5879 19.5154 29.555 18.4591 29.555 16.3348V5.66626ZM41.6789 10.8421V9.42195H44.0145V16.2761C44.0145 17.1094 44.214 17.4263 44.7304 17.4263C44.8712 17.4263 45.0473 17.4028 45.2233 17.3911V19.2806C44.9651 19.3745 44.5778 19.4332 44.0731 19.4332C43.5098 19.4332 43.0638 19.3393 42.7117 19.1163C42.2775 18.8229 42.0075 18.4356 41.9136 17.9309C41.2329 18.9638 40.1062 19.4684 38.5452 19.4684C37.1603 19.4684 35.9984 18.9872 35.036 17.9896C34.0971 16.992 33.6276 15.7832 33.6276 14.3278C33.6276 12.8725 34.0971 11.6636 35.036 10.6895C35.9867 9.69189 37.1603 9.2107 38.5452 9.2107C40.1179 9.2107 41.3033 9.91489 41.6789 10.8421ZM40.9747 16.4756C41.5615 15.9123 41.8549 15.1846 41.8549 14.3278C41.8549 13.4711 41.5615 12.7551 40.9747 12.18C40.4113 11.6167 39.6837 11.3233 38.8504 11.3233C38.0171 11.3233 37.3364 11.6167 36.7613 12.18C36.2214 12.7434 35.9397 13.4711 35.9397 14.3278C35.9397 15.1846 36.2097 15.9005 36.7613 16.4756C37.3246 17.039 38.0054 17.3324 38.8504 17.3324C39.6954 17.3324 40.4113 17.039 40.9747 16.4756ZM46.0331 21.2054C46.3266 21.2993 46.6904 21.358 47.1246 21.358C47.5002 21.358 47.7702 21.2759 47.9814 21.1468C48.1927 21.0177 48.3922 20.7125 48.5448 20.3135L48.803 19.6093L44.6952 9.42195H47.0425L49.9297 16.8277L52.6408 9.42195H54.9999L50.5987 20.8416C50.3052 21.6045 49.9531 22.1913 49.5424 22.5904C48.9555 23.1302 48.1809 23.4119 47.1833 23.4119C46.7491 23.4119 46.3618 23.3532 46.0331 23.2593V21.2054Z" fill="#49691F"/>
</svg>
