<svg width="53" height="29" viewBox="0 0 53 29" fill="none" xmlns="http://www.w3.org/2000/svg">
<rect width="53" height="28.25" fill="#D9411E"/>
<g clip-path="url(#clip0_1183_32658)">
<path d="M11.5252 19.075C10.9502 18.775 10.2752 18.55 9.5502 18.425C8.8502 18.3 8.1252 18.25 7.4002 18.25C6.8252 18.25 6.2252 18.2 5.6502 18.1C5.0752 18 4.5752 17.825 4.1252 17.575C3.7002 17.325 3.3252 16.975 3.0502 16.55C2.7752 16.125 2.6502 15.55 2.6502 14.875C2.7002 14.25 2.8252 13.75 3.1002 13.325C3.3752 12.9 3.7252 12.55 4.1252 12.3C4.5502 12.05 5.0502 11.85 5.6002 11.725C6.5502 11.525 7.5252 11.5 8.5252 11.625C8.9252 11.675 9.3002 11.775 9.6752 11.925C10.0502 12.05 10.4002 12.25 10.7002 12.475C11.0002 12.7 11.2752 13 11.5002 13.325L11.6252 13.525L12.5752 13.125L12.3752 12.85C12.1252 12.475 11.8252 12.15 11.5252 11.875C11.2252 11.575 10.8502 11.35 10.4252 11.15C10.0252 10.95 9.5502 10.8 9.0502 10.7C8.5502 10.6 7.9502 10.55 7.3002 10.55C6.6752 10.55 6.0252 10.625 5.3752 10.775C4.7252 10.925 4.1002 11.15 3.5502 11.475C3.0002 11.8 2.5252 12.25 2.1752 12.8C1.8252 13.35 1.6502 14.05 1.6502 14.825C1.6502 15.65 1.8252 16.375 2.1502 16.925C2.4752 17.5 2.9252 17.95 3.4502 18.275C3.9752 18.6 4.6002 18.85 5.2752 18.975C5.9502 19.1 6.6502 19.175 7.3752 19.175C7.9502 19.175 8.5502 19.225 9.1752 19.3C9.7752 19.375 10.3502 19.55 10.8502 19.8C11.3502 20.05 11.7502 20.375 12.0752 20.8C12.3752 21.2 12.5252 21.75 12.5252 22.45C12.5252 23.05 12.3752 23.575 12.0752 24C11.7752 24.425 11.3752 24.775 10.9002 25.05C10.4252 25.325 9.8752 25.525 9.2752 25.65C8.6752 25.775 8.0752 25.85 7.5002 25.85C6.5252 25.85 5.5752 25.675 4.6502 25.3C3.7252 24.925 2.9252 24.4 2.2502 23.675L2.0752 23.475L1.3252 24.125L1.5252 24.325C2.2002 25 3.0502 25.6 4.0252 26.075C5.0252 26.5751 6.2002 26.8251 7.5002 26.8251C8.1252 26.8251 8.8002 26.75 9.4752 26.6C10.1752 26.45 10.8252 26.2 11.4252 25.875C12.0252 25.525 12.5252 25.075 12.9252 24.525C13.3252 23.95 13.5252 23.25 13.5252 22.425C13.5252 21.575 13.3252 20.875 12.9752 20.3C12.6002 19.825 12.1252 19.4 11.5252 19.075Z" fill="white"/>
<path d="M24.5756 16.675C24.0756 16.1 23.4756 15.625 22.7756 15.25C22.0756 14.875 21.2756 14.7 20.4256 14.7C19.6506 14.7 18.9006 14.875 18.2006 15.2C17.5256 15.525 16.9006 15.975 16.4006 16.55C15.9006 17.1 15.4756 17.775 15.1756 18.525C14.8756 19.275 14.7256 20.075 14.7256 20.875C14.7256 21.65 14.8756 22.4 15.1256 23.125C15.4006 23.85 15.7756 24.5 16.2756 25.075C16.7756 25.65 17.3756 26.125 18.0756 26.475C18.7756 26.825 19.5506 27.025 20.4006 27.025C21.2006 27 21.9506 26.825 22.6506 26.5C23.3256 26.175 23.9506 25.7 24.4506 25.15C24.9506 24.6 25.3756 23.925 25.6506 23.2C25.9506 22.475 26.0756 21.7 26.0756 20.875C26.0756 20.15 25.9506 19.4 25.6756 18.675C25.4506 17.925 25.0756 17.25 24.5756 16.675ZM20.4256 26.025C19.7506 26.025 19.1256 25.875 18.5756 25.6C18.0256 25.325 17.5256 24.925 17.1256 24.45C16.7006 23.975 16.3756 23.4249 16.1506 22.7999C15.9256 22.175 15.7756 21.525 15.7506 20.85C15.7506 20.25 15.8506 19.625 16.0756 19C16.3006 18.375 16.6256 17.825 17.0256 17.325C17.4506 16.825 17.9506 16.425 18.5256 16.125C19.1006 15.825 19.7256 15.675 20.4256 15.675C21.0756 15.675 21.7006 15.825 22.2506 16.1C22.8256 16.4 23.3256 16.775 23.7506 17.25C24.1756 17.725 24.5006 18.275 24.7506 18.9C25.0006 19.525 25.1256 20.175 25.1256 20.825C25.1256 21.425 25.0256 22.05 24.8006 22.675C24.5756 23.2999 24.2506 23.85 23.8506 24.35C23.4256 24.85 22.9256 25.25 22.3506 25.5499C21.7756 25.8749 21.1256 26.025 20.4256 26.025Z" fill="white"/>
<path d="M31.2756 25.75C31.1006 25.8 30.9506 25.825 30.8256 25.85C30.7006 25.875 30.5506 25.9 30.4006 25.925C30.2506 25.95 30.1256 25.95 30.0006 25.95C29.6756 25.95 29.4256 25.85 29.2506 25.6C29.0506 25.35 28.9756 25.1 28.9756 24.85V10.25H27.9756V24.825C27.9756 25.375 28.1506 25.85 28.5006 26.275C28.8506 26.7 29.3506 26.9 30.0006 26.9C30.2006 26.9 30.4006 26.9 30.6006 26.875C30.7756 26.85 30.9506 26.825 31.1006 26.8C31.2506 26.775 31.4256 26.75 31.6256 26.7L31.9756 26.625L31.5256 25.7L31.2756 25.75Z" fill="white"/>
<path d="M35.5752 15.7001C35.0502 16.0751 34.6002 16.5251 34.2002 17.0751V14.8751H33.2002V26.8001H34.2002V19.3751C34.3502 18.9001 34.5252 18.4251 34.7752 18.0251C35.0252 17.6001 35.3002 17.2501 35.6502 16.9251C36.0002 16.6251 36.4002 16.3751 36.8502 16.1751C37.3002 16.0001 37.8002 15.8751 38.3502 15.8501L38.6252 15.8251V14.8501H38.3502C37.3002 14.8751 36.3502 15.1501 35.5752 15.7001Z" fill="white"/>
<path d="M49.7998 4L41.5498 12.925L51.9248 8.15C51.6248 6.55 50.8748 5.125 49.7998 4Z" fill="#262130"/>
<path d="M43.6756 1.3501C42.5256 1.3501 41.4506 1.5751 40.4506 2.0001L39.3506 11.3251L44.8756 1.4501C44.5006 1.3751 44.1006 1.3501 43.6756 1.3501Z" fill="#262130"/>
<path d="M51.9998 8.65015L42.1748 14.1501L51.3998 13.0501C51.8248 12.0251 52.0748 10.9251 52.0748 9.75015C52.0748 9.37515 52.0498 9.00015 51.9998 8.65015Z" fill="#262130"/>
<path d="M48.3754 16.7C49.4754 15.95 50.3754 14.95 51.0254 13.8L42.4004 15.5L48.3754 16.7Z" fill="#262130"/>
<path d="M45.4006 1.52515L40.6006 11.9501L49.5256 3.70015C48.3756 2.62515 46.9756 1.85015 45.4006 1.52515Z" fill="#262130"/>
<path d="M44.3998 18.1C45.3248 18.025 46.2248 17.8 47.0248 17.45L42.1748 16.875L44.3998 18.1Z" fill="#262130"/>
<path d="M36.0252 6.30005C35.6502 7.12505 35.4002 8.05005 35.3252 9.00005L36.6252 11.325L36.0252 6.30005Z" fill="#262130"/>
<path d="M39.7254 2.3252C38.5504 2.9502 37.5254 3.8752 36.7754 4.9752L38.0004 11.1002L39.7254 2.3252Z" fill="#262130"/>
</g>
<defs>
<clipPath id="clip0_1183_32658">
<rect width="51.825" height="26.95" fill="white" transform="translate(0.75 0.75)"/>
</clipPath>
</defs>
</svg>
