<svg width="100" height="30" viewBox="0 0 100 30" fill="none" xmlns="http://www.w3.org/2000/svg">
<path d="M0.7542 7.19019L3.83625 21.543H4.65486L7.99537 7.40577H8.85736L12.3057 21.543H13.1244L16.0985 7.19019H16.8531L13.7495 22.2757H11.6808L8.42654 8.4186L5.27991 22.2757H3.21103L0 7.19019H0.7542Z" fill="#293644"/>
<path d="M18.5332 7.19019H19.2877V8.37538H18.5332V7.19019ZM18.5332 11.5003H19.2877V22.2757H18.5332V11.5003Z" fill="#293644"/>
<path d="M22.0459 6.5437H22.8003V22.2758H22.0459V6.5437Z" fill="#293644"/>
<path d="M33.036 22.2757H32.282V21.3707C32.282 21.3707 30.5144 22.4698 28.5535 22.4698C27.2171 22.4698 24.9111 22.2757 24.9111 17.0389C24.9111 13.3321 25.9028 11.3064 29.437 11.3064C30.4498 11.3064 31.7432 11.4788 32.2818 11.5651V7.19019H33.0358V22.2757H33.036ZM32.2821 20.6595V12.2547C31.7215 12.1903 30.2777 11.9961 29.4374 11.9961C26.3772 11.9961 25.6658 13.828 25.6658 17.1034C25.6658 21.3922 27.3469 21.7801 28.5537 21.7801C30.407 21.7801 32.2821 20.6595 32.2821 20.6595Z" fill="#293644"/>
<path d="M35.4922 7.40576H44.9316V10.2504H38.4232V14.539H43.6387V17.3621H38.4232V22.2757H35.4922V7.40576Z" fill="#243446"/>
<path d="M45.793 7.19019H48.6805V22.2757H45.793V7.19019Z" fill="#243446"/>
<path d="M51.9131 11.522L53.8744 19.4524H54.3698L56.3309 11.522H59.1755L55.4043 26.78H52.5595L53.6588 22.2759H51.7192L49.0684 11.522H51.9131Z" fill="#243446"/>
<path opacity="0.7" d="M70.0255 14.2131C69.6517 14.1011 69.2684 14.0085 68.8833 13.9222C68.6913 13.8788 68.4971 13.838 68.3034 13.7994C68.1095 13.7594 67.9151 13.721 67.721 13.6858C67.6244 13.6685 67.526 13.6511 67.4322 13.6369L67.1387 13.598C66.9409 13.5719 66.741 13.5416 66.5461 13.5251C66.349 13.5068 66.1542 13.4829 65.9549 13.4687L65.3588 13.4253C64.9596 13.4053 64.5597 13.3843 64.1581 13.3766C63.9577 13.3694 63.757 13.3672 63.5558 13.3657C63.3545 13.3638 63.153 13.3607 62.951 13.3633C62.5494 13.3636 62.1377 13.3706 61.7419 13.3812L61.1306 13.4077L60.5333 13.454L59.9312 13.5177C59.7291 13.5408 59.5292 13.569 59.3278 13.5942C58.9255 13.6513 58.5231 13.7152 58.1206 13.7871C57.7174 13.8594 57.3136 13.9373 56.9099 14.0194C56.098 14.1824 55.2867 14.3529 54.4811 14.5504C54.0776 14.6494 53.6757 14.7548 53.2792 14.8715C53.0737 14.9327 52.8689 14.9967 52.668 15.0659C52.7418 15.0886 52.8181 15.1088 52.8955 15.1262C53.1767 15.1901 53.475 15.2268 53.7811 15.2677C53.9338 15.2887 54.0892 15.3102 54.2476 15.3374L54.4774 15.3802L54.5773 15.3949L54.682 15.4065C54.9659 15.4335 55.2628 15.4253 55.5611 15.4117C56.1581 15.3802 56.7605 15.3011 57.3698 15.2407C57.6739 15.2109 57.9803 15.1843 58.293 15.1793C58.4527 15.1771 58.5992 15.1831 58.7518 15.1848L59.2058 15.1944C59.5092 15.2021 59.8111 15.2132 60.1131 15.228L60.1273 15.2289C60.1514 15.2222 60.1758 15.2142 60.1999 15.2077L60.2749 15.1877L60.3567 15.1677C60.4121 15.1532 60.4662 15.1443 60.5209 15.1327C60.6292 15.1127 60.7368 15.0975 60.8429 15.0856C61.0566 15.0618 61.2669 15.0502 61.4758 15.0434C61.8914 15.0305 62.3004 15.0386 62.7073 15.0488C63.1128 15.0613 63.5151 15.0705 63.9164 15.0895C64.3166 15.11 64.7164 15.1648 65.1159 15.2074C65.5145 15.2535 65.9147 15.2718 66.3109 15.2514L66.753 15.2279L66.3346 15.3543C66.0463 15.4412 65.7536 15.4744 65.4603 15.5049C65.1668 15.5347 64.8725 15.5521 64.5775 15.5654C63.9857 15.5903 63.3923 15.5967 62.7963 15.5886C62.5597 15.5837 62.3229 15.5748 62.0843 15.5587C61.8914 15.5617 61.6994 15.5666 61.5096 15.5765C61.3121 15.5871 61.1171 15.602 60.9276 15.6274C60.8323 15.6397 60.7394 15.6556 60.6492 15.6739C60.6044 15.6845 60.559 15.6928 60.5163 15.7053L60.4508 15.7229L60.3798 15.7443C60.1937 15.7998 60.0101 15.8611 59.849 15.9342C59.8162 15.9487 59.7846 15.9646 59.7551 15.9802C59.8208 16.0077 59.8929 16.034 59.9686 16.0582C60.1476 16.1143 60.3389 16.1609 60.5313 16.2029C60.723 16.2444 60.9235 16.2827 61.1133 16.3138C61.2146 16.3307 61.3154 16.3464 61.4081 16.3577C61.5011 16.371 61.6012 16.3799 61.6974 16.3903C62.0863 16.4283 62.4794 16.4441 62.8737 16.4397C63.2666 16.4347 63.66 16.4166 64.052 16.3811C64.8342 16.3097 65.6136 16.197 66.38 16.041C66.7632 15.9634 67.1431 15.8785 67.5201 15.7832L67.8022 15.711L68.0799 15.6358C68.2733 15.5864 68.4464 15.5304 68.629 15.4788C68.9932 15.3662 69.3557 15.2415 69.7274 15.124C70.0962 15.0053 70.4736 14.8973 70.8596 14.8215L70.8907 14.7736C70.9256 14.6887 70.8771 14.6011 70.7689 14.5135C70.7081 14.4738 70.6413 14.4381 70.5713 14.4069C70.397 14.3295 70.2112 14.2711 70.0255 14.2131Z" fill="white"/>
<path opacity="0.7" d="M77.5447 16.9225C77.7018 17.0293 77.8482 17.1371 78.0167 17.2451L78.256 17.4039L78.5009 17.5618C78.8286 17.7709 79.1624 17.9716 79.5015 18.1658C80.1795 18.556 80.8833 18.9089 81.6028 19.2234C81.9638 19.3811 82.3319 19.5217 82.7026 19.651C83.0753 19.7796 83.4535 19.8883 83.8347 19.975C83.9298 19.9954 84.027 20.0191 84.1196 20.0353C84.211 20.0543 84.3118 20.0709 84.4127 20.0871C84.603 20.117 84.8055 20.1445 85 20.1655C85.1962 20.1865 85.3923 20.2026 85.5797 20.2055C85.6587 20.2065 85.7355 20.2045 85.8067 20.199C85.7833 20.1747 85.7592 20.1498 85.7324 20.1257C85.6027 20.0055 85.4478 19.8891 85.2886 19.7779L85.2276 19.7352L85.1714 19.6981C85.1347 19.6732 85.0943 19.6506 85.0554 19.6259C84.9754 19.5801 84.8921 19.5364 84.8062 19.494C84.6341 19.4108 84.4536 19.3346 84.2696 19.2624C84.093 19.1932 83.9127 19.1279 83.7313 19.0649C83.4993 19.0046 83.2709 18.938 83.0448 18.8677C82.4764 18.6874 81.9156 18.494 81.3616 18.2839C81.0857 18.1781 80.8115 18.0683 80.5425 17.948C80.2743 17.826 80.0073 17.7024 79.7611 17.5288L79.4044 17.2768L79.8161 17.4386C80.1856 17.5831 80.571 17.6918 80.9641 17.7739C81.3563 17.8597 81.753 17.9337 82.1394 18.0406C82.526 18.1496 82.911 18.2673 83.2998 18.384C83.6886 18.5022 84.0796 18.624 84.47 18.7676C84.6657 18.8401 84.8618 18.9171 85.0566 19.0071C85.1543 19.0521 85.251 19.1002 85.3473 19.1535C85.3959 19.1814 85.4444 19.207 85.4922 19.2381L85.5638 19.2832L85.6285 19.3257C85.6495 19.3394 85.6702 19.3548 85.6909 19.3688L85.7045 19.3724C85.9958 19.4537 86.2857 19.5384 86.5757 19.6269L87.01 19.7608C87.155 19.8073 87.2961 19.8483 87.4468 19.9006C87.7422 20.0037 88.0244 20.1257 88.304 20.2501C88.8628 20.4995 89.4094 20.7646 89.9661 20.9831C90.2448 21.09 90.5237 21.192 90.802 21.2559L90.9048 21.2778L91.0041 21.2954L91.2357 21.3275C91.3949 21.3512 91.549 21.3803 91.7007 21.4083C92.0038 21.4662 92.299 21.5258 92.5854 21.5535C92.6642 21.5617 92.7426 21.5661 92.8196 21.5677C92.6512 21.4389 92.4775 21.3136 92.3019 21.191C91.9626 20.9551 91.6143 20.7286 91.2626 20.5072C90.5608 20.0652 89.8445 19.6476 89.1255 19.2366C88.7683 19.0311 88.4101 18.8297 88.0502 18.6339C87.6907 18.4386 87.3293 18.2511 86.9654 18.0696C86.7823 17.9822 86.6009 17.8922 86.4169 17.8066L85.8655 17.5561L85.3135 17.3238L84.7418 17.106C84.3695 16.9712 83.9809 16.8346 83.5998 16.7073C83.4095 16.641 83.2168 16.5802 83.0251 16.5189C82.8338 16.4567 82.6426 16.3954 82.4501 16.3387C82.0664 16.2194 81.6807 16.1133 81.2953 16.0061L80.7157 15.8591C80.5227 15.8101 80.3303 15.7712 80.1375 15.7262C79.9472 15.6803 79.748 15.646 79.5519 15.6084L79.2616 15.5529C79.1673 15.5365 79.0688 15.5224 78.9717 15.5084C78.7765 15.4804 78.5795 15.4555 78.3834 15.4321C78.1871 15.4075 77.9902 15.3849 77.7944 15.3655C77.4015 15.3258 77.0089 15.293 76.6193 15.2814C76.4244 15.2775 76.2293 15.2741 76.0404 15.2927C75.9643 15.3004 75.8895 15.3132 75.8195 15.3316C75.6888 15.3807 75.615 15.4485 75.6215 15.54L75.6358 15.595C75.978 15.7889 76.3027 16.0107 76.6148 16.2396C76.9302 16.4681 77.2351 16.7012 77.5447 16.9225Z" fill="white"/>
<path opacity="0.5" d="M61.7019 13.1683C59.9466 13.1953 58.2845 13.4778 56.5496 13.8299C55.3061 14.0827 53.0772 14.5641 51.9219 15.068C52.4089 15.5132 53.5881 15.5154 54.266 15.6441C55.3695 15.8528 57.1991 15.3911 58.3506 15.38C59.1419 15.3723 59.9169 15.3728 60.6954 15.416C60.549 15.4372 60.4116 15.463 60.2895 15.4968C60.0225 15.5711 59.2013 15.8002 59.2498 16.0619C59.3062 16.3614 60.6872 16.6075 60.9571 16.6565C63.0651 17.0358 65.6987 16.5944 67.8509 15.997C69.0146 15.674 69.7217 15.2682 70.8584 14.8219C70.4723 14.8977 70.0949 15.0057 69.7261 15.1244C69.3544 15.2419 68.9919 15.3665 68.6277 15.4792C68.4451 15.5308 68.272 15.5868 68.0787 15.6362L67.8009 15.7114L67.5189 15.7836C67.1418 15.8789 66.7619 15.9638 66.3788 16.0414C65.6123 16.1974 64.833 16.3101 64.0507 16.3815C63.6585 16.417 63.2651 16.435 62.8724 16.4401C62.4781 16.4446 62.0852 16.4287 61.6961 16.3907C61.5999 16.3802 61.4998 16.3714 61.4069 16.3581C61.3141 16.347 61.2133 16.3311 61.112 16.3142C60.9222 16.283 60.7217 16.2449 60.53 16.2033C60.3377 16.1613 60.1463 16.1147 59.9673 16.0587C59.8916 16.0344 59.8195 16.0081 59.7538 15.9806C59.7833 15.965 59.8147 15.9492 59.8477 15.9346C60.0088 15.8614 60.1926 15.8002 60.3785 15.7447L60.4495 15.7233L60.515 15.7057C60.5577 15.6934 60.6033 15.6849 60.6479 15.6743C60.7381 15.656 60.831 15.6401 60.9263 15.6278C61.1158 15.6025 61.3109 15.5875 61.5083 15.5769C61.6981 15.567 61.8901 15.5621 62.083 15.5592C62.3215 15.5752 62.5584 15.5841 62.795 15.5891C63.391 15.5971 63.9845 15.5908 64.5762 15.5658C64.8712 15.5525 65.1656 15.5351 65.459 15.5053C65.7523 15.4746 66.045 15.4415 66.3333 15.3547L66.7517 15.2283L66.3096 15.2518C65.9134 15.2722 65.5132 15.2539 65.1146 15.2078C64.7149 15.1651 64.3152 15.1102 63.9151 15.0899C63.5137 15.0711 63.1115 15.0617 62.706 15.0492C62.2991 15.039 61.8901 15.031 61.4745 15.0438C61.2656 15.0508 61.0553 15.0622 60.8416 15.086C60.7355 15.0979 60.6279 15.1131 60.5196 15.1331C60.4649 15.1446 60.4108 15.1536 60.3554 15.1681L60.2736 15.1881L60.1986 15.2081C60.1745 15.2146 60.1501 15.2225 60.126 15.2293L60.1118 15.2284C59.8098 15.2136 59.5081 15.2025 59.2046 15.1948L58.7505 15.1852C58.598 15.1837 58.4514 15.1777 58.2917 15.1798C57.979 15.1847 57.6726 15.2114 57.3685 15.2411C56.7593 15.3016 56.1568 15.3806 55.5598 15.4121C55.2617 15.4259 54.9648 15.4339 54.6807 15.407L54.576 15.3953L54.4761 15.3806L54.2463 15.3378C54.0878 15.3104 53.9323 15.2891 53.7798 15.2681C53.4737 15.2272 53.1754 15.1903 52.8942 15.1266C52.8168 15.1094 52.7405 15.089 52.6667 15.0663C52.8676 14.9971 53.0724 14.9331 53.2779 14.8719C53.6744 14.7552 54.0763 14.6498 54.4798 14.5508C55.2855 14.3533 56.0967 14.1828 56.9086 14.0198C57.3123 13.9377 57.7161 13.8598 58.1193 13.7875C58.5218 13.7156 58.9242 13.6519 59.3265 13.5947C59.5281 13.5694 59.728 13.5412 59.9299 13.5181L60.5321 13.4544L61.1293 13.4081L61.7406 13.3816C62.1365 13.371 62.5483 13.364 62.9498 13.3637C63.1517 13.3611 63.3533 13.3642 63.5545 13.3661C63.7559 13.3676 63.9566 13.3697 64.1568 13.377C64.5586 13.3847 64.9583 13.4057 65.3576 13.4257L65.9536 13.4691C66.1529 13.4833 66.3477 13.5072 66.5448 13.5255C66.7397 13.542 66.9396 13.5721 67.1374 13.5984L67.4309 13.6374C67.5248 13.6515 67.6231 13.669 67.7198 13.6862C67.9138 13.7214 68.1082 13.7598 68.3021 13.7998C68.4958 13.8384 68.6901 13.8792 68.8821 13.9226C69.2671 14.0089 69.6503 14.1015 70.0242 14.2136C70.2099 14.2713 70.3958 14.3299 70.5693 14.4074C70.6393 14.4385 70.7061 14.4742 70.767 14.514C70.1761 14.0368 67.8 13.5542 67.375 13.4848C65.593 13.1939 63.5026 13.1408 61.7019 13.1683Z" fill="#E1EEF4"/>
<path d="M71.0215 14.564C70.9958 14.5079 70.9577 14.4637 70.9175 14.4259C70.8374 14.3508 70.7496 14.2935 70.6604 14.2409C70.4817 14.1371 70.2971 14.0523 70.1098 13.9779C69.7337 13.8267 69.35 13.7071 68.9641 13.5971C68.5768 13.4884 68.1867 13.3918 67.7921 13.3082C67.693 13.287 67.5951 13.2665 67.4912 13.2477L67.1908 13.2008C66.9928 13.171 66.7965 13.1376 66.5929 13.1162C66.3911 13.0928 66.1877 13.0645 65.9861 13.046L65.3805 12.9903C64.976 12.9618 64.5708 12.9327 64.1642 12.917C63.9613 12.9058 63.7575 12.8996 63.5542 12.8938C63.3504 12.8876 63.147 12.8808 62.9428 12.8796C62.5327 12.8719 62.1302 12.8709 61.7117 12.8738L61.0989 12.8883L60.473 12.9244L59.8527 12.979C59.646 13.0012 59.441 13.0287 59.2343 13.0532C58.8223 13.1092 58.411 13.1717 58.0022 13.2426C57.5924 13.313 57.1834 13.3894 56.7753 13.4697C56.3658 13.5484 55.9591 13.6372 55.5501 13.7264C55.1408 13.8168 54.731 13.9119 54.3222 14.0139C53.9122 14.1164 53.5024 14.2254 53.094 14.3477C52.6842 14.4712 52.2762 14.605 51.8691 14.7794L51.4795 14.9468L51.7877 15.2198C51.9395 15.3537 52.1098 15.4386 52.2749 15.5015C52.4404 15.5643 52.6049 15.606 52.7663 15.6391C53.0897 15.7049 53.4059 15.7389 53.7124 15.7705C53.8658 15.7857 54.0171 15.8006 54.1622 15.8201L54.3868 15.8539C54.4262 15.8599 54.4736 15.8645 54.5161 15.8694L54.6413 15.8795C54.9703 15.8993 55.2886 15.8833 55.6014 15.8537C56.2247 15.7929 56.8257 15.6861 57.4224 15.6005C57.7203 15.5578 58.0167 15.5191 58.309 15.5018C58.6014 15.4887 58.9108 15.4811 59.2092 15.4733C59.2897 15.4717 59.3696 15.4721 59.4504 15.4709C59.3879 15.5015 59.3245 15.5368 59.2579 15.5843C59.2005 15.6274 59.1361 15.6774 59.0756 15.7724C59.0463 15.8221 59.0172 15.8834 59.0117 15.963C59.0094 15.9822 59.0099 16.0015 59.0114 16.0218L59.0141 16.0514L59.0162 16.0659L59.0211 16.0891L59.0239 16.0978C59.0246 16.1016 59.0307 16.1216 59.0345 16.132C59.0452 16.1612 59.0529 16.1761 59.0611 16.1913C59.1335 16.3132 59.2062 16.3578 59.267 16.4019C59.3295 16.4437 59.3872 16.4728 59.4429 16.4996C59.5548 16.5515 59.66 16.5901 59.766 16.6255C59.9759 16.6942 60.1816 16.7475 60.3872 16.7953C60.5946 16.8431 60.7948 16.8843 61.0063 16.9226C61.1068 16.9402 61.2067 16.9578 61.3169 16.973C61.4254 16.9897 61.5279 17.0003 61.6336 17.0131C62.0542 17.0577 62.4737 17.072 62.8904 17.0681C63.3057 17.0645 63.7184 17.0372 64.1268 16.9974C64.3313 16.9777 64.5344 16.9528 64.7362 16.927C64.9379 16.8976 65.1386 16.8674 65.3383 16.8324C65.7377 16.7644 66.1318 16.6836 66.523 16.5954C66.9138 16.5059 67.3003 16.4087 67.6827 16.302L67.9687 16.2212L68.0047 16.2106L68.0446 16.1981L68.1142 16.1757L68.2542 16.1303C68.4376 16.0744 68.6295 15.9967 68.8155 15.9244C69.1816 15.7714 69.5304 15.5959 69.8673 15.4079C70.2029 15.2193 70.5332 15.0295 70.8589 14.8216C69.7222 15.2679 69.015 15.6737 67.8515 15.9967C65.6991 16.5941 63.0655 17.0355 60.9576 16.6563C60.6877 16.6072 59.3068 16.3609 59.2504 16.0616C59.2019 15.7999 60.0229 15.5708 60.29 15.4965C60.4122 15.4627 60.5495 15.4369 60.6959 15.4157C59.9175 15.3725 59.1424 15.372 58.3512 15.3797C57.1996 15.3908 55.3701 15.8525 54.2665 15.6438C53.5887 15.5151 52.4095 15.5129 51.9224 15.0677C53.0777 14.564 55.3067 14.0824 56.5501 13.8296C58.2851 13.4777 59.9472 13.1951 61.7024 13.168C63.5031 13.1405 65.5934 13.1936 67.3763 13.4842C67.8013 13.5535 70.1773 14.0359 70.7682 14.5134C70.782 14.5226 70.7978 14.5307 70.8107 14.5404C70.8442 14.5664 70.8755 14.594 70.8946 14.6224C70.9049 14.6367 70.9115 14.6506 70.9141 14.6642C70.916 14.6716 70.9163 14.6776 70.917 14.6818C70.9194 14.6847 70.9129 14.7022 70.9115 14.7119L71.0275 14.7483C71.0318 14.7355 71.0366 14.7317 71.0402 14.7105C71.0451 14.6917 71.0465 14.6738 71.0456 14.6578C71.045 14.6243 71.035 14.592 71.0215 14.564Z" fill="#293644"/>
<path d="M93.6687 21.5489C93.3376 21.2544 92.9927 20.9993 92.6429 20.7525C92.2935 20.5072 91.9392 20.2747 91.5827 20.0485C91.2266 19.8222 90.8678 19.603 90.5082 19.3878C90.1485 19.1741 89.7901 18.9612 89.4266 18.7577C89.0649 18.5522 88.7007 18.3508 88.3339 18.1547C87.9685 17.9588 87.5982 17.769 87.2248 17.5862C87.0365 17.4977 86.8506 17.4072 86.6612 17.3208L86.0894 17.0731L85.5073 16.8414L84.9306 16.634C84.5344 16.4989 84.1521 16.3733 83.7602 16.251C83.5663 16.1878 83.3711 16.1301 83.1758 16.0717C82.9809 16.0129 82.7858 15.9541 82.5894 15.9007C82.1985 15.7876 81.8053 15.6871 81.412 15.5867L80.82 15.4481C80.6228 15.4024 80.4207 15.365 80.2217 15.3234C80.0222 15.2795 79.8252 15.2491 79.6281 15.2153L79.3281 15.1647C79.2236 15.1501 79.1245 15.1386 79.0237 15.1273C78.623 15.0821 78.2219 15.0506 77.8206 15.0318C77.4191 15.0143 77.0174 15.0067 76.6134 15.0313C76.4119 15.0431 76.21 15.0648 76.0074 15.1072C75.9066 15.129 75.8048 15.1554 75.7049 15.2016C75.6554 15.2249 75.605 15.2548 75.5623 15.2995C75.5409 15.3222 75.5216 15.3496 75.5098 15.3815C75.504 15.3962 75.4994 15.4136 75.4985 15.4333C75.4951 15.4543 75.4987 15.4591 75.4989 15.4729L75.6205 15.475C75.6217 15.4652 75.6212 15.4463 75.6248 15.4444C75.6265 15.4406 75.6287 15.4353 75.6325 15.4288C75.6398 15.4167 75.6499 15.4054 75.6641 15.3952C75.6916 15.3744 75.7298 15.358 75.7703 15.3438C75.7857 15.3385 75.8031 15.3359 75.8194 15.3316C76.5308 15.0652 78.9371 15.3573 79.3626 15.4258C81.1459 15.7126 83.1459 16.3219 84.8462 16.9162C86.503 17.496 87.9909 18.2885 89.5265 19.1703C90.6264 19.8022 92.5892 20.9629 93.5267 21.8055C92.9242 22.0742 91.8043 21.7042 91.1206 21.6119C90.0074 21.4619 88.4171 20.4467 87.3279 20.0726C86.5797 19.8155 85.8438 19.5711 85.0915 19.3662C85.2237 19.4327 85.3464 19.5008 85.4516 19.5714C85.681 19.7256 86.3881 20.2026 86.2596 20.4354C86.1118 20.7021 84.723 20.4998 84.4516 20.4607C82.3323 20.1554 79.9718 18.9055 78.1185 17.6598C77.1161 16.9858 76.573 16.3774 75.6355 15.5951C75.8791 15.8952 76.1326 16.1798 76.3916 16.4644C76.6516 16.7493 76.9273 17.0257 77.2263 17.2866C77.3802 17.4137 77.5377 17.5481 77.6943 17.6595L77.8127 17.7465L77.8717 17.7895L77.9057 17.8144L77.9362 17.8355L78.1821 18.0024C78.5118 18.2246 78.8474 18.4388 79.1894 18.6465C79.5331 18.8539 79.882 19.055 80.2393 19.2456C80.4173 19.3418 80.5984 19.4337 80.7808 19.5253C80.9643 19.6136 81.1493 19.7014 81.3367 19.7848C81.7117 19.9518 82.095 20.1076 82.4874 20.2422C82.8822 20.3772 83.2845 20.4961 83.6977 20.5866C83.8016 20.6075 83.9029 20.6302 84.0105 20.6479C84.1205 20.6684 84.2208 20.6835 84.3214 20.6983C84.5346 20.7287 84.7375 20.7528 84.9492 20.773C85.1591 20.7923 85.3713 20.807 85.5923 20.8077C85.7034 20.808 85.8163 20.8046 85.9384 20.7904C85.9998 20.7826 86.0633 20.7728 86.1359 20.7532C86.2078 20.7305 86.2909 20.7108 86.3978 20.6182C86.4104 20.6063 86.4227 20.5948 86.4425 20.5704C86.449 20.5617 86.461 20.5448 86.4629 20.5413L86.468 20.5337L86.4803 20.5135L86.4866 20.5003L86.4981 20.4728C86.5063 20.4542 86.5124 20.4368 86.5163 20.4175C86.5365 20.3403 86.5283 20.2731 86.5163 20.2163C86.4888 20.1069 86.4436 20.0395 86.4022 19.9809C86.3539 19.9142 86.3047 19.8603 86.2551 19.8114C86.3312 19.8381 86.4079 19.8632 86.4839 19.8903C86.764 19.9918 87.0556 20.0972 87.3291 20.2017C87.6009 20.3106 87.8698 20.4406 88.1389 20.5752C88.6787 20.8444 89.2151 21.1358 89.787 21.39C90.0743 21.5171 90.3712 21.6328 90.69 21.7178L90.8116 21.7479C90.8541 21.7566 90.9006 21.7669 90.9392 21.7739L91.1635 21.8126C91.3067 21.8401 91.4553 21.8735 91.6056 21.9078C91.9066 21.9748 92.2173 22.0417 92.545 22.0819C92.7083 22.1008 92.8774 22.114 93.0541 22.1063C93.231 22.0991 93.4195 22.072 93.6057 21.9929L93.9844 21.8313L93.6687 21.5489Z" fill="#293644"/>
<path opacity="0.5" d="M84.4526 20.4607C84.724 20.4998 86.1128 20.7019 86.2606 20.4354C86.3891 20.2027 85.6818 19.7258 85.4526 19.5713C85.3474 19.5008 85.2247 19.4326 85.0925 19.3662C85.8448 19.571 86.5807 19.8154 87.3289 20.0725C88.4181 20.4465 90.0085 21.4619 91.1216 21.6119C91.8053 21.7041 92.9252 22.0741 93.5277 21.8054C92.5902 20.9629 90.6274 19.8021 89.5275 19.1702C87.9919 18.2884 86.504 17.4958 84.8472 16.9162C83.1471 16.3219 81.1471 15.7125 79.3636 15.4257C78.9381 15.3572 76.5318 15.0651 75.8204 15.3316C75.8904 15.3133 75.9652 15.3003 76.0412 15.2926C76.23 15.2738 76.4253 15.2774 76.6202 15.2814C77.0098 15.2928 77.4024 15.3256 77.7953 15.3654C77.991 15.3847 78.188 15.4074 78.3843 15.432C78.5804 15.4554 78.7775 15.4804 78.9726 15.5084C79.0696 15.5224 79.1684 15.5364 79.2625 15.5528L79.5527 15.6083C79.7487 15.6461 79.9479 15.6804 80.1383 15.7262C80.3312 15.7713 80.5236 15.8101 80.7166 15.8591L81.2962 16.006C81.6816 16.1133 82.0673 16.2194 82.451 16.3386C82.6435 16.3953 82.8347 16.4565 83.026 16.5188C83.2177 16.58 83.4104 16.641 83.6007 16.7072C83.9816 16.8345 84.3704 16.9712 84.7426 17.106L85.3144 17.3238L85.8663 17.5561L86.4178 17.8065C86.6017 17.8921 86.7832 17.9821 86.9663 18.0696C87.3301 18.251 87.6916 18.4386 88.051 18.6338C88.411 18.8296 88.7692 19.031 89.1264 19.2365C89.8454 19.6473 90.5615 20.0652 91.2634 20.5071C91.6152 20.7285 91.9635 20.955 92.3027 21.1909C92.4783 21.3136 92.6521 21.4388 92.8205 21.5676C92.7435 21.5661 92.6651 21.5616 92.5863 21.5534C92.2998 21.5258 92.0048 21.4661 91.7016 21.4082C91.5499 21.3802 91.3958 21.3512 91.2366 21.3274L91.005 21.2953L90.9057 21.2777L90.8029 21.2558C90.5246 21.192 90.2456 21.09 89.967 20.983C89.4101 20.7646 88.8637 20.4994 88.3049 20.25C88.0252 20.1257 87.7432 20.0037 87.4477 19.9005C87.297 19.8481 87.1559 19.8072 87.0109 19.7608L86.5766 19.6268C86.2867 19.5382 85.9967 19.4535 85.7054 19.3723L85.6917 19.3687C85.6711 19.3547 85.6504 19.3393 85.6294 19.3257L85.5647 19.2831L85.4931 19.238C85.4454 19.207 85.3969 19.1813 85.3482 19.1535C85.2519 19.1002 85.1552 19.0518 85.0575 19.0071C84.8627 18.9171 84.6666 18.8398 84.4708 18.7676C84.0807 18.6239 83.6897 18.5021 83.3007 18.3839C82.9119 18.2672 82.5268 18.1495 82.1403 18.0405C81.7538 17.9336 81.3572 17.8596 80.965 17.7739C80.5719 17.6919 80.1865 17.5831 79.817 17.4386L79.4053 17.2768L79.762 17.5288C80.0082 17.7025 80.2752 17.826 80.5434 17.948C80.8124 18.0682 81.0866 18.1781 81.3625 18.2838C81.9163 18.4939 82.4771 18.6873 83.0456 18.8677C83.2716 18.9379 83.5 19.0047 83.7322 19.0648C83.9136 19.1279 84.0938 19.1931 84.2705 19.2623C84.4543 19.3347 84.635 19.4107 84.807 19.4939C84.893 19.5363 84.9763 19.5802 85.0563 19.6258C85.0952 19.6506 85.1355 19.673 85.1723 19.6981L85.2285 19.7351L85.2894 19.7779C85.4487 19.8891 85.6036 20.0054 85.7333 20.1257C85.7599 20.1497 85.7842 20.1747 85.8076 20.1989C85.7363 20.2044 85.6596 20.2065 85.5805 20.2054C85.3931 20.2024 85.1972 20.1865 85.0009 20.1655C84.8062 20.1444 84.6039 20.1169 84.4136 20.0871C84.3127 20.0708 84.2119 20.0544 84.1205 20.0353C84.0279 20.0191 83.9307 19.9955 83.8355 19.975C83.4544 19.888 83.0762 19.7794 82.7035 19.6509C82.3328 19.5216 81.9648 19.381 81.6037 19.2234C80.8842 18.9087 80.1804 18.5559 79.5024 18.1658C79.1633 17.9715 78.8295 17.7708 78.5018 17.5617L78.2569 17.4039L78.0175 17.245C77.8493 17.137 77.7027 17.0293 77.5455 16.9225C77.236 16.7009 76.9309 16.4681 76.6157 16.2394C76.3036 16.0103 75.9787 15.7885 75.6367 15.5948C76.5742 16.3772 77.1173 16.9855 78.1197 17.6596C79.9728 18.9054 82.3333 20.1554 84.4526 20.4607Z" fill="#E1EEF4"/>
<path d="M69.0434 16.6397C69.0149 17.3345 69.4315 17.9882 69.8263 18.5654C70.4105 19.4216 70.0998 20.5339 70.1237 21.4545C70.1602 22.8875 69.6334 28.5796 70.8533 29.9288L70.8582 29.9304C72.4095 29.2795 73.6712 23.878 74.1608 22.5479C74.476 21.6926 74.5361 20.2479 75.3614 19.677C75.9735 19.2529 76.8175 18.8044 76.9655 18.0323L73.3146 14.3064C73.3147 14.3067 69.0456 16.5943 69.0434 16.6397Z" fill="#D4DFE5"/>
<path d="M76.3881 18.0395C76.2866 18.0832 76.186 18.129 76.0854 18.1755C76.214 18.0933 76.3404 18.0062 76.4602 17.9062C76.5951 17.7937 76.3439 17.6633 76.2451 17.6864C76.0724 17.726 75.9021 17.7718 75.7328 17.8198C75.8131 17.7147 75.8828 17.6008 75.937 17.4751C75.9945 17.3411 75.8006 17.2622 75.6988 17.279C74.6317 17.4611 73.8976 18.1876 72.9533 18.6586C72.4902 18.8893 72.0084 19.0925 71.5122 19.2493C71.4452 19.2672 71.38 19.2867 71.3145 19.3063C71.1876 19.3384 71.0597 19.3641 70.9288 19.3798C70.8168 19.4138 70.7308 19.3738 70.6709 19.2599C70.7609 19.1676 71.0364 19.121 71.1485 19.0926C71.5969 18.9804 72.0184 18.8289 72.4394 18.6404C72.8127 18.4735 73.1619 18.2691 73.4859 18.0248C74.1738 17.7949 74.8187 17.4532 75.3227 16.9236C75.4301 16.8112 75.1496 16.7178 75.084 16.7275C74.5035 16.8094 74.0649 17.1068 73.6234 17.4802C73.4835 17.5993 73.3418 17.7094 73.1974 17.8136C72.9196 17.9032 72.6371 17.9793 72.3559 18.0455C72.168 18.09 71.9692 18.1194 71.7664 18.1449C72.0418 17.9964 72.3146 17.8406 72.5935 17.6917C73.3484 17.2895 74.2089 17.0374 74.8286 16.4293C74.974 16.2873 74.6781 16.1886 74.5732 16.2183C73.7774 16.4419 73.0423 16.7977 72.2939 17.1488C72.2971 17.1469 72.3002 17.1454 72.3038 17.144C72.9627 16.8157 73.6101 16.4698 74.2454 16.1054C74.4041 16.0148 74.1334 15.8871 74.015 15.8905C74.0746 15.8606 74.1342 15.8312 74.1935 15.8008C74.3922 15.6985 74.105 15.5189 73.9699 15.5719C73.2579 15.8486 72.5647 16.1669 71.8894 16.5311C71.352 16.8196 70.6796 17.3748 70.0282 17.527C70.3999 17.1712 70.9712 16.9821 71.4015 16.7291C72.0515 16.3464 72.6969 15.9603 73.3303 15.5572C73.4454 15.4843 73.3201 15.3884 73.2003 15.3527C73.3435 15.2661 73.4868 15.1792 73.6293 15.091C73.7476 15.0177 73.6012 14.904 73.4762 14.8756C73.5225 14.7965 73.5367 14.7215 73.494 14.6585C73.4439 14.5848 73.34 14.5386 73.2551 14.5567C73.1392 14.5816 73.0454 14.6535 72.9485 14.7184C72.5421 14.9889 72.1528 15.247 71.7107 15.4634C71.1529 15.7367 70.5733 15.9653 70.0089 16.2301C69.8463 16.2776 69.6832 16.3261 69.5195 16.3784C69.4353 16.4052 69.4327 16.4547 69.4688 16.5017C69.4308 16.5222 69.3924 16.5415 69.3548 16.5623C69.3142 16.5856 69.309 16.6448 69.3335 16.6838C69.4271 16.8355 69.5877 16.8823 69.773 16.872C69.6148 16.9477 69.4563 17.022 69.2961 17.0946C69.121 17.1737 69.3176 17.3369 69.4378 17.3375C69.5588 17.3381 69.6729 17.3172 69.7828 17.2837C69.67 17.3808 69.5675 17.4892 69.4853 17.6198C69.4133 17.7339 69.6029 17.8147 69.6838 17.8198C69.7628 17.8251 69.8395 17.8239 69.915 17.8174C69.8683 17.8517 69.8202 17.8833 69.7739 17.9185C69.6223 18.0332 69.9259 18.1883 70.0344 18.1309C70.0457 18.1249 70.0566 18.1187 70.0675 18.1131C70.0677 18.1131 70.0677 18.1131 70.068 18.1131C70.1061 18.0929 70.1435 18.0718 70.1816 18.0516C70.1676 18.0646 70.1529 18.076 70.1391 18.089C70.0016 18.2207 70.2583 18.3162 70.3589 18.3113C70.9794 18.2815 71.5127 17.9117 72.0305 17.616C72.577 17.3037 73.1685 17.0227 73.7707 16.7907C73.3187 17.0412 72.8247 17.2318 72.3682 17.4628C71.827 17.7373 71.3175 18.0518 70.766 18.2945C70.5216 18.3497 70.2882 18.4286 70.0791 18.553C69.9049 18.6562 70.2426 18.7928 70.3395 18.7646C70.5493 18.7045 70.7505 18.6305 70.9469 18.5475C71.2573 18.4876 71.5874 18.4713 71.8803 18.4206C72.0465 18.3917 72.2105 18.3562 72.3745 18.3201C72.1371 18.443 71.8909 18.554 71.6304 18.6551C71.2548 18.8005 70.6259 18.8143 70.3301 19.1162C70.1868 19.2624 70.4001 19.507 70.5431 19.5639C70.5609 19.5713 70.5793 19.5759 70.5974 19.5819C70.544 19.6082 70.4884 19.6323 70.437 19.6616C70.3391 19.7168 70.4457 19.8396 70.5142 19.8629C70.7688 19.9491 71.0158 19.956 71.2568 19.9172C71.0694 19.9919 70.883 20.0667 70.6951 20.1408C70.5387 20.2023 70.6666 20.3289 70.7987 20.3668C70.4592 20.5733 70.2283 20.791 70.4392 20.9302C70.6439 21.0648 70.9355 20.9319 71.1273 20.8608C71.3269 20.7869 71.5221 20.7039 71.7175 20.6202C71.6926 20.6369 71.6675 20.6521 71.6427 20.6688C71.5974 20.6991 71.5898 20.7315 71.6038 20.7616C71.4885 20.8267 71.3726 20.8918 71.2584 20.9592C71.1912 20.9989 71.2045 21.0479 71.2505 21.0891C70.9039 21.1969 70.5662 21.326 70.3132 21.5843C70.1992 21.7006 70.3849 21.7978 70.4872 21.8072C70.9261 21.8491 71.3665 21.7734 71.8026 21.6395C71.7382 21.7374 71.9136 21.8277 71.9979 21.834C72.2245 21.8504 72.4446 21.8238 72.6596 21.7734C72.6241 21.7912 72.5877 21.8084 72.5527 21.8267C72.3902 21.9121 72.2204 21.9823 72.0467 22.0443C71.53 22.183 71.0146 22.3301 70.5245 22.5469C70.3203 22.6373 70.6119 22.8354 70.7515 22.7748C71.1309 22.6086 71.5283 22.4931 71.9218 22.3687C71.9634 22.3571 72.004 22.3448 72.0455 22.3334C71.552 22.5923 71.0638 22.8612 70.6113 23.1947C70.4469 23.3161 70.7705 23.4376 70.8711 23.4041C70.9488 23.3778 71.0248 23.3484 71.101 23.319C70.9649 23.4405 70.8397 23.5743 70.729 23.7249C70.6396 23.8478 70.8916 23.94 70.9722 23.9202C71.3251 23.8329 71.6598 23.7092 71.9868 23.5688C71.7322 23.7881 71.505 24.0343 71.3345 24.3288C71.2836 24.4169 71.3646 24.4771 71.4516 24.5054C71.3719 24.5584 71.2929 24.6127 71.2138 24.6679C71.0518 24.7815 71.3854 24.9368 71.5057 24.8582C71.6593 24.7581 71.8111 24.6564 71.9603 24.5524C72.2201 24.3906 72.4921 24.2593 72.7941 24.2101C72.654 24.4286 72.3658 24.5567 72.1485 24.6534C71.9456 24.7432 72.2351 24.9412 72.374 24.8794C72.7179 24.7268 73.1605 24.5184 73.2333 24.1013C73.251 23.9953 73.1031 23.9368 73.0257 23.935C72.9254 23.9325 72.8288 23.9397 72.7341 23.9516C72.9126 23.7958 73.0843 23.6315 73.2461 23.4533C73.3537 23.3341 73.0478 23.2242 72.9653 23.2693C72.613 23.4627 72.3233 23.8131 71.983 24.0468C72.5107 23.4584 73.2792 23.0794 73.8959 22.6263C74.049 22.5131 73.7449 22.3667 73.6392 22.4176C72.9 22.7729 72.1914 23.1991 71.4189 23.4846C71.9985 22.9668 72.7872 22.6808 73.4193 22.2587C73.5517 22.1704 73.3689 22.0642 73.2401 22.0462C73.297 22.0151 73.3541 21.984 73.4106 21.9521C73.4108 21.9521 73.4108 21.9521 73.4109 21.9521V21.9517C73.4219 21.9459 73.4328 21.94 73.4436 21.9338C73.5348 21.8822 73.4829 21.8175 73.4 21.7732C73.7854 21.592 74.1697 21.3815 74.4427 21.1019C74.5847 20.9562 74.2938 20.8612 74.1865 20.8926C73.6228 21.0592 73.0556 21.4162 72.4605 21.5402C73.0501 21.1289 73.7521 20.8339 74.3964 20.5686C74.6038 20.4826 74.3074 20.297 74.1725 20.3412C73.5988 20.532 73.046 20.7893 72.4854 21.0209C72.003 21.2198 71.4623 21.4654 70.9199 21.5387C71.4341 21.2285 72.1477 21.1063 72.6651 20.8846C73.5348 20.5115 74.3988 20.1384 75.214 19.6668C75.3479 19.5894 75.1602 19.4722 75.0475 19.4503C75.4016 19.2571 75.7552 19.0634 76.1107 18.8728C76.3141 18.7629 76.0177 18.6097 75.8879 18.6457C75.8274 18.6625 75.7697 18.6821 75.7097 18.6992C76.0063 18.5477 76.3049 18.4009 76.6102 18.2674C76.8094 18.1794 76.5243 17.9816 76.3881 18.0395ZM71.996 17.2955C71.6608 17.4751 71.3277 17.698 70.9761 17.8572C71.2995 17.6444 71.6501 17.466 71.996 17.2955ZM71.4753 19.5855C71.3542 19.6304 71.231 19.6652 71.1085 19.6835C71.1711 19.6608 71.2349 19.64 71.2999 19.6201C71.3583 19.6109 71.4165 19.5991 71.4753 19.5855ZM73.5947 18.6228C74.1945 18.2494 74.7746 17.8376 75.4352 17.6274C75.3206 17.7877 75.1783 17.9264 75.0181 18.0478C74.5372 18.2175 74.0654 18.4127 73.5947 18.6228ZM71.0571 20.5689C71.1987 20.4864 71.3489 20.4158 71.4939 20.3451C71.8711 20.1611 72.2609 20.0047 72.6463 19.842C73.3593 19.5412 74.0355 19.1671 74.7213 18.8167C74.8507 18.7677 74.9784 18.7171 75.1059 18.6652C74.5105 18.9814 73.9205 19.3142 73.3095 19.6048C72.5761 19.9536 71.8164 20.264 71.0571 20.5689ZM73.9906 19.6705C73.9371 19.6987 73.8834 19.7271 73.83 19.7551C73.8269 19.7563 73.8237 19.7575 73.8204 19.7585C73.836 19.7495 73.8513 19.7406 73.8669 19.7312C73.908 19.7112 73.9492 19.6903 73.9906 19.6705Z" fill="#DFEEF6"/>
<path d="M81.5437 22.3901C81.446 22.2929 81.3021 22.1513 81.1163 21.9736C80.7502 21.6116 80.2275 21.0942 79.6091 20.4622C79.3006 20.1439 78.9615 19.8034 78.6114 19.4328C78.2541 19.0696 77.8849 18.6765 77.4983 18.2737C77.1131 17.8678 76.7146 17.4477 76.3084 17.0197C75.9013 16.5919 75.4884 16.1541 75.0781 15.7123C74.6214 15.2255 74.1676 14.7362 73.7191 14.2548C74.0229 14.0872 74.3242 13.921 74.6192 13.7584C74.8707 13.6223 75.1173 13.4876 75.3589 13.3559C75.6022 13.2256 75.8406 13.0978 76.0723 12.9736C76.5373 12.7181 76.9739 12.4654 77.3649 12.2116C77.7578 11.9589 78.1066 11.7073 78.3967 11.4594C78.6883 11.2127 78.9199 10.9676 79.0858 10.7466C79.2522 10.5243 79.3501 10.3267 79.403 10.1863C79.4309 10.1166 79.4459 10.0614 79.4555 10.0236C79.4656 9.98604 79.471 9.96691 79.471 9.96691C79.471 9.96691 79.4644 9.9857 79.4521 10.0221C79.4393 10.0588 79.4212 10.1135 79.3884 10.1796C79.3277 10.3139 79.217 10.5011 79.0397 10.7064C78.8614 10.9109 78.6193 11.1343 78.3171 11.3562C78.0158 11.5792 77.6572 11.8031 77.2532 12.0237C76.8483 12.2425 76.3991 12.4574 75.918 12.6738C75.6797 12.7862 75.43 12.8939 75.1806 13.0208C74.9344 13.1472 74.6817 13.2768 74.4264 13.4077C74.0968 13.579 73.7603 13.7562 73.4216 13.9354C73.1585 13.6539 72.8975 13.3749 72.6407 13.104C72.4422 12.8964 72.2463 12.6919 72.0548 12.4917C71.86 12.29 71.6598 12.1063 71.4717 11.9225C71.0879 11.5604 70.7336 11.2104 70.4229 10.8709C70.1132 10.5305 69.847 10.2013 69.6359 9.89209C69.4225 9.5834 69.2676 9.29317 69.1661 9.04171C69.0653 8.78923 69.0224 8.57621 69.0081 8.42947C68.9997 8.35653 68.9999 8.29862 69.0002 8.26001C69.0004 8.2214 69.0004 8.20142 69.0004 8.20142C69.0004 8.20142 68.9987 8.2214 68.996 8.26001C68.993 8.29879 68.9889 8.35601 68.9924 8.43084C68.9965 8.58065 69.0246 8.79965 69.1095 9.06426C69.1936 9.32751 69.3321 9.63465 69.5269 9.96332C69.7201 10.2928 69.9671 10.6446 70.2558 11.0115C70.5426 11.3795 70.872 11.7613 71.228 12.1549C71.4065 12.3484 71.5898 12.5471 71.7767 12.7497C71.9618 12.9531 72.1515 13.1612 72.3441 13.3722C72.5703 13.6236 72.802 13.8805 73.0355 14.1397C72.453 14.4487 71.8621 14.763 71.2697 15.0743C70.7375 15.3572 70.2044 15.6365 69.6793 15.9071C69.4973 16.0017 68.4561 16.541 68.1445 16.7026C67.6474 16.9566 67.17 17.2072 66.7134 17.4336C66.2615 17.6691 65.8295 17.8794 65.4342 18.0793C64.6428 18.4741 63.9795 18.7925 63.5153 19.0146C63.2816 19.1215 63.099 19.2088 62.9748 19.2684C62.851 19.3274 62.7842 19.3596 62.7842 19.3596C62.7842 19.3596 62.8551 19.3366 62.9871 19.2949C63.1188 19.2525 63.3125 19.1907 63.5579 19.1084C63.8037 19.0269 64.097 18.9138 64.4357 18.7899C64.7745 18.6637 65.1503 18.5069 65.5639 18.3412C65.9728 18.1647 66.4183 17.977 66.8835 17.7648C67.3502 17.5523 67.8393 17.3213 68.3444 17.0794C68.5586 16.973 68.7776 16.8642 68.9973 16.755C69.0006 16.8777 69.0153 17.0002 69.0429 17.1196C69.1089 17.4165 69.236 17.6949 69.3827 17.9565C69.5267 18.2183 69.7059 18.4647 69.8588 18.7102C70.0028 18.9587 70.0795 19.244 70.112 19.53C70.176 20.1072 70.0807 20.6856 70.0699 21.2753C70.0701 21.2915 70.0698 21.3071 70.0699 21.3226C70.0286 21.3513 69.9917 21.3805 69.9623 21.4102C69.9082 21.4634 69.8766 21.5172 69.8667 21.5568C69.8561 21.5968 69.8581 21.6181 69.8581 21.6181C69.8581 21.6181 69.8615 21.5956 69.88 21.5631C69.8979 21.5302 69.936 21.489 69.9946 21.4526C70.0163 21.4393 70.0431 21.427 70.0698 21.4145C70.071 21.6624 70.0675 21.9053 70.0578 22.1527L70.0269 23.0295C69.9838 24.1986 69.9514 25.3721 69.9997 26.5479C70.0253 27.1358 70.0745 27.7245 70.1743 28.3086C70.2245 28.6003 70.29 28.8909 70.3836 29.1758C70.4791 29.4575 70.6012 29.7404 70.8067 29.9733L70.819 29.9878L70.838 29.9929L70.8434 29.9941L70.8655 29.9999L70.8843 29.9915C71.1689 29.8663 71.3819 29.6431 71.5654 29.4118C71.7486 29.1779 71.9027 28.9247 72.044 28.6659C72.3248 28.147 72.5534 27.603 72.7637 27.0537C73.0907 26.1948 73.3669 25.3188 73.6312 24.4409L73.6462 24.4363C73.6462 24.4363 73.6445 24.4243 73.6414 24.4067C73.7118 24.1723 73.7817 23.938 73.8514 23.7036C73.9352 23.4233 74.0186 23.1428 74.1073 22.8652C74.1506 22.7258 74.2005 22.5912 74.2482 22.4511C74.2941 22.3096 74.3321 22.1673 74.3679 22.0249C74.3795 21.9772 74.3905 21.9292 74.4018 21.8816C74.4332 21.9048 74.4626 21.927 74.4889 21.9463C74.6069 22.0329 74.6752 22.0823 74.6752 22.0823C74.6752 22.0823 74.612 22.0266 74.5017 21.9297C74.4738 21.9053 74.4431 21.8778 74.4098 21.8477C74.4636 21.6214 74.5155 21.395 74.5755 21.1725C74.6512 20.8925 74.7403 20.6159 74.8667 20.3614C74.993 20.1087 75.1626 19.8776 75.3879 19.7206C75.6196 19.5604 75.8601 19.4105 76.0904 19.2425C76.32 19.0756 76.5426 18.8911 76.7231 18.6611C76.807 18.5545 76.8784 18.4341 76.9324 18.3051C77.0169 18.3914 77.1034 18.4794 77.1869 18.5646C77.5855 18.9587 77.9713 19.3369 78.3431 19.6898C78.7131 20.0429 79.0727 20.3663 79.4013 20.6668C79.7377 20.9591 80.0418 21.2304 80.32 21.4601C80.5999 21.6882 80.8397 21.8906 81.0455 22.0483C81.2504 22.2063 81.4128 22.3286 81.5244 22.4113C81.6346 22.494 81.6942 22.5386 81.6942 22.5386C81.6942 22.5386 81.6417 22.4868 81.5437 22.3901ZM74.2706 21.9963C74.2355 22.1378 74.1976 22.2786 74.1532 22.415C74.1069 22.5514 74.0546 22.6896 74.0111 22.83C73.9204 23.1089 73.8365 23.3894 73.7514 23.6694C73.6974 23.8496 73.6424 24.029 73.5883 24.2089C73.5717 24.1655 73.5519 24.1199 73.5254 24.069C73.4866 23.9979 73.4368 23.9192 73.3715 23.8423C73.3102 23.7613 73.2309 23.6863 73.1443 23.6081C73.0548 23.5357 72.9567 23.4607 72.8489 23.3982C72.7405 23.3351 72.624 23.2781 72.5015 23.234C72.3793 23.1879 72.2519 23.1537 72.1236 23.1305C71.8662 23.0814 71.605 23.0749 71.3643 23.0989C71.2435 23.11 71.128 23.1301 71.0208 23.1571C70.9131 23.185 70.8125 23.2126 70.7237 23.2521C70.634 23.2878 70.5542 23.3271 70.4871 23.3681C70.4198 23.4079 70.3638 23.4467 70.3212 23.4841C70.2768 23.5182 70.2464 23.5505 70.2257 23.5724C70.2057 23.5943 70.1943 23.6059 70.1943 23.6059L70.2015 23.6156C70.2015 23.6156 70.216 23.6105 70.244 23.6004C70.271 23.5895 70.3108 23.575 70.3617 23.5592C70.387 23.5505 70.415 23.5423 70.4463 23.535C70.477 23.527 70.5091 23.5164 70.5459 23.5095C70.6171 23.4945 70.6964 23.4779 70.7854 23.4668C70.8728 23.4552 70.9687 23.4455 71.0698 23.4397C71.1716 23.4361 71.2777 23.433 71.3875 23.4361C71.4972 23.4371 71.6115 23.4458 71.7259 23.4561C71.84 23.4682 71.9564 23.4827 72.0712 23.503C72.1856 23.5246 72.2997 23.5452 72.4109 23.5744C72.522 23.6009 72.6305 23.6325 72.7335 23.6696C72.9402 23.7405 73.1229 23.842 73.2581 23.9581C73.3935 24.0738 73.4803 24.2026 73.5309 24.2938C73.5393 24.3068 73.5447 24.3186 73.5512 24.3312C73.277 25.2325 72.9918 26.1309 72.6544 27.0079C72.4439 27.5533 72.2133 28.093 71.936 28.6029C71.7961 28.8576 71.6443 29.1053 71.4661 29.3301C71.2985 29.5407 71.1039 29.7356 70.872 29.8482C70.7058 29.6451 70.594 29.3928 70.5079 29.1355C70.4189 28.8603 70.3554 28.5757 70.3072 28.2887C70.2093 27.7137 70.1668 27.1297 70.1378 26.5467C70.0841 25.3779 70.1102 24.2079 70.147 23.0389L70.1735 22.1614C70.1813 21.9005 70.1791 21.633 70.1762 21.3728C70.2795 21.3366 70.4025 21.305 70.5445 21.2813C70.7828 21.2398 71.0655 21.2099 71.3691 21.1991C71.5209 21.1931 71.6774 21.1897 71.8361 21.1897C71.9926 21.1877 72.1521 21.1858 72.3107 21.1841C72.3889 21.1834 72.467 21.1841 72.5394 21.189C72.6207 21.1953 72.7046 21.1981 72.7777 21.2054C72.928 21.2155 73.0823 21.2427 73.2287 21.2734C73.3727 21.312 73.5135 21.3566 73.6404 21.4152C73.7671 21.474 73.8857 21.5358 73.9909 21.6019C74.1146 21.6776 74.2207 21.7514 74.3128 21.8182C74.2991 21.8771 74.2853 21.9371 74.2706 21.9963ZM76.6466 18.5967C76.4752 18.8157 76.2586 18.9956 76.0321 19.1601C75.8049 19.3255 75.5651 19.4741 75.3312 19.6364C75.0888 19.8048 74.9091 20.05 74.7786 20.3125C74.6472 20.5766 74.5565 20.8583 74.4798 21.1419C74.4235 21.3508 74.3741 21.5611 74.3245 21.7712C74.2427 21.6971 74.1489 21.6149 74.0389 21.5276C73.8403 21.367 73.5869 21.2018 73.291 21.0655C73.1419 20.9986 72.987 20.9343 72.8173 20.8913C72.7306 20.8645 72.6525 20.8498 72.571 20.8339C72.4815 20.8161 72.3939 20.8089 72.3081 20.8035C72.1357 20.7936 71.9673 20.7994 71.8028 20.8164C71.6383 20.8351 71.4781 20.8604 71.3243 20.8902C71.0163 20.9514 70.7314 21.024 70.4956 21.1123C70.3761 21.1574 70.2681 21.2058 70.1767 21.2563C70.1873 20.6859 70.2789 20.1108 70.2127 19.5224C70.1777 19.2262 70.098 18.9268 69.9428 18.6606C69.7814 18.4035 69.6094 18.1691 69.4661 17.9098C69.3215 17.6543 69.1987 17.3849 69.1355 17.1022C69.1051 16.9718 69.0911 16.8399 69.0916 16.7082C69.3566 16.576 69.6239 16.4414 69.8933 16.3032C70.4198 16.0314 70.9535 15.7518 71.4859 15.468C72.0213 15.186 72.5526 14.8942 73.0779 14.6086C73.1628 14.5616 73.2463 14.5157 73.3308 14.4689C73.3947 14.5398 73.4574 14.6093 73.5215 14.6805C73.7326 14.912 73.945 15.1455 74.1585 15.3792L74.1811 15.4091C74.2455 15.493 74.3129 15.5741 74.3785 15.6566C74.4451 15.7385 74.5094 15.822 74.5775 15.9025L74.7844 16.1404C74.8526 16.2216 74.9233 16.2988 74.9962 16.3746L75.2125 16.6035L75.4382 16.8237C75.5116 16.8982 75.5926 16.9648 75.67 17.0357C75.7231 17.0849 75.7798 17.1302 75.8357 17.1758C75.8821 17.225 75.9293 17.275 75.9756 17.3237C76.272 17.6333 76.5661 17.9334 76.8565 18.2291C76.806 18.3617 76.7339 18.4857 76.6466 18.5967Z" fill="#293644"/>
<path d="M73.4805 24.274C73.4556 24.1897 73.2839 24.1735 73.2233 24.2128C73.0736 24.3068 72.9371 24.414 72.8111 24.5312C72.8024 24.5324 72.7938 24.534 72.7895 24.536C72.0876 24.8582 71.4959 25.417 70.8652 25.8821C70.7502 25.9669 70.6313 26.0408 70.5085 26.1109C70.8531 25.9146 71.1684 25.5852 71.4837 25.3307C71.9392 24.9626 72.3936 24.5956 72.8384 24.2145C72.9197 24.1441 72.6349 24.0939 72.5866 24.1153C72.0492 24.3481 71.5295 24.6438 70.9916 24.885C71.4475 24.4827 71.5001 24.3298 71.597 24.1173C71.783 24.084 71.9549 24.0435 72.076 23.9781C72.0297 23.9602 71.8708 23.9175 71.7227 23.8765C71.7736 23.7757 71.5193 23.7553 71.4684 23.783C71.1216 23.9701 70.7408 24.0372 70.3939 24.2249C70.2862 24.2828 70.5529 24.3804 70.6294 24.3389C70.7454 24.2764 70.9077 24.2371 71.0835 24.2046C70.7582 24.4914 70.379 24.7526 70.2893 25.1824C70.2693 25.2786 70.4783 25.2894 70.5263 25.2745C71.0184 25.1173 71.4851 24.8825 71.951 24.6471C71.3403 25.1491 70.7666 25.5965 70.1626 26.115C70.134 26.1394 70.1626 26.1797 70.1776 26.1923C70.4419 26.4023 70.7222 26.2472 70.974 26.0846C71.4275 25.7921 71.8351 25.425 72.2697 25.1073C71.7608 25.6419 71.2169 26.1368 70.6802 26.644C70.5984 26.7217 70.8853 26.765 70.9328 26.7428C71.2214 26.6104 71.4921 26.4505 71.753 26.2725C71.3975 26.6973 71.0205 27.0993 70.6081 27.4701C70.5276 27.5421 70.7982 27.5904 70.836 27.5781C71.1324 27.4831 71.4187 27.3647 71.7 27.2323C71.3136 27.6141 70.9325 28.0026 70.5773 28.4225C70.5111 28.5007 70.7828 28.5756 70.8481 28.5059C71.1399 28.1939 71.4325 27.8854 71.7309 27.5848C71.5637 27.8991 71.3934 28.2136 71.2282 28.5323C71.0466 28.7165 70.8788 28.9124 70.7448 29.1477C70.7089 29.2103 70.7881 29.2469 70.8713 29.2556C70.8577 29.285 70.8438 29.3137 70.8303 29.3431C70.788 29.4363 71.0608 29.4539 71.1095 29.4076C71.4996 29.0375 71.6151 28.7898 71.8129 28.3034C71.8133 28.3027 71.8128 28.3021 71.8131 28.3017C72.2479 27.7089 72.5661 27.0605 72.8792 26.3695C72.9134 26.2935 72.7692 26.2646 72.6797 26.2863C72.808 25.9891 72.9226 25.6838 73.0183 25.3679C73.1004 25.4127 73.2156 25.4054 73.217 25.3399C73.2229 24.9803 73.5878 24.6361 73.4805 24.274ZM73.1435 24.7226C73.1119 24.6988 73.0588 24.6869 73.0097 24.6845C73.0723 24.623 73.1379 24.5639 73.2065 24.5077C73.1942 24.5792 73.1708 24.6512 73.1435 24.7226ZM71.9317 25.7991C71.9243 25.8147 71.9166 25.829 71.9091 25.8444C71.9036 25.8563 71.903 25.8678 71.905 25.8785C71.8213 25.9428 71.7369 26.0056 71.6515 26.0668C71.7451 25.978 71.8389 25.8891 71.9317 25.7991ZM72.6133 25.6044C72.6548 25.547 72.5731 25.5108 72.4874 25.5008C72.5794 25.3809 72.6765 25.2656 72.779 25.1558C72.6204 25.7224 72.3987 26.2537 72.1477 26.7703C71.8438 26.9349 71.537 27.0904 71.222 27.2253C71.7292 26.7284 72.1889 26.1876 72.6133 25.6044Z" fill="white"/>
<path opacity="0.5" d="M77.1031 16.1332C77.1714 16.1053 77.2425 16.0857 77.313 16.0703C77.455 16.0379 77.5976 16.0228 77.7392 16.01C77.8815 15.9984 78.0225 15.995 78.1632 15.9912L78.583 15.9936C78.7224 15.9965 78.8612 16.0028 78.9958 16.0027L79.4106 15.9933C79.6933 15.988 79.9757 15.9893 80.256 15.9914C80.8192 15.9957 81.3785 16.0032 81.9344 15.9741C82.074 15.9659 82.2118 15.956 82.3505 15.9449L82.5542 15.9243L82.7656 15.8974L83.6107 15.7768C84.1768 15.6955 84.7406 15.607 85.3031 15.5081C85.8667 15.4085 86.4265 15.2903 86.9777 15.1414C87.5293 14.991 88.0744 14.8151 88.5869 14.5783C88.9914 14.3911 89.3766 14.1627 89.7002 13.8793C89.6525 13.8737 89.6047 13.867 89.5565 13.8629C89.4738 13.8573 89.391 13.8494 89.3068 13.8461C89.2232 13.8429 89.139 13.8414 89.0543 13.8422C88.9697 13.8443 88.8847 13.8446 88.7998 13.8485C88.7143 13.852 88.6293 13.8573 88.5435 13.8637C88.3723 13.8769 88.2003 13.895 88.0283 13.9179C87.8565 13.9411 87.6849 13.9679 87.5131 13.9987C87.3426 14.0312 87.1711 14.0633 87.0015 14.1012C86.832 14.14 86.6617 14.177 86.4924 14.217L85.9856 14.3359C86.2813 14.2556 86.5768 14.1769 86.8713 14.0894C86.9511 14.0665 87.0308 14.0424 87.1104 14.0194L87.4916 13.9018C87.6583 13.8501 87.8269 13.7988 87.9972 13.7529C88.0614 13.7353 88.126 13.7191 88.1906 13.7027C88.3433 13.6591 88.4959 13.6162 88.6486 13.5718C88.9472 13.4843 89.2471 13.4085 89.5483 13.3359L90.0027 13.2255C90.1507 13.1895 90.2993 13.1548 90.4455 13.1124C90.74 13.0313 91.0309 12.9365 91.3186 12.8299C91.6059 12.7242 91.8905 12.6082 92.1724 12.4836C92.4551 12.361 92.7361 12.2341 93.0158 12.0989L93.8571 11.693C94.1393 11.5566 94.4162 11.4153 94.7076 11.2817C95.2848 11.0137 95.8701 10.7764 96.4395 10.5217C96.7242 10.3932 97.0042 10.2584 97.2758 10.1117C97.4115 10.0384 97.5457 9.96052 97.6756 9.8816C97.7398 9.84077 97.8042 9.80302 97.8681 9.75963L98.0616 9.62929C98.324 9.44668 98.5876 9.27175 98.8391 9.09119C99.0089 8.96888 99.1664 8.83768 99.3176 8.70136C98.876 8.61373 98.4272 8.55018 97.9759 8.50696C97.4255 8.45674 96.8713 8.42838 96.3166 8.42411C95.7635 8.42052 95.2085 8.43555 94.6583 8.46203C94.1051 8.4909 93.5552 8.52968 93.0076 8.58007C92.7337 8.60194 92.4616 8.63662 92.189 8.66412C91.9172 8.69453 91.6464 8.73313 91.3756 8.76696L90.5685 8.89081C90.3017 8.94052 90.0321 8.98357 89.768 9.03772L89.3736 9.1192C89.2422 9.14534 89.11 9.17404 88.9767 9.20684L88.5782 9.30096L88.3841 9.34794L88.187 9.39782C87.6619 9.53141 87.1381 9.66721 86.6173 9.80746C85.5786 10.088 84.5506 10.3908 83.5421 10.7359C83.04 10.9072 82.5402 11.0849 82.0454 11.272C81.7991 11.3661 81.5524 11.4611 81.3097 11.5619C81.0637 11.6563 80.8232 11.7607 80.5816 11.8622C80.3418 11.9688 80.1064 12.066 79.8648 12.1797C79.6241 12.2926 79.3881 12.4051 79.1441 12.5156L78.4237 12.8431C78.1849 12.95 77.9475 13.0591 77.7129 13.1724C77.244 13.3974 76.7811 13.6328 76.3429 13.9039C76.1253 14.0412 75.9107 14.1835 75.7151 14.3484C75.5187 14.5129 75.3384 14.6926 75.205 14.9162L75.1944 14.9114C75.1938 14.9135 75.1435 15.0691 75.1488 15.1936C75.154 15.319 75.3986 15.4176 75.6125 15.5384C75.826 15.659 76.9024 16.3997 76.9024 16.3997L76.9003 16.3289H76.9037C76.907 16.3066 76.9177 16.2886 76.9312 16.2722L76.9157 16.258C76.9644 16.1986 77.0339 16.1603 77.1031 16.1332Z" fill="#E1EEF4"/>
<path d="M99.7101 8.45124C99.157 8.31885 98.595 8.22968 98.0309 8.16903C97.4684 8.10958 96.904 8.08003 96.3409 8.06175C95.7787 8.04501 95.2196 8.04655 94.658 8.06004C94.1009 8.07679 93.5443 8.10087 92.9885 8.13709C92.7114 8.15161 92.4345 8.17911 92.1572 8.19995C91.881 8.22336 91.6056 8.25513 91.3296 8.28229L90.505 8.38701C90.231 8.43023 89.9582 8.46678 89.684 8.51513L89.2735 8.58892C89.1356 8.61267 89.0005 8.63863 88.8676 8.66733L88.4674 8.75104L88.3669 8.77222L88.2627 8.79528L88.063 8.84158C87.5307 8.96218 87.001 9.09474 86.4747 9.23311C85.9479 9.37046 85.426 9.51822 84.9051 9.66974C84.3855 9.82554 83.8682 9.98065 83.3552 10.152C82.8422 10.318 82.3343 10.5024 81.8314 10.695C81.3282 10.8862 80.8321 11.0961 80.3432 11.3204C79.8498 11.5504 79.3784 11.7929 78.9151 12.0415L78.2121 12.4098C77.9796 12.5366 77.7465 12.666 77.5169 12.7998C77.2857 12.9325 77.0602 13.0748 76.8377 13.2216C76.614 13.368 76.3978 13.5251 76.1897 13.6925C75.9808 13.8594 75.7821 14.04 75.6033 14.2392C75.5144 14.3391 75.4331 14.4452 75.3592 14.5556C75.2879 14.6669 75.2264 14.7877 75.1846 14.9073L75.1955 14.9121L75.2061 14.9169C75.3395 14.6932 75.5197 14.5135 75.7162 14.349C75.9118 14.1844 76.1262 14.0419 76.344 13.9045C76.782 13.6334 77.2449 13.398 77.714 13.1731C77.9485 13.0598 78.186 12.9506 78.4248 12.8437L79.1452 12.5162C79.3891 12.4057 79.6252 12.2933 79.8659 12.1804C80.1075 12.0666 80.3429 11.9694 80.5827 11.8628C80.8242 11.7613 81.0646 11.657 81.3108 11.5625C81.5535 11.4617 81.8 11.3667 82.0465 11.2726C82.5412 11.0856 83.0409 10.9079 83.5431 10.7366C84.5517 10.3913 85.5797 10.0886 86.6183 9.80811C87.1394 9.66787 87.6629 9.53206 88.1881 9.39847L88.3852 9.34859L88.5793 9.30161L88.9778 9.20749C89.111 9.17469 89.2434 9.14599 89.3746 9.11985L89.7691 9.03837C90.0332 8.98422 90.3026 8.941 90.5696 8.89146L91.3767 8.76761C91.6475 8.73379 91.9182 8.69518 92.19 8.66477C92.4627 8.6371 92.7348 8.60259 93.0086 8.58072C93.5563 8.53033 94.1062 8.49155 94.6593 8.46268C95.2096 8.43621 95.7646 8.42117 96.3177 8.42476C96.8724 8.42886 97.4265 8.45722 97.9769 8.50761C98.4283 8.55066 98.877 8.61438 99.3186 8.70201C99.1674 8.83833 99.0099 8.96953 98.8401 9.09184C98.5887 9.2724 98.3251 9.44733 98.0627 9.62994L97.8692 9.76028C97.8053 9.80367 97.7409 9.84143 97.6766 9.88225C97.5468 9.96117 97.4125 10.0391 97.2769 10.1124C97.0053 10.2591 96.7253 10.3939 96.4405 10.5223C95.8712 10.777 95.2859 11.0143 94.7087 11.2823C94.4174 11.4159 94.1405 11.557 93.8581 11.6937L93.0168 12.0996C92.7372 12.2347 92.4563 12.3616 92.1735 12.4843C91.8916 12.6088 91.607 12.725 91.3197 12.8306C91.0318 12.9371 90.7409 13.032 90.4466 13.1131C90.3005 13.1556 90.1517 13.1901 90.0038 13.2262L89.5494 13.3365C89.2482 13.4091 88.9482 13.485 88.6496 13.5725C88.4969 13.6169 88.3444 13.6597 88.1917 13.7033C88.1271 13.7197 88.0625 13.7361 87.9983 13.7535C87.828 13.7995 87.6594 13.8507 87.4926 13.9025L87.1115 14.02C87.0317 14.0431 86.952 14.0672 86.8724 14.0901C86.5778 14.1775 86.2825 14.2563 85.9866 14.3366L86.8763 14.1058C86.8857 14.1034 86.8951 14.1012 86.9043 14.0989C86.5987 14.1808 86.2938 14.2641 85.9866 14.3366L86.4935 14.2177C86.6628 14.1777 86.8331 14.1404 87.0025 14.1018C87.1722 14.0639 87.3437 14.0318 87.5142 13.9993C87.686 13.9686 87.8575 13.9418 88.0294 13.9185C88.2014 13.8957 88.3734 13.8775 88.5446 13.8644C88.6303 13.8579 88.7154 13.8526 88.8008 13.8492C88.8857 13.8453 88.9708 13.8449 89.0554 13.8429C89.1399 13.842 89.2241 13.8436 89.3078 13.8468C89.3921 13.8502 89.4749 13.8579 89.5576 13.8635C89.6058 13.8676 89.6536 13.8743 89.7013 13.8799C89.3777 14.1633 88.9927 14.3919 88.588 14.579C88.0755 14.8157 87.5306 14.9917 86.9788 15.142C86.4275 15.291 85.8677 15.409 85.3042 15.5088C84.7416 15.6077 84.1779 15.6963 83.6118 15.7775L82.7667 15.8981L82.5552 15.9249L82.3516 15.9456C82.2129 15.9565 82.0752 15.9666 81.9355 15.9748C81.3796 16.0038 80.8203 15.9963 80.2571 15.992C79.9766 15.9898 79.6944 15.9885 79.4117 15.9939L78.9969 16.0033C78.8623 16.0035 78.7234 15.9972 78.584 15.9943L78.1643 15.9919C78.0235 15.9956 77.8826 15.999 77.7403 16.0107C77.5987 16.0233 77.4561 16.0383 77.3141 16.071C77.2435 16.0863 77.1725 16.106 77.1041 16.1338C77.035 16.1608 76.9654 16.1993 76.9171 16.2587L76.9326 16.2729L76.9379 16.2777C77.051 16.2081 77.1921 16.2117 77.3249 16.2063C77.46 16.2073 77.5956 16.2134 77.7316 16.2252C77.8681 16.2358 78.0044 16.2474 78.1406 16.2621L78.5529 16.3012C78.692 16.313 78.831 16.3236 78.9754 16.3306C79.1271 16.3373 79.2596 16.3306 79.3995 16.3327C79.6765 16.334 79.9552 16.3414 80.2351 16.3504C80.7952 16.3673 81.3623 16.3887 81.9387 16.3708C82.0827 16.367 82.2272 16.3585 82.3718 16.3479L82.5932 16.3275L82.8062 16.3029L83.6591 16.1911C84.2283 16.1147 84.8004 16.0359 85.3728 15.9293C85.9453 15.8255 86.5187 15.702 87.0879 15.5462C87.6582 15.3895 88.2224 15.1914 88.7655 14.9321C89.3056 14.6704 89.8311 14.3354 90.2395 13.8738L90.4517 13.6345L90.141 13.5798C90.0677 13.5666 89.9949 13.5571 89.9216 13.5482L90.0602 13.5236C90.2153 13.4944 90.3707 13.4667 90.525 13.4307C90.8345 13.3627 91.1415 13.2805 91.4439 13.186C91.7471 13.0929 92.0476 12.9884 92.3439 12.8756C92.639 12.7615 92.9314 12.6389 93.2211 12.5123C93.511 12.3873 93.7955 12.2509 94.0797 12.1172L94.9285 11.7145C95.4928 11.451 96.0739 11.1995 96.6445 10.9096C96.9306 10.7658 97.2156 10.6136 97.4923 10.4479C97.631 10.3652 97.7673 10.2787 97.903 10.188C97.9694 10.1417 98.0395 10.0954 98.1042 10.0485L98.2961 9.90617C98.5407 9.71655 98.8005 9.53855 99.0555 9.345C99.312 9.15265 99.566 8.94612 99.7904 8.71226L99.9787 8.51632L99.7101 8.45124Z" fill="#293644"/>
<path opacity="0.5" d="M71.4727 14.3118C71.4168 14.0578 71.3027 13.8302 71.1682 13.6119C71.0343 13.3941 70.8756 13.191 70.7125 12.9922C70.3824 12.5969 70.0176 12.2272 69.6429 11.8659C69.4567 11.6845 69.2657 11.5058 69.0727 11.3292L68.4926 10.7912C68.296 10.6088 68.1082 10.4281 67.915 10.2449C67.7216 10.061 67.5289 9.89406 67.3349 9.71725C67.1376 9.54489 66.9422 9.36996 66.739 9.20255C66.5402 9.03036 66.3364 8.86226 66.1326 8.69537C65.7219 8.36208 65.3039 8.03563 64.8811 7.71448C64.0333 7.06858 63.1534 6.45668 62.2564 5.86272C61.8059 5.56531 61.3522 5.27132 60.8963 4.97869L60.7246 4.86902L60.5555 4.76328L60.207 4.54804C60.091 4.47475 59.9747 4.40574 59.8582 4.33963L59.5095 4.13771C59.276 4.00293 59.0343 3.87703 58.7963 3.74583L58.0698 3.3736C57.8234 3.2559 57.5788 3.13376 57.3304 3.01897C57.0807 2.9069 56.8332 2.78818 56.5798 2.68073C56.0766 2.46019 55.567 2.24991 55.0518 2.04799C54.5372 1.84932 54.0154 1.66004 53.4894 1.48887C52.962 1.31787 52.427 1.1696 51.8887 1.04353C51.4453 0.941886 50.9979 0.860401 50.5498 0.804199C50.6504 0.981859 50.7628 1.15542 50.8858 1.3259C51.0674 1.57634 51.2618 1.82557 51.453 2.08164L51.5958 2.2663C51.6431 2.3278 51.6921 2.384 51.7401 2.44294C51.8382 2.55893 51.9415 2.67526 52.0468 2.7875C52.2584 3.01265 52.4812 3.22874 52.7111 3.44057C53.171 3.862 53.651 4.27164 54.1144 4.70844C54.3488 4.92693 54.5666 5.14815 54.7918 5.36715L55.4621 6.01783C55.6847 6.2341 55.9112 6.44353 56.1411 6.64886C56.3692 6.8559 56.6022 7.05611 56.8415 7.24693C57.081 7.43894 57.3268 7.6207 57.5809 7.79067C57.7062 7.87711 57.8368 7.95671 57.9654 8.03785L58.3615 8.28538C58.6244 8.44938 58.885 8.61644 59.1409 8.79342C59.29 8.8966 59.44 8.99824 59.5893 9.1004C59.6263 9.12448 59.6651 9.14652 59.7017 9.17095C59.8493 9.26815 59.9926 9.36996 60.1347 9.4716L60.4637 9.70683C60.5305 9.75278 60.597 9.79976 60.6641 9.84554C60.9161 10.0212 61.1713 10.1894 61.4269 10.3589L60.9834 10.0859C60.8351 9.9945 60.6855 9.90584 60.537 9.81548C60.3879 9.72613 60.2352 9.6414 60.0835 9.55667C59.9308 9.47314 59.7758 9.39371 59.6202 9.31752C59.4644 9.24133 59.3071 9.17043 59.1485 9.10347C59.0696 9.06999 58.9902 9.03856 58.9101 9.00815C58.8308 8.97791 58.75 8.95058 58.6706 8.92205C58.5906 8.89438 58.5102 8.86944 58.4297 8.84604C58.3492 8.82246 58.2678 8.8035 58.1875 8.78317C58.1405 8.77173 58.0932 8.76301 58.0462 8.75345C58.2637 9.12431 58.5573 9.46272 58.8819 9.76799C59.2936 10.1542 59.7551 10.4933 60.2307 10.81C60.7065 11.1254 61.2008 11.4141 61.7043 11.6867C62.2065 11.9576 62.714 12.22 63.2251 12.4756L63.9894 12.8569L64.1813 12.9489L64.3683 13.0328C64.4961 13.0875 64.6244 13.1406 64.7537 13.192C65.2722 13.3951 65.8057 13.5648 66.341 13.7382C66.6082 13.8241 66.8764 13.9122 67.1429 14.0065L67.5336 14.1464C67.6608 14.1892 67.7944 14.2269 67.9278 14.2681L68.3267 14.3984C68.4591 14.4464 68.5922 14.4941 68.7235 14.5499C68.8537 14.6065 68.9842 14.6663 69.1089 14.7416C69.1709 14.7785 69.2323 14.8195 69.2883 14.8678C69.345 14.915 69.3993 14.9738 69.4267 15.0452L69.4075 15.0539C69.415 15.0737 69.4195 15.0942 69.4152 15.1164L69.4185 15.1173L69.3944 15.1837C69.3944 15.1837 70.6494 14.8205 70.8905 14.7737C71.1315 14.7266 71.3942 14.7102 71.4388 14.593C71.4836 14.476 71.4851 14.312 71.4851 14.3106L71.4887 14.3103L71.4727 14.3118Z" fill="#E1EEF4"/>
<path d="M71.4418 13.9207C71.4064 13.7927 71.3625 13.6662 71.3095 13.5435C71.2031 13.2982 71.0716 13.064 70.9259 12.8397C70.7812 12.6151 70.6257 12.3976 70.4597 12.1885C70.295 11.9787 70.1259 11.7727 69.9489 11.5737C69.7728 11.3742 69.5931 11.1781 69.4117 10.9842L68.8607 10.4129C68.4998 10.0308 68.1286 9.65156 67.7331 9.27797C67.3399 8.91069 66.9352 8.55503 66.5182 8.21491C66.1017 7.87326 65.6782 7.53827 65.2438 7.21882C64.8113 6.89442 64.3687 6.58386 63.9254 6.2721C63.4794 5.9641 63.0301 5.659 62.574 5.36245C62.118 5.06487 61.657 4.77207 61.1899 4.48952L61.0152 4.38293L60.9236 4.32775L60.8351 4.27616L60.4817 4.07049C60.3649 4.0013 60.2444 3.93383 60.1216 3.86823L59.755 3.66836C59.5104 3.53631 59.2628 3.4152 59.0167 3.28793L58.2671 2.92817C58.0139 2.81542 57.7628 2.69807 57.5076 2.58857C57.251 2.4818 56.9973 2.36803 56.7389 2.26656C56.2225 2.05695 55.702 1.85828 55.1791 1.66713C54.6502 1.47666 54.1201 1.29865 53.5812 1.13722C53.0415 0.976987 52.4966 0.826831 51.9441 0.705886C51.39 0.585111 50.8281 0.492352 50.2613 0.443496L49.9873 0.419922L50.1038 0.6654C50.243 0.958197 50.4188 1.23442 50.6014 1.49784C50.7825 1.76177 50.9728 2.01271 51.1448 2.26997L51.2823 2.46557C51.3286 2.53048 51.3806 2.59642 51.4291 2.66134C51.5295 2.79014 51.631 2.91536 51.7369 3.0375C51.9474 3.28229 52.1696 3.51667 52.3955 3.74335C52.8454 4.19827 53.3177 4.62038 53.7701 5.04881L54.4479 5.69881C54.6755 5.91541 54.9025 6.13441 55.1384 6.34487C55.373 6.55636 55.6118 6.76476 55.8555 6.96651C56.1012 7.16689 56.3533 7.36061 56.6118 7.54459C56.8689 7.72976 57.1344 7.90452 57.4066 8.06698C57.5411 8.14966 57.6801 8.22533 57.818 8.30186L57.9417 8.36866C57.8694 8.35431 57.797 8.3403 57.7235 8.32971L57.4119 8.28341L57.5373 8.57758C57.7789 9.14438 58.1723 9.62799 58.6023 10.0469C59.0355 10.4645 59.5088 10.8308 59.9996 11.1593C60.4909 11.4866 60.9962 11.7845 61.5068 12.0641C62.0157 12.3457 62.5344 12.6009 63.0499 12.8532L63.8241 13.2288L64.0185 13.3196L64.2218 13.4084C64.3559 13.4641 64.4903 13.5179 64.6259 13.5669C65.1671 13.7656 65.7114 13.9246 66.249 14.0854C66.5167 14.1653 66.7838 14.2461 67.0471 14.3322C67.1803 14.3746 67.304 14.4226 67.4502 14.4641C67.5893 14.503 67.7246 14.5372 67.8597 14.5695L68.2637 14.6626C68.398 14.6913 68.531 14.7234 68.6634 14.7564C68.7963 14.7885 68.9269 14.8252 69.0553 14.8669C69.1795 14.9139 69.3145 14.9552 69.4 15.0569L69.4069 15.0538L69.426 15.0451C69.3988 14.9737 69.3444 14.9149 69.2876 14.8678C69.2316 14.8194 69.1703 14.7784 69.1083 14.7415C68.9837 14.6664 68.8531 14.6064 68.7229 14.5498C68.5913 14.494 68.4584 14.4463 68.3261 14.3983L67.9272 14.268C67.7939 14.2266 67.6603 14.1889 67.5329 14.1464L67.1422 14.0064C66.8756 13.9122 66.6075 13.8242 66.3404 13.7381C65.805 13.5647 65.2715 13.3951 64.753 13.1919C64.6237 13.1405 64.4954 13.0874 64.3677 13.0327L64.1806 12.9489L63.9888 12.8568L63.2245 12.4755C62.7134 12.2198 62.2058 11.9576 61.7036 11.6866C61.2002 11.414 60.7058 11.1251 60.2301 10.8099C59.7545 10.4932 59.2929 10.1541 58.8812 9.7679C58.5568 9.46263 58.2632 9.12422 58.0455 8.75336C58.0925 8.76292 58.1398 8.77147 58.1868 8.78308C58.2671 8.80358 58.3486 8.82237 58.429 8.84595C58.5095 8.86935 58.59 8.89429 58.6699 8.92196C58.7495 8.95049 58.8301 8.97782 58.9094 9.00806C58.9895 9.03847 59.069 9.0699 59.1479 9.10338C59.3064 9.17035 59.4637 9.24124 59.6195 9.31743C59.7752 9.39379 59.9301 9.47322 60.0828 9.55658C60.2347 9.64131 60.3872 9.72604 60.5364 9.81539C60.6848 9.90575 60.8345 9.99441 60.9827 10.0858L61.4262 10.3588C61.1706 10.1893 60.9154 10.0211 60.6635 9.84545C60.5963 9.79967 60.5299 9.75269 60.4631 9.70674L60.1341 9.47151C59.9919 9.36987 59.8486 9.26806 59.701 9.17086C59.6645 9.14643 59.6257 9.12439 59.5886 9.10031C59.4393 8.99798 59.2893 8.89634 59.1402 8.79333C58.8843 8.61635 58.6238 8.44946 58.3609 8.28529L57.9647 8.03777C57.8361 7.95662 57.7056 7.87702 57.5802 7.79058C57.3262 7.62061 57.0804 7.43885 56.8409 7.24684C56.6017 7.05585 56.3685 6.85582 56.1405 6.64877C55.9106 6.44344 55.684 6.23401 55.4614 6.01774L54.7911 5.36706C54.5661 5.14806 54.3482 4.92684 54.1138 4.70835C53.6503 4.27155 53.1705 3.86191 52.7105 3.44048C52.4805 3.22848 52.2579 3.01256 52.0461 2.78741C51.9409 2.67535 51.8375 2.55884 51.7395 2.44285C51.6916 2.38392 51.6426 2.32771 51.5951 2.26622L51.4523 2.08155C51.2612 1.82548 51.0668 1.57625 50.8852 1.32582C50.7622 1.15533 50.6498 0.981771 50.5492 0.804111C50.9972 0.860313 51.4446 0.941797 51.8881 1.04344C52.4264 1.16951 52.9614 1.31779 53.4887 1.48878C54.0147 1.65995 54.5368 1.8494 55.0511 2.0479C55.5665 2.24982 56.0759 2.4601 56.5792 2.68064C56.8323 2.78809 57.08 2.90682 57.3298 3.01888C57.5782 3.1335 57.8228 3.25564 58.0691 3.37351L58.7956 3.74575C59.0336 3.87694 59.2753 4.00284 59.5088 4.13762L59.8575 4.33954C59.974 4.40565 60.0903 4.47466 60.2063 4.54795L60.5548 4.76319L60.7239 4.86893L60.8956 4.9786C61.3515 5.27106 61.8053 5.56522 62.2557 5.86263C63.1527 6.45659 64.0327 7.06849 64.8805 7.71439C65.3035 8.03537 65.7213 8.36199 66.132 8.69528C66.3356 8.86234 66.5395 9.03027 66.7384 9.20246C66.9415 9.36987 67.1369 9.5448 67.3342 9.71716C67.5283 9.89397 67.721 10.061 67.9144 10.2448C68.1076 10.428 68.2951 10.6087 68.4919 10.7911L69.0721 11.3291C69.2651 11.5057 69.4561 11.6844 69.6423 11.8658C70.0167 12.2271 70.3818 12.5966 70.7118 12.9921C70.875 13.1911 71.0337 13.394 71.1676 13.6118C71.302 13.8302 71.4161 14.0575 71.472 14.3117L71.4874 14.3102L71.4956 14.3095C71.4942 14.1826 71.4737 14.0488 71.4418 13.9207Z" fill="#293644"/>
</svg>
